{"glyphs":{"0":{"ha":688,"x_min":52,"x_max":635,"o":"m 344 989 q 487 924 417 989 q 596 739 557 859 q 635 486 635 618 q 597 235 635 355 q 489 50 559 116 q 344 -17 420 -17 q 198 50 268 -17 q 91 235 129 116 q 52 486 52 355 q 91 739 52 618 q 200 924 130 859 q 344 989 270 989 m 161 467 q 202 237 170 345 q 283 71 235 128 q 370 18 327 18 q 378 19 374 18 q 465 90 426 24 q 520 270 504 156 q 530 419 530 342 q 527 505 530 461 q 485 737 517 627 q 404 903 452 847 q 317 954 359 954 q 309 954 313 954 q 224 884 263 949 q 168 705 184 819 q 157 552 157 630 q 161 467 157 510 z "},"1":{"ha":688,"x_min":148,"x_max":538,"o":"m 159 0 l 159 34 l 224 34 q 294 193 294 34 l 294 732 q 214 819 294 819 l 148 819 l 148 853 q 370 972 346 896 l 404 972 l 404 193 q 473 34 404 34 l 538 34 l 538 0 l 159 0 z "},"2":{"ha":688,"x_min":77,"x_max":635,"o":"m 490 703 q 431 869 490 803 q 305 935 373 935 q 119 846 190 935 l 104 846 l 104 879 q 182 949 130 913 q 307 986 233 986 q 515 904 431 986 q 599 703 599 822 q 174 81 599 525 l 460 81 q 602 157 548 81 l 635 157 l 565 0 l 77 0 l 78 34 q 490 703 490 492 z "},"3":{"ha":688,"x_min":56,"x_max":607,"o":"m 295 15 q 443 94 397 15 q 488 284 488 173 q 458 424 488 355 q 338 524 428 492 l 338 537 q 436 619 393 568 q 479 761 479 670 q 441 889 479 836 q 329 952 404 943 q 245 922 283 952 q 208 846 208 891 l 179 846 l 179 954 q 229 977 179 968 q 334 986 279 986 q 509 929 439 986 q 578 760 578 872 q 536 648 578 701 q 406 553 495 594 q 538 462 469 544 q 607 273 607 380 q 509 74 607 163 q 289 -15 412 -15 q 121 12 186 -15 q 56 71 56 38 l 56 139 l 90 139 q 148 49 90 83 q 295 15 206 15 z "},"4":{"ha":688,"x_min":29,"x_max":677,"o":"m 407 297 l 407 762 l 119 297 l 407 297 m 500 229 l 500 113 q 549 34 500 34 l 600 34 l 600 0 l 300 0 l 300 34 l 352 34 q 407 115 407 34 l 407 229 l 29 229 l 29 253 l 477 972 l 500 972 l 500 297 l 513 297 q 644 387 603 297 l 677 387 l 607 229 l 500 229 z "},"5":{"ha":688,"x_min":52,"x_max":631,"o":"m 155 578 l 253 972 l 522 972 q 597 1008 591 972 l 631 1008 l 589 891 l 298 891 l 227 610 q 490 525 380 610 q 600 321 600 441 q 503 74 600 163 q 283 -15 406 -15 q 115 12 180 -15 q 52 67 52 37 l 52 139 l 83 139 q 142 47 83 79 q 289 15 200 15 q 436 94 391 15 q 481 330 481 173 q 407 509 481 437 q 214 581 332 581 q 155 578 186 581 z "},"6":{"ha":688,"x_min":52,"x_max":635,"o":"m 378 7 q 489 74 447 7 q 531 242 531 141 q 463 468 531 380 q 317 557 395 557 q 206 488 255 557 q 157 318 157 419 q 222 111 157 214 q 378 7 287 7 m 543 989 l 543 957 q 322 835 423 949 q 163 518 220 722 q 344 581 229 581 q 487 543 417 581 q 596 432 557 504 q 635 282 635 361 q 597 133 635 203 q 499 22 559 62 q 385 -17 440 -17 q 136 93 220 -17 q 52 346 52 203 q 194 776 52 563 q 543 989 336 989 z "},"7":{"ha":688,"x_min":65,"x_max":623,"o":"m 500 891 l 229 891 q 99 815 139 891 l 65 815 l 135 972 l 623 972 l 622 939 q 371 121 371 351 q 416 34 371 34 l 496 34 l 496 0 l 217 0 l 217 34 l 262 34 q 311 123 311 34 q 500 891 324 323 z "},"8":{"ha":688,"x_min":52,"x_max":635,"o":"m 374 563 q 480 647 456 580 q 498 742 498 698 q 496 768 498 755 q 461 873 488 823 q 393 947 433 922 q 321 970 356 970 l 315 970 q 244 939 277 968 q 197 858 211 909 q 189 790 189 825 q 191 751 189 771 q 226 648 199 697 q 374 563 253 600 m 320 532 q 197 426 243 518 q 159 286 159 348 q 161 262 159 274 q 202 129 170 192 q 283 34 235 66 q 370 4 326 4 l 378 4 q 465 45 426 7 q 520 149 504 83 q 530 235 530 191 q 527 284 530 259 q 477 428 519 360 q 320 532 435 496 m 431 550 q 487 526 460 541 q 596 419 557 488 q 635 273 635 349 q 597 129 635 197 q 489 21 559 60 q 344 -17 420 -17 q 198 21 268 -17 q 91 129 129 60 q 52 273 52 197 q 91 419 52 349 q 200 526 130 488 q 256 550 228 541 q 223 564 239 556 q 133 648 165 594 q 101 760 101 701 q 134 873 101 819 q 224 957 166 928 q 344 986 282 986 q 463 957 405 986 q 554 873 522 928 q 587 760 587 819 q 555 648 587 701 q 465 564 523 594 q 431 550 448 555 z "},"9":{"ha":688,"x_min":52,"x_max":635,"o":"m 309 965 q 199 898 241 965 q 157 730 157 831 q 225 504 157 593 q 371 416 293 416 q 482 485 433 416 q 531 654 531 553 q 466 862 531 758 q 309 965 401 965 m 144 -17 l 144 16 q 366 137 264 24 q 524 454 467 251 q 344 391 460 391 q 201 430 271 391 q 92 540 131 469 q 52 690 52 612 q 91 840 52 769 q 188 950 129 911 q 303 989 248 989 q 552 879 468 989 q 635 627 635 769 q 494 196 635 410 q 144 -17 352 -17 z "}," ":{"ha":345,"x_min":0,"x_max":0,"o":""},"!":{"ha":456,"x_min":140,"x_max":310,"o":"m 212 222 l 179 925 q 193 972 179 956 q 235 987 208 987 q 278 972 264 987 q 292 925 292 956 l 237 222 l 212 222 m 151 113 l 207 170 q 227 180 217 180 q 248 169 235 180 l 302 111 q 310 91 310 100 q 300 70 310 81 l 246 10 q 227 -3 233 -3 q 207 6 216 -3 l 147 75 q 140 92 140 83 q 151 113 140 102 z "},"\"":{"ha":456,"x_min":68,"x_max":390,"o":"m 134 751 l 113 751 l 71 995 q 68 1017 68 1010 q 82 1056 68 1042 q 123 1069 96 1069 q 164 1056 149 1069 q 178 1018 178 1043 q 176 995 178 1013 l 134 751 m 345 751 l 325 751 l 283 995 q 280 1017 280 1010 q 294 1056 280 1042 q 334 1069 308 1069 q 375 1056 361 1069 q 390 1018 390 1043 q 387 995 390 1013 l 345 751 z "},"#":{"ha":906,"x_min":79,"x_max":827,"o":"m 404 583 l 347 386 l 511 386 l 569 583 l 404 583 m 456 972 l 519 972 l 424 649 l 588 649 l 684 972 l 747 972 l 651 649 l 827 649 l 807 583 l 631 583 l 575 387 l 764 387 l 744 320 l 554 320 l 459 0 l 397 0 l 491 320 l 328 320 l 232 0 l 170 0 l 264 320 l 79 320 l 100 387 l 283 387 l 342 583 l 142 583 l 161 649 l 361 649 l 456 972 z "},"$":{"ha":688,"x_min":77,"x_max":665,"o":"m 391 1053 l 391 983 q 487 960 437 978 q 500 956 494 956 q 528 986 517 956 l 562 986 l 631 795 l 598 795 q 484 916 557 886 q 391 943 434 937 l 391 576 q 610 452 555 513 q 665 273 665 391 q 584 70 665 140 q 391 -12 503 0 l 391 -174 l 342 -174 l 342 -13 q 161 13 214 -11 q 149 17 155 17 q 121 -14 132 17 l 87 -14 l 87 211 l 120 211 q 223 58 154 87 q 342 28 293 28 l 342 459 q 139 563 197 505 q 77 732 77 625 q 161 916 77 844 q 342 985 233 975 l 342 1053 l 391 1053 m 391 444 l 391 31 q 535 96 476 42 q 593 244 593 149 q 547 368 593 323 q 391 444 505 408 m 342 592 l 342 945 q 207 896 261 941 q 149 772 149 846 q 186 669 149 706 q 342 592 221 632 z "},"%":{"ha":1092,"x_min":42,"x_max":1050,"o":"m 304 989 q 434 956 371 989 q 532 862 496 923 q 567 732 567 800 q 533 605 567 665 q 436 510 498 544 q 304 475 373 475 q 174 510 237 475 q 77 605 111 544 q 42 732 42 665 q 77 862 42 800 q 175 956 113 923 q 304 989 238 989 m 140 723 q 177 605 149 661 q 250 521 206 550 q 327 494 288 494 q 336 494 332 494 q 414 530 378 496 q 463 623 449 564 q 472 698 472 659 q 469 742 472 720 q 431 861 461 805 q 359 945 401 917 q 281 971 319 971 l 273 971 q 197 936 232 969 q 147 844 161 903 q 137 765 137 805 q 140 723 137 744 m 201 -20 l 839 971 l 896 971 l 260 -20 l 201 -20 m 787 500 q 916 467 853 500 q 1015 372 979 433 q 1050 243 1050 311 q 1016 115 1050 176 q 919 20 981 54 q 787 -14 856 -14 q 656 20 719 -14 q 559 115 594 54 q 525 243 525 176 q 560 372 525 311 q 658 467 595 433 q 787 500 721 500 m 623 233 q 660 116 631 171 q 732 31 689 60 q 811 5 772 5 l 819 5 q 897 41 861 7 q 946 133 932 75 q 955 208 955 170 q 952 252 955 230 q 914 371 944 315 q 842 456 884 427 q 764 481 802 481 l 756 481 q 680 446 715 479 q 630 355 644 413 q 620 275 620 315 q 623 233 620 254 z "},"&":{"ha":1141,"x_min":103,"x_max":1124,"o":"m 713 133 l 337 596 q 215 538 257 596 q 174 399 174 479 q 198 276 174 338 q 267 165 222 215 q 378 79 315 109 q 510 49 441 49 q 625 72 570 49 q 713 133 680 94 m 945 0 q 851 17 907 0 q 738 106 795 34 q 619 23 692 56 q 456 -11 546 -11 q 202 91 300 -11 q 103 353 103 193 q 155 533 103 462 q 307 636 206 605 q 265 715 279 677 q 251 790 251 752 q 303 924 251 861 q 427 986 355 986 q 523 960 473 986 q 535 956 529 956 q 561 986 551 956 l 592 986 l 657 795 l 626 795 q 521 916 589 886 q 425 941 463 941 q 353 910 381 941 q 326 831 326 880 q 395 650 326 742 l 755 195 q 837 361 821 294 q 848 449 848 414 q 806 515 848 515 l 745 515 l 745 549 l 1046 549 l 1046 515 l 985 515 q 886 361 920 515 q 781 163 865 271 q 949 71 855 71 l 960 71 q 1090 157 1057 82 l 1124 157 l 1054 0 l 945 0 z "},"'":{"ha":235,"x_min":68,"x_max":178,"o":"m 134 751 l 113 751 l 71 995 q 68 1017 68 1010 q 82 1056 68 1042 q 123 1069 96 1069 q 164 1056 149 1069 q 178 1018 178 1043 q 176 995 178 1013 l 134 751 z "},"(":{"ha":514,"x_min":171,"x_max":475,"o":"m 171 408 q 238 767 172 595 q 420 1067 304 939 l 475 1067 q 319 770 358 903 q 280 415 280 639 l 280 400 q 319 46 280 176 q 475 -251 358 -87 l 420 -251 q 238 48 304 -123 q 171 408 172 220 z "},")":{"ha":514,"x_min":39,"x_max":343,"o":"m 94 -251 l 39 -251 q 195 46 156 -87 q 234 400 234 176 l 234 415 q 195 770 234 639 q 39 1067 156 903 l 94 1067 q 276 767 210 939 q 343 408 342 595 q 276 48 342 220 q 94 -251 210 -123 z "},"*":{"ha":694,"x_min":148,"x_max":546,"o":"m 338 878 q 313 966 335 926 q 288 1023 288 1010 q 303 1058 288 1044 q 346 1071 319 1071 q 388 1059 371 1071 q 404 1027 404 1046 q 380 966 404 1013 q 355 878 357 925 q 431 929 399 895 q 478 970 466 966 q 492 972 486 972 q 516 966 505 972 q 542 930 534 954 q 546 905 546 917 q 543 886 546 895 q 517 861 536 866 q 505 859 513 859 q 453 865 488 859 q 416 869 434 869 q 361 861 388 869 q 432 805 391 824 q 486 773 478 783 q 494 747 494 761 q 493 736 494 741 q 467 700 488 715 q 427 685 447 685 q 426 686 426 685 q 393 701 405 686 q 378 765 385 713 q 347 850 372 810 q 315 766 321 810 q 302 705 309 715 q 269 686 289 688 l 265 686 q 227 701 246 686 q 200 735 206 715 q 197 749 197 742 q 205 770 197 760 q 261 805 214 782 q 332 861 302 825 q 278 868 304 868 q 242 865 260 868 q 189 857 205 857 q 180 859 183 857 q 152 884 159 865 q 148 904 148 893 q 152 928 148 916 q 176 964 159 952 q 199 972 188 972 q 212 970 205 972 q 262 928 225 966 q 338 878 294 895 z "},"+":{"ha":688,"x_min":59,"x_max":629,"o":"m 296 439 l 59 439 l 59 534 l 296 534 l 296 784 l 297 785 l 391 785 l 391 534 l 628 534 l 629 533 l 629 439 l 391 439 l 391 188 l 296 188 l 296 439 z "},",":{"ha":378,"x_min":81,"x_max":252,"o":"m 161 175 q 221 131 191 175 q 252 28 252 86 q 203 -126 252 -46 q 109 -205 155 -205 l 109 -176 q 168 -47 159 -147 q 81 62 168 33 l 81 90 l 161 175 z "},"-":{"ha":454,"x_min":79,"x_max":376,"o":"m 106 277 q 79 296 79 277 l 79 353 q 106 372 79 372 l 348 372 q 376 353 376 372 l 376 296 q 349 277 376 277 l 106 277 z "},".":{"ha":378,"x_min":87,"x_max":257,"o":"m 98 113 l 154 170 q 174 180 164 180 q 195 169 182 180 l 249 111 q 257 91 257 100 q 248 70 257 81 l 193 10 q 174 -3 180 -3 q 154 6 163 -3 l 94 75 q 87 92 87 83 q 98 113 87 102 z "},"/":{"ha":386,"x_min":9,"x_max":430,"o":"m 63 -34 l 9 -34 l 376 972 l 430 972 l 63 -34 z "},":":{"ha":378,"x_min":87,"x_max":257,"o":"m 98 113 l 154 170 q 174 180 164 180 q 195 169 182 180 l 249 111 q 257 91 257 100 q 248 70 257 81 l 193 10 q 174 -3 180 -3 q 154 6 163 -3 l 94 75 q 87 92 87 83 q 98 113 87 102 m 98 583 l 154 640 q 174 650 164 650 q 195 639 182 650 l 249 581 q 257 561 257 570 q 248 540 257 551 l 193 480 q 174 467 180 467 q 154 476 163 467 l 94 545 q 87 562 87 553 q 98 583 87 572 z "},";":{"ha":378,"x_min":81,"x_max":257,"o":"m 98 583 l 154 640 q 174 649 164 649 q 195 638 182 649 l 249 580 q 257 560 257 569 q 248 539 257 550 l 193 479 q 174 466 180 466 q 154 475 163 466 l 94 544 q 87 562 87 553 q 98 583 87 572 m 161 175 q 221 131 191 175 q 252 28 252 86 q 203 -126 252 -46 q 109 -205 155 -205 l 109 -176 q 168 -47 159 -147 q 81 62 168 33 l 81 90 l 161 175 z "},"<":{"ha":688,"x_min":59,"x_max":629,"o":"m 629 728 l 205 485 l 629 244 l 629 131 l 59 457 l 59 513 l 629 842 l 629 728 z "},"=":{"ha":688,"x_min":59,"x_max":629,"o":"m 59 428 l 629 428 l 629 333 l 59 333 l 59 428 m 59 640 l 629 640 l 629 545 l 59 545 l 59 640 z "},">":{"ha":688,"x_min":59,"x_max":629,"o":"m 59 842 l 629 513 l 629 457 l 59 131 l 59 244 l 483 485 l 59 728 l 59 842 z "},"?":{"ha":507,"x_min":90,"x_max":452,"o":"m 90 902 q 254 972 176 972 q 397 926 343 972 q 452 803 452 880 q 430 708 452 756 q 345 582 408 660 q 249 455 284 505 q 214 358 214 404 q 238 230 214 315 l 206 230 q 172 373 172 323 q 251 585 172 447 q 330 794 330 722 q 298 882 330 850 q 210 913 267 913 q 90 859 153 913 l 90 902 m 151 113 l 207 170 q 227 180 217 180 q 248 169 235 180 l 302 111 q 310 91 310 100 q 300 70 310 81 l 246 10 q 227 -3 233 -3 q 207 6 216 -3 l 147 75 q 140 92 140 83 q 151 113 140 102 z "},"@":{"ha":1369,"x_min":68,"x_max":1276,"o":"m 659 422 q 557 368 603 415 q 511 233 511 320 q 554 101 511 160 q 678 42 597 42 q 764 155 744 45 l 764 478 q 659 422 727 435 m 922 20 q 854 32 880 20 q 812 68 829 43 q 757 25 793 43 q 667 6 721 6 q 493 74 569 6 q 416 233 416 142 q 452 346 417 292 q 542 424 488 399 q 660 457 597 448 q 734 486 705 468 q 764 536 764 504 q 736 621 762 583 q 648 659 709 659 q 566 619 600 659 q 532 534 532 579 l 501 534 l 501 642 q 550 669 501 656 q 671 683 600 683 q 802 639 745 682 q 859 532 859 597 l 859 133 q 923 54 859 54 q 1104 183 1048 77 q 1160 443 1160 290 q 1002 809 1146 670 q 677 937 869 937 q 411 843 538 937 q 228 602 283 750 q 182 357 182 481 q 270 11 182 145 q 477 -186 358 -124 q 693 -249 596 -249 q 1083 -108 879 -249 l 1083 -159 q 696 -283 905 -283 q 383 -200 533 -283 q 151 32 233 -117 q 68 345 68 180 q 152 660 68 509 q 386 891 236 810 q 696 972 536 972 q 1109 817 941 972 q 1276 433 1276 661 q 1157 135 1276 250 q 922 20 1038 21 z "},"A":{"ha":785,"x_min":-50,"x_max":1021,"o":"m 789 1135 l 789 1135 q 744 913 766 1062 q 712 713 724 812 l 713 713 q 840 739 777 730 l 840 737 l 844 737 l 844 739 l 842 739 l 842 741 l 846 741 q 847 739 846 739 q 861 739 848 739 l 861 737 q 850 734 856 734 l 851 732 l 851 732 l 848 732 l 848 734 l 843 734 l 843 732 l 846 732 l 846 730 l 845 730 l 819 726 l 820 724 q 816 726 817 726 l 793 722 l 793 720 l 795 720 l 805 722 q 806 720 805 722 q 805 718 805 720 l 806 718 q 964 741 924 741 l 964 739 q 1021 743 1000 743 l 1021 741 l 1020 741 q 809 712 953 741 l 709 686 q 688 385 688 481 q 686 379 686 385 l 686 378 l 688 378 q 701 491 690 397 l 703 491 q 669 229 688 336 q 666 225 667 225 l 665 225 q 663 256 663 239 l 663 272 q 684 567 663 372 l 684 570 q 684 573 684 572 l 682 573 q 659 194 659 344 l 661 194 l 664 197 l 665 197 l 665 192 q 649 109 655 109 q 643 244 643 109 q 678 678 643 378 l 677 678 q 387 578 495 627 q 104 79 218 318 q 92 52 104 77 l 92 52 l 94 52 q 162 177 146 154 l 162 175 q 1 -140 49 -35 q -3 -146 -3 -146 l -3 -144 q 72 48 -3 -121 q 182 256 121 150 q 195 281 190 270 q 1 -119 68 66 q -20 -182 -9 -144 l -19 -182 l -16 -180 l -15 -180 q -48 -277 -25 -218 l -49 -277 l -50 -275 l -50 -274 q -20 -128 -50 -231 q 172 272 45 51 q 340 549 239 391 q 347 559 341 549 l 347 559 q 155 450 251 515 q 119 423 124 425 l 119 422 l 121 422 q 208 476 202 476 q 77 384 139 435 q 35 326 39 348 q 26 311 29 313 l 24 313 q 134 452 24 371 q 271 533 211 505 l 292 545 l 292 545 l 290 545 q 20 304 20 408 q 22 286 20 300 l 24 286 l 28 289 l 28 289 q 56 233 39 258 q 63 222 63 226 l 60 222 q 18 260 43 233 q 3 301 3 278 l 3 306 q 226 528 3 399 q 374 600 292 564 q 607 932 498 789 l 607 932 l 608 932 l 610 932 q 612 937 610 937 q 613 936 612 936 q 614 941 613 941 q 616 939 614 939 q 618 945 616 945 q 618 943 618 943 q 620 949 620 945 l 622 947 q 623 953 623 949 l 625 951 q 626 957 626 954 l 628 956 q 629 961 629 958 l 631 960 q 632 966 632 962 l 633 966 l 635 965 q 637 970 635 970 q 638 969 637 969 q 640 974 638 974 q 641 973 640 973 q 642 978 642 975 l 644 977 q 645 982 645 979 l 647 981 q 648 987 648 983 l 649 987 l 651 986 l 651 991 l 652 991 l 654 990 q 655 995 655 991 l 657 994 q 659 1000 659 996 l 659 1000 l 661 999 l 661 1004 l 663 1004 l 664 1003 q 666 1008 664 1008 q 667 1007 666 1007 q 668 1013 668 1009 l 669 1013 l 671 1013 l 672 1019 l 673 1019 l 675 1017 l 675 1023 l 676 1023 l 678 1021 q 682 1027 678 1027 q 682 1027 682 1027 q 702 1054 682 1031 q 760 1122 732 1092 l 762 1122 q 767 1126 762 1123 l 767 1126 q 728 1071 751 1105 q 643 964 713 1055 q 642 965 643 965 q 640 960 642 960 q 639 961 640 961 q 637 956 639 956 q 636 957 637 957 q 635 951 635 955 l 633 953 q 631 951 633 951 l 632 949 l 632 947 l 630 949 q 618 935 620 935 l 620 932 l 620 932 l 618 932 q 605 916 606 916 l 606 913 l 606 911 l 605 911 l 603 912 q 602 911 603 911 l 603 909 l 603 907 l 602 907 l 600 908 l 599 906 q 600 903 600 904 l 599 903 l 597 904 q 593 900 595 900 l 595 898 l 595 896 l 593 896 l 591 897 q 591 896 591 896 l 591 894 l 591 892 l 591 892 l 589 893 q 587 892 589 892 l 589 890 l 589 889 l 587 890 q 585 889 587 889 l 587 887 l 587 886 q 585 885 587 885 q 587 882 587 883 q 744 1089 685 1017 l 745 1089 q 746 1085 745 1088 l 745 1085 l 743 1086 q 742 1085 743 1085 l 743 1083 l 743 1082 q 741 1080 743 1080 l 739 1081 q 730 1066 739 1075 q 573 852 629 934 l 414 616 l 416 616 q 682 706 508 656 q 762 1104 725 1009 l 760 1103 l 760 1105 q 767 1118 764 1105 l 768 1118 l 770 1118 l 770 1120 l 771 1120 l 773 1120 q 789 1135 787 1135 m 751 1052 l 751 1050 l 752 1050 q 769 1107 758 1061 l 771 1107 q 772 1103 771 1107 l 770 1104 l 769 1099 q 770 1096 770 1097 l 768 1097 l 768 1095 l 769 1093 l 767 1093 l 767 1092 l 768 1090 q 766 1089 766 1090 l 766 1086 l 766 1086 l 766 1085 l 766 1083 q 764 1082 764 1083 l 764 1079 l 764 1079 l 764 1078 l 764 1076 q 762 1075 762 1076 q 764 1072 764 1073 l 762 1073 l 762 1069 q 760 1068 760 1069 q 762 1065 762 1066 l 760 1066 l 760 1064 q 760 1061 760 1062 l 758 1062 l 744 1003 l 744 1001 l 745 1001 q 750 1023 745 1006 l 754 1021 q 777 1112 762 1056 l 779 1112 l 777 1106 l 777 1104 l 779 1104 q 785 1130 779 1108 q 767 1102 767 1115 q 751 1052 764 1097 m 768 1116 l 768 1114 l 769 1114 l 769 1116 l 768 1116 m 750 1097 l 751 1097 l 751 1095 l 750 1095 l 750 1097 m 748 1093 l 749 1093 q 745 1089 749 1092 l 745 1090 q 748 1093 745 1092 m 756 1052 l 758 1052 l 758 1050 l 756 1050 l 756 1052 m 755 1048 l 758 1048 l 758 1046 l 755 1046 l 755 1048 m 686 1027 l 686 1025 l 688 1025 l 688 1027 l 686 1027 m 751 1027 l 752 1027 l 752 1025 l 751 1025 l 751 1027 m 682 1021 l 682 1019 q 684 1021 684 1019 l 684 1023 q 682 1021 682 1022 m 677 1015 l 677 1015 q 680 1017 680 1015 l 680 1017 q 677 1015 677 1017 m 752 1017 l 752 1015 l 753 1015 l 753 1017 l 752 1017 m 612 932 l 614 930 l 676 1013 l 676 1013 q 612 932 639 970 m 743 1000 l 743 997 l 744 997 l 744 1000 l 743 1000 m 742 996 l 742 993 l 743 993 l 743 996 l 742 996 m 741 991 l 741 989 l 742 989 l 742 991 l 741 991 m 583 884 l 585 884 l 585 886 q 583 884 583 886 m 577 877 l 579 877 q 583 881 579 878 l 583 883 q 577 877 581 883 m 583 878 l 583 876 l 583 876 l 583 878 l 583 878 m 574 873 l 574 872 q 576 874 576 872 l 576 875 q 574 873 574 875 m 571 869 l 571 868 q 573 870 573 868 l 573 871 q 571 869 571 871 m 569 867 l 569 865 l 570 865 l 570 867 l 569 867 m 566 863 l 566 861 l 567 861 l 567 863 l 566 863 m 563 859 l 563 857 l 564 857 l 564 859 l 563 859 m 706 829 l 706 827 l 707 827 l 707 829 l 706 829 m 989 755 l 991 755 l 991 753 l 993 753 l 993 755 l 1003 753 l 1007 753 l 1007 751 l 1006 751 l 966 749 l 966 747 l 970 747 l 970 745 l 968 745 q 960 743 963 745 q 956 745 958 745 l 956 743 q 878 734 916 739 l 878 736 q 954 745 943 745 l 954 747 l 949 747 l 880 741 l 880 743 l 880 743 l 921 747 l 921 747 l 917 747 q 901 747 909 747 l 901 749 q 989 755 966 755 m 926 749 l 926 747 l 929 747 l 929 749 l 926 749 m 954 747 l 954 747 l 962 747 l 962 747 l 954 747 m 892 747 l 899 747 l 899 745 l 892 745 l 892 747 m 855 743 l 857 743 l 857 741 l 855 741 l 855 743 m 966 743 l 969 743 l 969 741 l 966 741 l 966 743 m 848 741 l 851 741 l 851 739 l 848 739 l 848 741 m 871 741 l 878 741 l 878 739 l 871 739 l 871 741 m 863 741 l 868 741 l 868 739 l 863 739 l 863 741 m 956 739 l 956 739 l 962 739 l 962 739 l 956 739 m 950 739 l 950 737 l 952 737 l 952 739 l 950 739 m 873 736 l 876 736 l 876 734 l 871 732 l 871 734 q 873 736 871 736 m 865 736 l 867 736 q 868 732 867 734 l 867 732 l 865 732 q 863 734 865 732 l 865 736 m 857 734 l 859 734 l 859 732 l 857 732 l 857 734 m 837 732 l 837 732 l 841 732 l 841 732 l 837 732 m 859 732 l 861 732 l 861 730 l 859 730 l 859 732 m 851 732 l 854 732 l 854 730 l 851 730 l 851 732 m 846 730 l 848 730 l 848 728 l 846 728 l 846 730 m 841 730 l 843 730 l 843 728 l 841 728 l 841 730 m 835 728 l 837 728 l 837 726 l 835 726 l 835 728 m 809 724 l 810 724 l 810 722 q 808 720 810 720 q 807 722 808 720 l 809 724 m 787 720 l 787 720 l 791 720 l 791 720 l 787 720 m 783 720 l 783 718 l 785 718 l 785 720 l 783 720 m 779 718 l 779 718 l 781 718 l 781 718 l 779 718 m 801 718 l 801 718 l 804 718 l 804 718 l 801 718 m 773 718 l 773 716 l 775 716 l 775 718 l 773 718 m 797 718 l 797 716 l 799 716 l 799 718 l 797 718 m 760 714 l 760 713 l 762 713 l 762 714 l 760 714 m 623 684 l 623 683 l 625 683 l 625 684 l 623 684 m 618 683 l 618 682 l 621 682 l 621 683 l 618 683 m 616 682 l 616 681 l 618 681 l 618 682 l 616 682 m 609 680 l 609 679 l 611 679 l 611 680 l 609 680 m 606 679 l 606 678 l 608 678 l 608 679 l 606 679 m 599 677 l 599 676 l 601 676 l 601 677 l 599 677 m 595 676 l 595 675 l 597 675 l 597 676 l 595 676 m 593 675 l 593 674 l 595 674 l 595 675 l 593 675 m 212 479 l 214 479 q 212 477 214 477 l 210 477 q 212 479 210 479 m 661 111 l 663 111 q 665 105 665 110 l 665 90 q 591 12 665 36 q 541 6 562 6 q 387 40 467 6 l 387 41 l 389 41 l 406 34 l 407 34 l 407 35 q 375 50 376 47 l 377 50 l 411 35 l 412 35 l 412 36 q 407 41 410 36 q 391 48 391 47 l 391 48 l 418 40 q 422 41 420 41 l 420 39 q 427 38 422 39 q 426 39 427 39 q 430 42 426 42 l 430 43 q 385 56 389 56 l 385 58 l 391 58 l 391 58 l 376 62 l 376 64 q 477 43 416 52 q 534 34 510 34 q 614 56 584 34 l 612 56 q 591 52 595 52 l 591 54 q 631 68 631 62 q 642 76 640 76 l 643 74 q 600 31 643 50 q 562 24 564 24 l 562 23 l 565 23 q 624 41 591 23 q 648 81 648 60 l 645 81 q 661 111 648 94 m 410 45 l 412 45 l 412 43 l 412 43 q 410 45 410 43 m 382 43 l 385 43 q 387 41 387 43 l 385 41 q 382 43 382 41 m 424 41 l 425 41 l 425 39 l 424 39 l 424 41 m 411 38 l 411 37 l 412 37 l 412 38 l 411 38 m 429 32 l 429 31 l 431 31 l 431 32 l 429 32 m 433 31 l 433 30 l 435 30 l 435 31 l 433 31 m 436 30 l 436 29 q 488 17 467 20 l 490 17 l 490 18 q 437 30 488 18 l 436 30 m 492 17 l 492 16 l 494 16 l 494 17 l 492 17 z "},"B":{"ha":852,"x_min":-163,"x_max":894,"o":"m 705 1275 q 880 1206 854 1275 q 884 1188 884 1194 l 884 1180 q 755 995 884 1107 l 756 995 q 844 1074 780 1008 q 876 1118 869 1103 l 878 1118 l 878 1118 q 719 963 836 1045 q 564 879 669 928 q 557 877 559 877 l 555 879 q 722 995 675 960 q 866 1182 866 1109 q 852 1214 866 1204 l 851 1214 l 851 1211 q 862 1177 862 1196 q 530 871 862 1069 q 514 860 521 867 l 514 859 q 518 857 518 859 q 376 799 484 834 l 374 799 l 374 800 q 448 845 389 814 q 730 1027 588 919 q 839 1168 839 1119 l 839 1172 q 726 1236 839 1223 q 692 1238 711 1238 l 671 1238 q 239 1131 503 1238 q 121 1075 181 1105 q 105 1068 110 1068 l 106 1066 q 95 1061 96 1061 l 95 1063 q -31 986 45 1037 l -32 986 q 22 1022 -16 1000 l 22 1023 l 21 1023 l 5 1015 l 3 1015 q 75 1057 21 1028 l 77 1057 q 71 1054 77 1055 l 71 1053 l 72 1053 q 176 1106 119 1079 l 175 1109 q 178 1109 176 1109 q 182 1109 180 1109 l 180 1111 q 448 1209 333 1177 q 518 1225 484 1219 l 518 1227 l 516 1227 q 224 1133 374 1196 l 222 1134 l 221 1134 l 221 1133 l 223 1133 q 216 1129 222 1129 q 220 1132 216 1132 l 220 1133 l 218 1133 q 214 1132 217 1132 q 288 1163 243 1147 q 300 1168 292 1166 l 300 1168 l 298 1168 l 239 1146 l 237 1146 l 237 1147 l 239 1147 l 239 1148 l 239 1148 q 235 1147 236 1147 q 243 1152 235 1149 l 243 1152 l 241 1152 q 70 1065 165 1119 q 9 1027 14 1028 l 9 1029 l 9 1029 q -68 975 -7 1018 l -69 975 q 109 1093 -1 1030 q 705 1275 427 1275 m 596 1241 l 596 1240 l 598 1240 l 598 1241 l 596 1241 m 589 1240 l 589 1239 l 592 1239 l 592 1240 l 589 1240 m 582 1239 l 582 1238 l 584 1238 l 584 1239 l 582 1239 m 575 1238 l 575 1236 l 578 1236 l 578 1238 l 575 1238 m 568 1236 l 568 1236 l 571 1236 l 571 1236 l 568 1236 m 561 1236 l 561 1234 l 564 1234 l 564 1236 l 561 1236 m 555 1234 l 555 1234 l 558 1234 l 558 1234 l 555 1234 m 548 1234 l 548 1232 l 552 1232 l 552 1234 l 548 1234 m 543 1232 l 543 1231 l 547 1231 l 547 1232 l 543 1232 m 536 1231 l 536 1230 l 541 1230 l 541 1231 l 536 1231 m 530 1230 l 530 1229 l 535 1229 l 535 1230 l 530 1230 m 519 1227 l 519 1227 l 522 1227 q 530 1227 526 1227 l 530 1229 l 526 1229 l 519 1227 m 300 1170 l 300 1168 l 303 1168 l 303 1170 l 300 1170 m 233 1147 l 235 1147 l 235 1146 l 233 1146 l 233 1147 m 233 1146 l 234 1143 l 230 1143 l 229 1145 l 233 1146 m 235 1146 l 237 1146 l 237 1145 l 235 1145 l 235 1146 m 207 1128 q 201 1125 207 1126 l 202 1123 q 173 1109 201 1123 l 174 1107 l 173 1107 l 171 1109 q 129 1088 132 1088 q 207 1128 162 1110 m 203 1125 l 205 1125 l 205 1124 l 203 1124 l 203 1125 m 191 1124 q 173 1115 191 1121 q 191 1124 173 1118 m 352 1118 q 355 1115 355 1117 l 355 1103 q 271 762 355 992 l 273 762 q 304 770 294 770 l 305 767 q 261 736 305 766 q 260 733 260 734 l 321 768 l 321 776 q 370 785 344 785 q 372 783 372 785 q 293 731 363 772 q 248 704 253 709 q 239 676 239 681 q 243 674 241 676 q 283 677 254 674 l 282 680 l 284 681 l 286 681 l 286 679 l 288 679 l 288 681 l 291 681 l 296 682 l 296 680 l 307 680 l 307 677 l 302 677 l 302 672 l 311 672 q 631 488 541 672 q 646 452 642 457 q 582 568 642 492 q 477 644 523 625 q 380 671 408 671 q 332 681 334 678 l 332 683 q 360 686 342 686 l 387 686 q 545 636 463 686 q 628 556 600 595 l 628 555 q 512 650 557 633 l 511 650 l 511 649 q 657 473 613 589 q 676 405 669 441 q 838 492 752 455 q 894 518 887 517 q 869 505 894 515 l 869 504 l 872 504 q 800 465 869 501 l 800 465 l 802 465 q 803 465 802 465 q 805 463 803 463 l 805 462 q 753 429 755 429 l 753 428 l 755 428 l 827 471 l 828 471 q 826 467 828 470 q 827 467 827 467 q 825 465 825 466 l 826 465 q 889 500 884 500 l 888 498 q 889 497 889 498 l 888 497 q 887 498 887 497 q 869 487 870 489 q 871 486 871 487 l 869 486 q 869 487 869 486 q 857 479 857 481 q 858 479 858 479 l 857 479 q 855 479 855 479 q 851 476 851 478 q 852 475 852 476 l 850 474 l 848 475 q 836 469 838 469 l 836 467 l 838 467 q 836 465 838 465 l 833 467 q 830 465 831 465 l 830 465 l 832 465 q 751 414 822 456 l 680 371 q 682 353 682 358 l 682 329 q 595 64 682 176 q 514 -3 545 12 q 368 -56 456 -43 l 368 -58 l 372 -58 l 378 -56 l 378 -59 q 332 -65 358 -63 q 264 -52 271 -61 q 224 -4 239 -41 q 216 39 216 21 q 250 134 216 82 l 250 135 l 250 135 q 216 94 235 123 l 216 97 q 307 174 248 153 l 311 174 l 311 172 l 264 119 q 235 64 235 74 l 235 60 q 253 98 239 64 q 315 168 267 122 q 323 176 320 170 l 323 176 l 321 180 l 321 181 q 359 190 334 190 l 363 190 l 363 186 q 261 67 265 103 q 257 40 258 58 q 327 -36 257 -11 l 327 -37 q 326 -38 326 -37 l 329 -38 l 329 -36 l 340 -37 q 435 -9 345 -37 q 352 -37 399 -29 l 352 -38 l 357 -38 q 402 -27 362 -38 q 368 -39 402 -29 l 368 -40 q 371 -41 371 -40 l 442 -18 l 442 -20 q 366 -45 411 -33 l 330 -45 q 321 -39 330 -41 l 323 -42 l 321 -42 q 287 -25 298 -33 l 286 -25 q 316 -42 292 -33 l 316 -43 q 315 -45 315 -43 l 316 -45 l 318 -43 q 357 -49 330 -49 l 357 -51 l 353 -51 q 294 -40 323 -51 q 307 -47 294 -42 l 307 -49 q 300 -51 302 -51 l 300 -52 q 326 -58 311 -56 q 345 -54 345 -55 l 345 -53 l 362 -53 q 368 -51 365 -53 l 375 -52 l 376 -52 l 375 -50 l 375 -49 q 479 -14 408 -47 q 532 23 507 2 l 530 23 l 523 18 l 521 18 l 524 22 l 521 22 q 549 51 549 50 l 549 52 q 453 -15 483 -8 q 598 134 557 50 l 598 135 l 597 135 q 530 49 589 107 q 467 1 485 9 q 427 -18 456 -7 l 462 1 q 473 8 471 8 l 473 9 l 471 9 q 642 342 642 130 q 641 346 641 345 l 640 346 q 370 189 465 238 l 364 189 l 364 192 q 407 235 396 232 q 408 230 408 233 q 568 323 416 231 q 596 342 585 334 l 595 342 q 548 315 589 342 q 422 244 466 263 l 421 244 l 421 247 q 491 310 454 282 q 532 338 513 326 l 535 338 q 491 304 491 307 l 492 304 l 639 382 q 608 492 639 414 q 309 651 529 651 q 224 642 224 645 q -19 85 152 462 q -100 -115 -91 -85 q -135 -220 -104 -130 l -137 -220 l -137 -218 l -134 -206 l -134 -205 l -135 -205 l -141 -229 l -143 -229 q -95 -86 -143 -212 q -98 -88 -98 -88 q -100 -87 -98 -87 q -113 -123 -106 -102 l -115 -123 q -69 -1 -104 -85 l -69 1 l -70 1 q -87 -36 -84 -35 l -87 -33 l -87 -33 q -90 -41 -90 -41 l -91 -41 l -91 -39 q -87 -29 -91 -37 l -87 -28 l -89 -28 q -148 -205 -148 -183 l -149 -205 l -151 -204 l -161 -250 l -163 -250 q -77 33 -163 -205 q 81 391 -30 147 q 179 636 125 491 l 178 636 q 166 635 171 635 l 152 635 q 121 649 121 635 q 188 713 121 662 q 199 730 199 718 q 191 727 193 727 l 189 727 q 205 742 205 736 q 283 935 254 865 q 312 997 302 987 l 313 997 q 244 754 313 952 l 245 754 q 278 844 248 754 q 326 1030 326 1002 q 318 1027 321 1027 l 318 1027 q 350 1116 318 1041 l 352 1118 m 140 1099 q 134 1095 139 1095 q 140 1099 134 1099 m 125 1086 l 128 1086 q 125 1084 128 1084 l 123 1084 q 125 1086 124 1086 m 81 1061 l 82 1061 q 80 1058 82 1058 l 79 1058 q 81 1061 79 1061 m 77 1058 l 79 1058 l 79 1057 l 77 1057 l 77 1058 m 66 1050 l 66 1050 l 66 1050 q 70 1050 68 1050 l 70 1052 l 68 1052 q 66 1050 66 1050 m 80 1053 l 82 1053 q 80 1050 82 1050 l 77 1050 q 80 1053 78 1053 m 77 1050 q -20 990 -3 998 q 75 1050 23 1021 l 77 1050 m 60 1047 l 60 1046 l 62 1046 l 62 1047 l 60 1047 m 52 1043 l 52 1042 l 55 1042 l 55 1043 l 52 1043 m 18 1036 l 18 1036 l 21 1036 l 21 1036 l 18 1036 m 15 1034 l 15 1033 l 18 1033 l 18 1034 l 15 1034 m 11 1030 l 12 1030 q 14 1032 14 1030 l 13 1032 q 11 1030 11 1031 m 28 1029 l 28 1027 l 31 1027 l 31 1029 l 28 1029 m 7 1027 l 9 1027 q 7 1024 9 1024 l 5 1024 q 7 1027 5 1027 m 23 1025 l 23 1024 l 25 1024 l 25 1025 l 23 1025 m 4 1024 l 5 1024 q 3 1022 5 1022 l 2 1022 q 4 1024 3 1024 m -35 985 l -33 985 l -33 984 l -35 984 l -35 985 m -71 974 l -70 974 q -73 972 -70 972 l -73 972 q -71 974 -73 974 m -78 970 l -75 970 l -75 968 l -78 968 l -78 970 m 244 827 q 208 738 236 812 q 223 758 217 738 q 245 826 223 760 l 245 827 l 244 827 m 201 722 q 216 738 216 730 l 214 738 q 201 722 201 732 m 230 719 l 230 716 l 231 716 q 233 718 233 716 l 233 720 q 230 719 231 719 m 187 690 l 184 692 q 171 681 171 685 l 173 681 q 203 702 201 698 l 203 703 q 187 690 187 694 m 213 675 l 216 675 q 222 690 220 686 l 221 690 q 213 675 218 690 m 312 681 l 314 681 l 314 679 l 312 679 l 312 681 m 273 680 l 275 680 l 275 677 l 273 677 l 273 680 m 248 677 l 252 677 l 252 675 l 248 675 l 248 677 m 237 674 l 237 673 l 241 673 l 241 674 l 237 674 m 236 671 q 235 668 236 670 l 241 667 l 241 665 l 233 665 q 232 661 233 663 l 234 661 q 248 668 238 661 q 264 672 252 668 l 264 673 l 264 673 q 236 671 242 671 m 210 668 l 210 667 l 213 667 l 213 668 l 210 668 m 182 665 l 182 665 l 191 665 l 191 667 l 187 667 l 182 665 m 151 665 l 151 665 l 159 665 l 159 665 l 151 665 m 207 659 l 209 659 q 211 661 211 659 l 209 661 q 207 659 207 661 m 178 583 l 179 583 q 202 640 202 636 l 200 640 q 178 586 193 635 l 178 583 m 629 554 l 630 554 l 630 552 l 629 552 l 629 554 m 835 481 l 837 481 q 835 479 837 479 l 832 479 q 835 481 833 481 m 825 475 l 827 475 l 827 474 l 825 474 l 825 475 m 821 465 l 821 465 l 823 465 l 823 465 l 821 465 m 832 465 l 835 465 l 835 465 l 832 465 l 832 465 m 817 463 l 817 462 l 819 462 l 819 463 l 817 463 m 812 460 l 812 458 l 814 458 l 814 460 l 812 460 m 808 458 l 808 456 l 810 456 l 810 458 l 808 458 m 803 454 l 803 453 l 805 453 l 805 454 l 803 454 m 798 451 l 798 450 l 800 450 l 800 451 l 798 451 m 792 448 l 792 447 l 793 447 q 796 448 795 448 l 796 449 l 795 449 q 792 448 793 448 m 742 417 l 742 416 l 743 416 q 791 445 788 444 l 791 446 l 790 446 q 742 417 745 418 m 736 414 l 736 413 l 737 413 q 741 414 739 414 l 741 415 l 739 415 q 736 414 737 414 m 730 411 l 730 410 l 732 410 q 735 411 734 411 l 735 412 l 734 412 q 730 411 732 411 m 725 408 l 725 406 l 726 406 q 730 408 728 408 l 730 408 l 728 408 q 725 408 726 408 m 722 405 l 722 404 l 724 404 l 724 405 l 722 405 m 716 402 l 716 401 l 719 401 l 719 402 l 716 402 m 536 340 l 538 340 l 538 340 l 536 340 l 536 340 m 43 244 l 43 242 l 45 242 l 45 244 l 43 244 m 41 237 q 39 233 41 235 l 39 233 l 41 233 q 41 235 41 233 l 41 237 l 41 237 m 36 227 q 34 221 36 225 l 34 220 l 35 220 q 37 226 35 222 l 37 227 l 36 227 m 33 219 q -98 -85 -41 51 l -98 -86 q -95 -84 -98 -86 q -94 -85 -95 -85 q -93 -81 -94 -84 l -94 -79 q 34 218 -57 10 l 34 219 l 33 219 m 536 29 l 536 28 l 538 28 l 538 29 l 536 29 m 512 17 l 514 17 l 514 16 l 512 16 l 512 17 m -64 14 q -66 10 -64 12 l -66 9 l -64 9 q -64 12 -64 10 l -64 14 l -64 14 m 507 14 l 510 14 l 510 12 l 507 12 l 507 14 m 507 12 q 496 5 507 9 q 507 12 496 7 m 469 9 l 471 9 l 471 8 l 469 8 l 469 9 m 468 8 l 469 8 q 467 6 469 6 l 466 6 q 468 8 467 8 m -68 6 q -69 3 -68 5 l -69 1 l -68 1 q -67 5 -68 3 l -67 6 l -68 6 m 493 3 l 496 3 l 496 3 l 493 3 l 493 3 m 490 1 l 492 1 l 492 1 l 490 1 l 490 1 m 281 -22 l 281 -22 l 283 -22 l 283 -22 l 281 -22 m 332 -38 l 332 -39 l 334 -39 l 334 -38 l 332 -38 m 337 -39 l 337 -40 l 340 -40 l 340 -39 l 337 -39 m -89 -39 l -87 -39 l -87 -41 l -89 -41 l -89 -39 m 357 -41 l 357 -42 l 368 -42 l 368 -41 l 357 -41 m 391 -49 l 391 -50 l 393 -50 l 393 -49 l 391 -49 m 314 -49 q 321 -50 318 -50 l 321 -52 l 314 -51 l 314 -49 m 382 -50 l 382 -51 l 386 -51 l 386 -50 l 382 -50 m 323 -51 l 327 -51 l 327 -53 l 323 -53 l 323 -51 m 330 -52 l 334 -52 l 334 -54 l 330 -54 l 330 -52 m 361 -58 l 361 -59 l 366 -59 l 366 -58 l 361 -58 m 355 -59 l 355 -60 l 359 -60 l 359 -59 l 355 -59 m 351 -60 l 351 -61 l 353 -61 l 353 -60 l 351 -60 m -98 -68 l -98 -71 q -101 -73 -98 -73 l -101 -71 q -98 -68 -100 -68 m -101 -74 l -101 -75 q -123 -135 -121 -134 l -123 -134 q -101 -74 -106 -83 m -94 -81 l -94 -83 l -96 -83 q -94 -81 -96 -81 m -126 -143 l -126 -144 q -129 -151 -127 -151 l -129 -149 q -126 -143 -128 -143 m -126 -159 l -126 -161 q -139 -202 -139 -200 l -141 -202 q -126 -159 -128 -159 m -150 -200 l -150 -202 l -149 -202 l -149 -200 l -150 -200 z "},"C":{"ha":958,"x_min":-218,"x_max":1320,"o":"m 1240 1293 q 1318 1247 1301 1293 q 1320 1229 1320 1236 q 1302 1167 1320 1204 q 1295 1156 1298 1158 l 1295 1158 l 1293 1158 q 1286 1143 1293 1156 q 1286 1140 1286 1141 l 1284 1139 q 1284 1140 1284 1140 q 1174 1010 1261 1099 l 1175 1008 q 1111 944 1141 972 l 1109 944 l 1107 945 q 1077 917 1101 937 l 1076 917 q 1136 981 1076 919 q 1170 1019 1157 1006 l 1172 1017 q 1187 1036 1172 1024 q 1188 1035 1187 1035 q 1200 1050 1196 1043 q 1202 1049 1200 1049 q 1304 1220 1304 1163 l 1304 1227 q 1249 1277 1304 1270 l 1244 1277 l 1244 1276 q 1300 1241 1284 1276 q 1301 1234 1301 1235 l 1299 1234 q 1295 1246 1299 1238 l 1295 1246 l 1295 1245 q 1299 1230 1298 1240 l 1297 1230 q 1286 1252 1297 1240 l 1286 1251 q 1295 1224 1295 1238 l 1295 1221 q 1128 981 1295 1145 l 1128 981 l 1154 1009 l 1154 1010 l 1145 1002 l 1145 1003 q 1154 1013 1145 1005 l 1156 1012 q 1158 1013 1156 1013 l 1156 1015 q 1281 1192 1273 1144 q 1286 1219 1286 1200 q 1240 1256 1286 1251 q 1225 1257 1233 1256 q 945 1162 1126 1252 q 749 1049 882 1133 q 449 817 637 979 q 248 616 342 720 l 248 615 q 376 736 279 643 q 390 747 377 736 l 391 747 q 101 456 160 526 q 47 401 68 420 l 46 401 l 46 401 q 139 526 81 457 q 351 749 194 593 q 489 871 396 791 l 496 879 l 495 879 q 250 653 425 825 q 3 353 81 470 l 5 353 l 10 353 l 10 353 q -106 206 -28 297 l -107 206 l -108 208 q 79 486 -36 338 q 283 711 144 570 q 483 892 439 861 q 797 1116 644 1025 q 1240 1293 1095 1293 m 941 1190 l 941 1190 l 942 1190 q 1233 1284 1135 1284 q 1305 1251 1287 1284 q 1310 1230 1310 1240 l 1310 1224 q 1297 1176 1310 1202 l 1297 1175 l 1298 1175 q 1311 1224 1311 1203 l 1311 1233 q 1243 1286 1311 1278 l 1231 1286 q 941 1190 1135 1286 m 778 1093 l 778 1092 l 781 1092 l 781 1093 l 778 1093 m 1112 970 l 1113 970 q 1042 901 1089 944 l 1023 886 l 1022 886 l 1112 970 m 984 503 l 986 503 q 647 283 869 423 q 357 107 507 192 q -54 -92 71 -49 q -154 -107 -102 -107 l -154 -108 q -131 -111 -137 -111 l -122 -111 q -24 -93 -92 -111 l -22 -93 l -22 -94 q -123 -114 -83 -114 l -131 -114 q -214 -66 -199 -114 q -218 -43 -218 -47 q -192 52 -218 -5 q -186 58 -186 58 q -184 57 -186 57 q -198 -15 -198 1 q -132 -82 -198 -82 l -121 -82 q 24 -45 -75 -82 q 34 -39 34 -40 l 32 -39 q -122 -79 -74 -79 q -192 -18 -192 -79 l -192 -13 q -166 89 -192 20 l -167 89 q -172 87 -169 89 l -174 89 q -98 196 -155 127 l -96 197 l -95 195 q -145 87 -99 183 q -170 -7 -170 23 q -149 -52 -170 -41 q -115 -58 -134 -58 q 392 164 -3 -58 q 690 338 508 231 q 718 353 713 353 l 717 356 q 833 427 733 364 l 835 426 l 836 426 l 836 427 l 834 427 l 834 428 q 847 435 836 428 l 849 435 l 850 435 l 850 435 l 848 435 q 856 441 848 437 l 858 440 l 859 440 l 859 441 l 857 441 l 857 442 q 861 444 859 442 l 863 444 l 865 444 l 865 444 l 863 444 q 865 446 863 446 l 867 446 l 868 446 l 868 446 l 865 446 l 865 448 q 870 450 867 448 l 872 449 l 873 449 l 873 450 l 871 450 q 876 453 871 452 l 878 452 l 879 452 l 879 453 l 877 453 q 879 455 877 455 l 881 454 q 888 458 886 458 l 888 458 l 885 458 q 890 462 885 460 q 893 460 892 460 q 932 486 893 462 l 935 486 q 844 427 907 465 l 844 426 l 846 426 q 844 424 846 424 l 842 425 q 835 421 836 421 l 835 420 l 837 420 q 829 415 837 418 l 827 416 l 826 416 l 826 415 l 829 415 q 824 412 829 413 l 822 412 l 821 412 l 821 412 l 823 412 q 810 403 823 410 l 808 404 l 806 404 l 806 403 l 809 403 q 795 394 808 401 l 793 395 l 792 395 l 792 394 l 795 394 q 776 382 794 393 q 772 383 774 383 l 772 381 q 772 380 772 381 l 770 378 q 767 380 768 380 l 766 378 q 767 376 767 378 l 766 376 q 765 378 765 376 q 761 374 761 376 q 762 373 762 374 l 761 373 q 760 374 760 373 q 755 371 755 373 q 756 370 756 371 l 755 370 q 754 371 754 370 q 670 322 688 331 q 673 319 670 319 q 660 311 669 315 l 658 312 l 511 228 l 511 227 l 512 227 q 659 311 557 252 q 526 229 651 303 l 526 228 l 528 228 l 591 264 l 593 262 l 594 262 l 594 264 l 592 264 l 592 265 q 597 267 594 265 q 600 266 599 266 q 592 260 600 263 l 592 260 l 593 260 q 888 444 732 342 l 888 444 l 890 444 q 984 503 891 444 m 936 488 l 938 488 l 938 487 l 936 487 l 936 488 m 903 471 l 905 471 l 905 469 l 903 469 l 903 471 m 894 465 l 897 465 l 897 464 l 894 464 l 894 465 m 880 456 l 882 456 l 882 455 l 880 455 l 880 456 m 863 438 l 865 438 l 865 437 l 863 437 l 863 438 m 859 435 l 860 435 q 858 432 860 432 l 857 432 q 859 435 857 435 m 854 432 l 857 432 l 857 431 l 854 431 l 854 432 m 849 429 l 851 429 l 851 428 l 849 428 l 849 429 m 840 424 l 843 424 l 843 422 l 840 422 l 840 424 m 803 395 l 806 395 l 806 394 l 803 394 l 803 395 m 795 390 l 797 390 l 797 389 l 795 389 l 795 390 m 786 384 l 788 384 l 788 383 l 786 383 l 786 384 m 781 381 l 783 381 l 783 380 l 781 380 l 781 381 m 777 378 l 779 378 q 774 374 779 377 l 772 374 q 777 378 772 376 m 768 373 l 770 373 q 640 292 739 352 l 638 292 q 768 373 660 307 m 690 330 l 692 330 l 692 330 l 690 330 l 690 330 m 684 328 l 686 328 l 686 326 l 684 326 l 684 328 m 675 322 l 677 322 l 677 321 l 675 321 l 675 322 m 635 291 l 637 291 q 635 289 637 289 l 633 289 q 635 291 633 291 m 629 288 l 631 288 l 631 287 l 629 287 l 629 288 m 624 285 l 626 285 l 626 283 l 624 283 l 624 285 m 602 271 l 604 271 l 604 268 q 602 271 602 268 m 597 268 l 600 268 l 600 267 l 597 267 l 597 268 m 587 257 l 587 256 l 589 256 l 589 257 l 587 257 m 503 223 l 503 222 l 505 222 q 508 223 507 223 l 508 224 l 507 224 q 503 223 505 223 m 496 219 l 496 218 l 498 218 l 498 219 l 496 219 m 1234 1278 l 1234 1277 l 1243 1277 l 1243 1278 l 1234 1278 m 1233 1270 l 1233 1269 l 1240 1269 l 1240 1270 l 1233 1270 m 1246 1269 l 1246 1268 l 1250 1268 l 1250 1269 l 1246 1269 m 1254 1268 l 1254 1267 l 1256 1267 l 1256 1268 l 1254 1268 m 1279 1257 l 1279 1256 l 1281 1256 l 1281 1257 l 1279 1257 m 1300 1232 l 1302 1232 l 1302 1224 l 1300 1224 l 1300 1232 m 1300 1220 l 1302 1220 l 1302 1213 l 1300 1213 l 1300 1220 m 1295 1166 q 1293 1163 1295 1165 l 1293 1162 l 1295 1162 q 1295 1165 1295 1163 l 1295 1166 l 1295 1166 m 1290 1159 q 1289 1156 1290 1158 l 1289 1154 l 1290 1154 q 1291 1158 1290 1156 l 1291 1159 l 1290 1159 m 1284 1156 q 1152 995 1265 1112 l 1154 995 q 1279 1141 1271 1110 l 1281 1140 l 1284 1147 q 1284 1150 1284 1149 l 1286 1154 l 1286 1156 l 1284 1156 m 1293 1156 l 1295 1156 l 1295 1153 l 1293 1153 l 1293 1156 m 1286 1153 q 1286 1150 1286 1152 l 1286 1149 l 1286 1149 q 1288 1152 1286 1150 l 1288 1153 l 1286 1153 m 1290 1150 l 1291 1150 l 1291 1147 l 1290 1147 l 1290 1150 m 1282 1147 l 1284 1147 l 1284 1145 l 1282 1145 l 1282 1147 m 1289 1147 l 1290 1147 l 1290 1145 l 1289 1145 l 1289 1147 m 1225 1061 l 1225 1060 q 1223 1058 1225 1058 l 1223 1059 q 1225 1061 1223 1061 m 1218 1053 l 1218 1051 q 1215 1048 1218 1050 l 1215 1049 q 1218 1053 1215 1051 z "},"D":{"ha":765,"x_min":-223,"x_max":812,"o":"m 378 1283 q 535 1242 458 1283 q 701 796 701 1139 q 665 476 701 647 q 677 489 676 476 q 683 507 683 501 l 685 507 q 680 481 680 483 q 734 501 728 501 q 736 499 736 500 q 671 452 718 482 l 671 448 q 755 505 725 483 l 755 505 l 753 509 q 808 527 753 515 l 811 527 l 812 525 q 726 463 796 509 q 662 421 715 455 q 578 222 623 298 q 506 109 542 157 q 492 95 494 95 l 492 97 q 568 247 547 203 q 621 395 597 313 q 610 370 616 395 q 509 136 565 233 q 455 57 482 93 l 455 56 l 462 56 l 462 55 q 387 -11 416 4 q 321 -36 345 -36 l 319 -34 q 363 -10 321 -31 q 453 83 405 16 q 530 218 501 157 q 591 376 563 290 l 358 230 l 356 231 l 355 231 l 355 230 l 357 230 q 355 227 357 227 l 353 229 l 351 229 l 351 227 l 353 227 q 351 225 353 225 l 349 227 q 303 198 311 201 q 358 235 304 201 q 353 236 356 236 l 353 239 l 424 282 l 424 283 l 422 283 l 371 254 q 369 256 369 254 q 372 259 370 256 l 371 259 q 305 212 335 235 l 304 212 l 308 216 l 307 216 q 279 197 283 197 q 465 335 404 300 q 608 433 519 366 q 610 443 608 435 l 610 443 q 601 439 604 439 q 615 459 615 448 q 661 805 661 645 q 515 1206 661 1095 q 399 1253 475 1238 q 390 1255 390 1253 q 391 1256 391 1255 l 385 1256 l 385 1254 l 382 1254 l 382 1256 l 385 1256 l 385 1257 q 368 1258 373 1258 l 353 1258 q 351 1260 351 1258 l 351 1261 q 401 1258 386 1260 q 404 1259 403 1259 l 403 1257 l 404 1257 q 408 1258 404 1257 q 488 1233 462 1247 q 629 1060 580 1184 q 642 1019 642 1023 l 644 1019 l 644 1022 q 597 1131 624 1086 q 447 1251 541 1220 q 361 1265 395 1265 l 338 1265 l 338 1268 l 385 1268 q 385 1267 385 1268 q 389 1268 387 1268 q 503 1234 464 1257 q 529 1217 503 1234 l 530 1217 q 476 1251 517 1229 l 478 1251 l 478 1251 q 469 1255 471 1255 l 469 1257 q 490 1249 478 1255 l 492 1249 l 492 1251 q 371 1276 433 1276 l 366 1276 q 215 1253 292 1276 l 215 1255 q 255 1265 252 1265 l 255 1267 l 253 1267 l 253 1269 q 378 1283 317 1283 m 262 1269 l 262 1268 l 264 1268 l 264 1269 l 262 1269 m 257 1268 l 257 1267 l 260 1267 l 260 1268 l 257 1268 m 313 1265 l 319 1265 l 319 1263 l 313 1263 l 313 1265 m 311 1265 l 311 1262 l 310 1262 q 214 1245 275 1258 l 214 1247 q 311 1265 290 1265 m 230 1262 l 230 1260 q 106 1217 205 1254 q 209 1257 129 1232 q 230 1262 210 1257 m 325 1260 l 342 1260 l 342 1258 l 325 1258 l 325 1260 m 323 1257 l 331 1257 l 331 1255 l 323 1255 l 323 1257 m 365 1257 l 369 1257 l 369 1255 l 365 1255 l 365 1257 m 319 1256 l 319 1254 l 317 1254 q 173 1225 295 1254 l 173 1227 l 171 1227 l 172 1225 l 168 1225 l 168 1224 l 165 1225 q 148 1220 151 1220 q 231 1247 176 1235 l 252 1251 l 252 1248 q 174 1228 213 1240 l 174 1227 l 175 1227 q 319 1256 275 1256 m 275 1255 l 277 1255 l 277 1253 l 275 1253 l 275 1255 m 267 1254 l 269 1254 l 269 1251 l 267 1251 l 267 1254 m 260 1253 l 263 1253 l 263 1251 l 260 1251 l 260 1253 m 254 1251 l 257 1251 l 257 1249 l 254 1249 l 254 1251 m 503 1244 l 503 1242 l 505 1242 l 505 1244 l 503 1244 m 294 1143 q 297 1130 296 1143 q 260 932 286 1010 q 158 646 220 800 q -92 75 75 448 q -159 -91 -150 -60 l -195 -197 l -197 -197 l -193 -185 l -193 -184 l -195 -184 l -201 -208 l -203 -208 q -152 -57 -203 -187 q -153 -52 -153 -55 l -155 -52 q -159 -62 -155 -57 q -157 -66 -157 -64 l -159 -64 q -175 -103 -173 -100 l -175 -102 q -131 16 -161 -56 l -131 18 l -132 18 q -147 -16 -145 -16 l -147 -14 l -146 -12 l -146 -11 l -147 -11 q -151 -18 -149 -18 l -151 -16 q -149 -10 -151 -14 l -149 -9 l -150 -9 q -207 -180 -178 -75 l -208 -180 l -210 -178 l -210 -182 l -208 -182 l -208 -184 l -209 -184 l -211 -182 l -220 -223 l -222 -223 l -222 -222 q -147 26 -222 -184 q -6 352 -102 146 q 180 831 94 572 l 186 852 l 186 853 l 185 853 q 130 723 136 730 l 130 724 q 226 964 149 777 q 253 1023 248 1021 l 254 1023 q 148 683 254 960 q 119 609 129 644 l 119 608 l 121 608 q 248 964 203 806 q 267 1055 258 1005 l 266 1055 q 260 1053 262 1053 l 260 1053 q 291 1142 269 1089 l 294 1143 m 644 1019 l 644 1017 l 644 1017 l 644 1019 l 644 1019 m 644 1015 l 644 1012 l 646 1012 l 646 1015 l 644 1015 m 646 1010 l 646 1008 l 647 1008 l 647 1010 l 646 1010 m 647 1006 l 647 1004 l 648 1004 l 648 1006 l 647 1006 m 648 1002 l 648 1000 l 649 1000 l 649 1002 l 648 1002 m 649 998 l 649 996 l 650 996 l 650 998 l 649 998 m 650 994 l 650 991 l 651 991 l 651 994 l 650 994 m 672 633 q 637 462 649 507 l 638 462 q 663 562 642 462 q 673 629 673 606 l 673 633 l 672 633 m 635 452 q 639 458 637 452 l 638 458 q 635 452 636 458 m 656 439 q 665 446 664 444 l 665 448 l 665 448 q 656 439 656 443 m 626 423 l 626 420 q 629 423 627 420 l 629 425 q 626 423 627 423 m 626 335 l 626 334 l 627 334 q 656 417 656 408 l 654 417 q 642 383 648 417 l 626 335 m 572 387 l 574 387 q 600 404 586 393 l 600 406 l 599 406 q 572 387 572 391 m 625 332 l 625 330 l 626 330 l 626 332 l 625 332 m 456 301 l 456 300 l 458 300 l 458 301 l 456 301 m 453 298 l 453 298 l 455 298 l 455 298 l 453 298 m 448 295 l 448 294 l 449 294 q 452 295 451 295 l 452 296 l 451 296 q 448 295 449 295 m 444 293 l 444 292 l 447 292 l 447 293 l 444 293 m 403 267 l 403 266 l 404 266 l 444 290 l 444 291 l 442 291 q 403 267 406 268 m 425 286 l 425 284 l 427 284 l 427 286 l 425 286 m -15 269 l -15 267 l -14 267 l -14 269 l -15 269 m 394 261 l 394 260 l 395 260 q 401 264 400 264 l 401 264 l 401 264 q 394 261 395 261 m -20 259 l -20 257 l -18 257 l -18 259 l -20 259 m 385 256 l 385 255 l 387 255 q 393 258 391 258 l 393 259 l 392 259 q 385 256 387 256 m 382 254 l 382 253 l 385 253 l 385 254 l 382 254 m -23 252 q -25 246 -23 250 l -25 245 l -24 245 q -22 250 -24 247 l -22 252 l -23 252 m 376 250 l 376 250 l 378 250 q 381 250 380 250 l 381 252 l 380 252 q 376 250 378 250 m 373 248 l 373 247 l 376 247 l 376 248 l 373 248 m -26 244 q -29 236 -26 241 l -29 235 l -28 235 q -25 243 -28 237 l -25 244 l -26 244 m 356 245 l 358 245 l 358 244 l 356 244 l 356 245 m 362 241 l 362 241 l 363 241 q 367 241 366 241 l 367 243 l 366 243 q 362 241 363 241 m 353 243 l 355 243 l 355 241 l 353 241 l 353 243 m 349 241 l 351 241 l 351 239 l 349 239 l 349 241 m 359 239 l 359 239 l 361 239 l 361 239 l 359 239 m 346 239 l 348 239 l 348 237 l 346 237 l 346 239 m 360 237 l 360 236 l 362 236 l 362 237 l 360 237 m 342 236 l 345 236 l 345 235 l 342 235 l 342 236 m -31 234 q -153 -50 -94 91 l -153 -52 l -152 -52 q -29 233 -106 58 l -29 234 l -31 234 m 339 234 l 342 234 l 342 233 l 339 233 l 339 234 m 335 231 l 337 231 l 337 230 l 335 230 l 335 231 m 332 229 l 334 229 l 334 227 l 332 227 l 332 229 m 328 227 l 331 227 l 331 225 l 328 225 l 328 227 m 348 225 l 351 225 l 351 224 l 348 224 l 348 225 m 300 197 l 302 197 l 302 196 l 300 196 l 300 197 m 275 195 l 276 193 l 276 191 q 197 97 199 111 q 184 52 184 77 l 184 50 q 262 -16 184 1 l 262 -18 l 260 -20 l 269 -20 q 269 -18 269 -18 q 305 -18 299 -18 l 305 -21 l 288 -21 l 288 -22 l 310 -22 l 310 -24 l 299 -25 l 291 -25 q 256 -21 271 -25 l 255 -21 l 255 -22 l 260 -23 l 260 -25 q 212 -7 229 -16 l 212 -7 l 212 -7 q 250 -24 228 -18 l 250 -26 l 255 -25 q 274 -28 265 -28 l 294 -28 l 294 -31 l 277 -31 q 229 -24 254 -31 q 242 -30 229 -26 l 242 -32 q 235 -34 238 -34 l 235 -35 q 265 -39 250 -39 l 266 -39 q 294 -36 280 -39 l 294 -39 l 291 -39 l 291 -39 l 292 -39 q 313 -36 309 -36 l 313 -39 q 262 -46 300 -41 q 243 -45 249 -45 l 235 -46 q 144 29 165 -46 q 141 52 141 41 q 170 134 141 85 l 170 134 q 138 94 153 119 l 137 94 l 137 95 q 224 175 168 154 l 226 173 q 181 111 181 114 q 159 66 164 84 q 160 61 160 64 q 174 96 163 64 q 237 175 189 126 l 239 177 q 235 179 239 179 l 235 182 q 275 195 235 187 m -125 36 q -125 33 -125 35 l -125 32 l -125 32 q -123 35 -125 33 l -123 36 l -125 36 m -127 31 q -129 25 -127 28 l -129 24 l -127 24 q -125 29 -127 26 l -125 31 l -127 31 m -130 23 q -131 20 -130 22 l -131 18 l -130 18 q -129 22 -130 20 l -129 23 l -130 23 m -146 0 l -146 -2 l -145 -2 l -145 0 l -146 0 m -149 -5 l -149 -7 l -147 -7 l -147 -5 l -149 -5 m 271 -20 l 271 -21 l 277 -21 l 277 -20 l 271 -20 m 248 -31 l 252 -31 l 252 -33 l 248 -33 l 248 -31 m 254 -32 l 262 -32 l 262 -34 l 254 -34 l 254 -32 m 266 -33 l 275 -33 l 275 -35 l 266 -35 l 266 -33 m 283 -33 l 288 -33 l 288 -35 l 283 -35 l 283 -33 m -156 -41 l -156 -43 q -159 -45 -156 -45 l -159 -43 q -156 -41 -158 -41 m -159 -46 l -159 -47 q -186 -119 -184 -118 l -186 -118 q -159 -46 -165 -56 m -153 -56 l -153 -57 q -154 -60 -154 -59 l -156 -60 q -153 -56 -155 -56 m -193 -155 l -191 -155 q -200 -178 -198 -178 l -200 -177 l -193 -155 m -193 -180 l -193 -182 l -193 -182 l -193 -180 l -193 -180 m -223 -225 l -220 -225 l -220 -228 l -223 -228 l -223 -225 z "},"E":{"ha":1292,"x_min":-68,"x_max":1479,"o":"m 1438 1299 l 1438 1297 l 1451 1297 l 1451 1295 q 1287 1276 1356 1285 l 1287 1278 l 1338 1285 l 1338 1286 l 1336 1286 q 1288 1281 1290 1281 l 1288 1283 l 1289 1283 q 1438 1299 1396 1299 m 1341 1287 l 1341 1286 l 1343 1286 l 1343 1287 l 1341 1287 m 1407 1289 l 1407 1286 q 1388 1282 1390 1284 l 1384 1282 l 1384 1281 q 1261 1261 1329 1276 l 1261 1264 q 1407 1289 1392 1289 m 1282 1282 l 1284 1282 l 1284 1280 l 1282 1280 l 1282 1282 m 1479 1282 l 1479 1280 l 1478 1280 q 1208 1237 1393 1280 q 726 1066 929 1154 q 538 762 680 989 q 249 286 326 416 l 249 286 q 654 486 497 419 q 863 557 722 519 q 906 566 904 566 l 906 563 q 888 560 905 563 l 888 559 l 891 559 l 913 563 l 913 561 q 800 534 804 534 l 802 530 q 801 529 801 530 l 802 529 q 888 552 884 552 l 888 550 l 852 541 l 854 539 l 852 539 l 850 540 l 845 539 l 846 537 l 845 537 l 843 538 q 730 502 795 526 l 730 500 l 731 500 q 762 511 744 506 l 761 509 l 764 509 q 755 504 764 506 l 755 503 l 756 503 q 888 545 876 545 q 876 539 888 542 l 876 538 l 879 538 q 930 551 897 545 l 930 549 q 727 480 833 527 q 444 348 545 401 q 224 222 344 292 l 224 220 l 224 220 q 304 256 227 220 l 306 256 q 201 205 286 243 q 53 -73 104 37 q 12 -209 12 -170 q 31 -240 12 -236 q 43 -241 37 -241 q 652 70 155 -241 l 798 159 l 800 159 l 801 159 l 801 159 l 799 159 q 801 161 800 161 l 804 161 q 806 161 806 161 l 806 163 l 804 163 q 806 165 805 165 l 809 164 l 810 164 l 810 165 l 808 165 q 810 167 808 167 l 812 166 q 1250 446 956 256 l 1252 446 q 1091 339 1216 418 l 1091 338 l 1092 338 q 1095 339 1095 339 q 1091 336 1095 336 l 1089 336 l 1088 336 l 1088 336 l 1090 336 q 1088 334 1090 334 l 1086 334 q 1079 331 1080 331 l 1079 330 l 1080 330 q 1084 331 1082 331 q 904 214 1034 296 l 904 213 l 905 213 l 993 269 l 995 269 q 767 122 924 221 l 765 122 q 793 141 780 134 l 793 142 l 792 142 q 614 31 684 73 l 614 31 l 615 31 l 706 85 l 708 84 l 709 84 l 709 85 l 707 85 q 709 87 707 87 l 711 86 q 715 87 713 87 q 704 79 715 85 l 704 79 l 705 79 q 1152 368 865 177 l 1154 366 l 1154 366 l 1154 368 l 1152 368 q 1154 370 1153 370 l 1157 368 l 1158 368 l 1158 370 l 1156 370 q 1158 372 1156 372 l 1160 370 l 1161 370 l 1161 372 l 1159 372 q 1161 374 1159 374 l 1163 373 l 1164 373 l 1164 374 l 1162 374 q 1164 376 1162 376 l 1166 376 l 1168 375 l 1168 377 q 1168 378 1168 377 l 1168 378 l 1171 377 l 1172 379 q 1171 380 1171 379 l 1172 380 l 1174 379 l 1175 382 q 1174 382 1174 382 l 1175 382 l 1177 382 q 1329 482 1187 389 l 1332 482 q 795 125 1152 359 q 509 -57 611 5 q 28 -280 140 -280 l 26 -280 q -31 -221 -31 -280 q 142 186 -31 -123 q 142 186 142 186 q 117 181 123 181 l 114 181 q 112 184 112 181 q 158 213 155 209 l 159 215 l 158 215 q 91 181 122 195 l 92 174 q 32 165 78 165 l 31 167 q 105 210 35 174 q 158 241 157 237 q 306 478 207 326 q 508 768 441 680 l 511 770 l 511 768 q 437 636 475 703 l 437 635 l 438 635 q 567 846 438 637 l 567 846 l 565 846 l 559 843 l 559 846 q 690 1031 575 876 q 710 1060 703 1048 l 709 1060 q 302 839 517 978 q 109 688 216 783 l 102 680 l 103 680 q 242 782 233 782 q 69 645 150 715 q -4 563 8 588 q -31 514 -10 554 l -33 512 l -35 512 l -35 514 q 22 627 -30 562 q 144 747 89 703 q 322 868 248 827 q 362 898 349 886 l 361 898 q -45 486 -45 650 l -45 484 l -43 472 l -41 472 q -36 477 -41 472 l -35 477 q -3 393 -26 424 q 10 372 10 376 l 9 372 q -52 427 -1 372 q -68 484 -68 456 q 228 836 -68 626 q 673 1080 435 975 q 1111 1242 863 1170 q 1222 1270 1160 1257 l 1222 1267 q 1209 1265 1221 1267 l 1209 1264 l 1211 1264 l 1245 1270 l 1245 1267 q 1234 1267 1236 1267 l 1236 1263 l 1236 1262 l 1192 1253 l 1192 1253 l 1194 1253 l 1211 1255 l 1211 1253 q 1084 1221 1166 1244 l 1084 1219 l 1084 1219 q 1156 1238 1111 1227 l 1156 1236 l 1152 1236 l 1152 1235 l 1154 1235 q 1158 1236 1157 1236 l 1158 1234 q 1145 1230 1145 1230 l 1145 1230 l 1145 1230 q 1392 1280 1246 1258 l 1397 1280 l 1397 1278 l 1375 1274 l 1375 1273 l 1377 1273 q 1479 1282 1434 1282 m 1400 1281 l 1404 1281 l 1404 1278 l 1400 1278 l 1400 1281 m 1280 1276 l 1284 1276 l 1284 1274 l 1280 1274 l 1280 1276 m 1274 1276 l 1278 1276 l 1278 1273 l 1274 1273 l 1274 1276 m 1267 1274 l 1272 1274 l 1272 1272 l 1267 1272 l 1267 1274 m 1369 1273 l 1369 1272 l 1372 1272 l 1372 1273 l 1369 1273 m 1261 1273 l 1265 1273 l 1265 1271 l 1261 1271 l 1261 1273 m 1230 1272 l 1232 1272 l 1232 1270 l 1230 1270 l 1230 1272 m 1254 1272 l 1257 1272 l 1257 1270 l 1254 1270 l 1254 1272 m 1225 1271 l 1227 1271 l 1227 1269 l 1225 1269 l 1225 1271 m 1247 1271 l 1252 1271 l 1252 1269 l 1247 1269 l 1247 1271 m 1227 1265 l 1227 1264 l 1231 1264 l 1231 1265 l 1227 1265 m 1221 1264 l 1221 1263 l 1225 1263 l 1225 1264 l 1221 1264 m 1238 1265 l 1240 1265 l 1240 1263 l 1238 1263 l 1238 1265 m 1216 1263 l 1216 1262 l 1219 1262 l 1219 1263 l 1216 1263 m 1211 1262 l 1211 1261 l 1213 1261 l 1213 1262 l 1211 1262 m 1256 1263 l 1257 1263 q 1259 1261 1259 1263 l 1257 1260 l 1256 1260 l 1256 1263 m 1205 1261 l 1205 1260 l 1207 1260 l 1207 1261 l 1205 1261 m 1251 1262 q 1253 1260 1253 1262 l 1253 1259 l 1251 1259 l 1251 1262 m 1244 1261 l 1245 1261 q 1247 1259 1247 1261 l 1247 1258 l 1245 1258 q 1244 1261 1245 1259 m 1231 1260 l 1234 1260 l 1234 1258 l 1231 1258 l 1231 1260 m 1240 1259 l 1242 1259 l 1242 1257 l 1240 1257 l 1240 1259 m 1236 1258 l 1238 1258 l 1238 1255 l 1236 1255 l 1236 1258 m 1230 1257 l 1232 1257 l 1232 1255 l 1230 1255 l 1230 1257 m 1225 1255 l 1227 1255 l 1227 1253 l 1225 1253 l 1225 1255 m 1220 1255 l 1222 1255 l 1222 1253 l 1220 1253 l 1220 1255 m 1187 1253 l 1187 1251 l 1190 1251 l 1190 1253 l 1187 1253 m 1216 1253 l 1218 1253 l 1218 1251 l 1216 1251 l 1216 1253 m 1211 1253 l 1213 1253 l 1213 1250 l 1211 1250 l 1211 1253 m 1206 1251 l 1208 1251 l 1208 1249 l 1206 1249 l 1206 1251 m 1202 1250 l 1204 1250 l 1204 1248 l 1202 1248 l 1202 1250 m 1197 1249 l 1200 1249 l 1200 1247 l 1197 1247 l 1197 1249 m 1158 1239 l 1160 1239 l 1160 1237 l 1158 1237 l 1158 1239 m 1160 1237 l 1162 1237 l 1162 1235 l 1160 1235 l 1160 1237 m 1149 1235 l 1149 1234 l 1152 1234 l 1152 1235 l 1149 1235 m 1140 1230 l 1140 1228 l 1143 1228 l 1143 1230 l 1140 1230 m 1137 1228 l 1137 1227 l 1139 1227 l 1139 1228 l 1137 1228 m 1133 1227 l 1133 1226 l 1135 1226 l 1135 1227 l 1133 1227 m 1080 1219 l 1080 1219 l 1082 1219 l 1082 1219 l 1080 1219 m 982 1196 l 982 1194 l 984 1194 l 984 1196 l 982 1196 m 979 1194 l 979 1194 l 981 1194 l 981 1194 l 979 1194 m 975 1194 l 975 1192 l 977 1192 l 977 1194 l 975 1194 m 972 1192 l 972 1191 l 974 1191 l 974 1192 l 972 1192 m 968 1191 l 968 1190 l 970 1190 l 970 1191 l 968 1191 m 845 1146 l 845 1145 l 846 1145 q 968 1189 913 1171 l 968 1190 l 965 1190 q 845 1146 903 1169 m 840 1144 l 840 1143 l 840 1143 q 844 1144 843 1144 l 844 1145 l 843 1145 q 840 1144 841 1144 m 834 1142 l 834 1141 l 835 1141 q 838 1142 837 1142 l 838 1143 l 838 1143 q 834 1142 835 1142 m 829 1139 l 829 1139 l 829 1139 q 833 1139 831 1139 l 833 1141 l 832 1141 q 829 1139 829 1139 m 825 1139 l 825 1137 l 827 1137 l 827 1139 l 825 1139 m 820 1137 l 820 1135 l 822 1135 l 822 1137 l 820 1137 m 779 1120 l 779 1119 l 781 1119 l 781 1120 l 779 1120 m 774 1118 l 774 1117 l 776 1117 l 776 1118 l 774 1118 m 435 634 q 433 631 435 633 l 433 630 l 435 630 q 436 633 435 631 l 436 634 l 435 634 m 431 629 l 431 627 l 433 627 l 433 629 l 431 629 m 428 623 l 428 621 l 429 621 l 429 623 l 428 623 m 425 618 l 425 616 l 426 616 l 426 618 l 425 618 m 870 555 l 870 554 l 872 554 q 888 557 884 557 l 888 559 l 886 559 q 870 555 873 555 m 866 554 l 866 553 l 869 553 l 869 554 l 866 554 m 804 539 l 804 538 l 806 538 q 865 552 861 552 l 865 553 l 863 553 q 804 539 806 539 m 800 538 l 800 537 l 804 537 l 804 538 l 800 538 m 797 537 l 797 536 l 799 536 l 799 537 l 797 537 m 829 534 l 831 534 l 831 532 l 829 532 l 829 534 m 798 532 l 798 530 l 800 530 l 800 532 l 798 532 m 795 530 l 795 529 l 797 529 l 797 530 l 795 530 m 798 529 l 798 528 l 800 528 l 800 529 l 798 529 m 795 528 l 795 527 l 797 527 l 797 528 l 795 528 m 814 529 l 817 529 l 817 527 l 814 527 l 814 529 m 790 527 l 790 526 l 792 526 l 792 527 l 790 527 m 802 525 l 802 523 q 792 520 793 520 q 802 525 792 523 m 752 503 l 752 502 l 754 502 l 754 503 l 752 503 m 724 500 l 724 498 l 726 498 q 729 500 728 500 l 729 500 l 728 500 q 724 500 726 500 m 1339 489 l 1341 489 l 1341 488 l 1339 488 l 1339 489 m 1336 486 l 1338 486 l 1338 486 l 1336 486 l 1336 486 m 1333 484 l 1335 484 l 1335 484 l 1333 484 l 1333 484 m 556 434 l 556 433 l 557 433 q 631 466 624 464 l 631 467 l 629 467 q 556 434 595 452 m 1256 450 l 1259 450 l 1259 450 l 1256 450 l 1256 450 m 1253 448 l 1255 448 l 1255 447 l 1253 447 l 1253 448 m 283 435 q 160 241 256 396 l 160 239 q 183 259 183 250 q 283 434 231 345 l 283 435 l 283 435 m 310 430 l 310 427 l 311 427 l 311 430 l 310 430 m 307 425 l 307 422 l 308 422 l 308 425 l 307 425 m 303 418 l 303 416 l 304 416 l 304 418 l 303 418 m 301 416 q 300 412 301 414 l 300 411 l 301 411 q 302 414 301 412 l 302 416 l 301 416 m 298 410 l 298 408 l 299 408 l 299 410 l 298 410 m 296 407 q 294 404 296 406 l 294 402 l 296 402 q 297 406 296 404 l 297 407 l 296 407 m 292 401 q 292 398 292 400 l 292 397 l 292 397 q 294 400 292 398 l 294 401 l 292 401 m 289 396 l 212 267 l 212 267 q 290 395 214 267 l 290 396 l 289 396 m 1160 391 l 1162 391 l 1162 391 l 1160 391 l 1160 391 m 1143 380 l 1145 380 q 1143 378 1145 378 l 1141 378 q 1143 380 1142 380 m 1126 370 l 1128 370 l 1128 368 l 1126 368 l 1126 370 m 1118 355 l 1120 355 l 1120 354 l 1118 354 l 1118 355 m 1104 345 l 1105 345 q 1103 343 1105 343 l 1102 343 q 1104 345 1102 345 m 1101 343 l 1102 343 q 1100 341 1102 341 l 1099 341 q 1101 343 1099 343 m 1098 341 l 1099 341 q 1097 339 1099 339 l 1095 339 q 1098 341 1096 341 m 1086 334 l 1086 334 q 1084 331 1086 331 l 1084 331 q 1086 334 1084 334 m 1066 331 l 1068 331 l 1068 330 l 1066 330 l 1066 331 m 1076 329 l 1076 328 l 1078 328 l 1078 329 l 1076 329 m 1072 327 l 1072 326 l 1075 326 l 1075 327 l 1072 327 m 1063 321 l 1063 320 l 1065 320 q 1072 323 1070 323 l 1072 325 l 1070 325 q 1063 321 1065 321 m 227 249 l 228 249 q 359 317 303 289 l 366 323 l 365 323 q 227 250 237 258 l 227 249 m 1050 321 l 1053 321 l 1053 320 l 1050 320 l 1050 321 m 1061 319 l 1061 318 l 1063 318 l 1063 319 l 1061 319 m 1057 317 l 1057 316 l 1059 316 l 1059 317 l 1057 317 m 1052 314 l 1052 313 l 1053 313 q 1056 314 1055 314 l 1056 315 l 1055 315 q 1052 314 1053 314 m 1038 314 l 1041 314 l 1041 313 l 1038 313 l 1038 314 m 1048 311 l 1048 311 l 1050 311 l 1050 311 l 1048 311 m 1036 311 l 1038 311 l 1038 311 l 1036 311 l 1036 311 m 1045 309 l 1045 309 l 1047 309 l 1047 309 l 1045 309 m 1042 307 l 1042 306 l 1044 306 l 1044 307 l 1042 307 m 1036 304 l 1036 302 l 1038 302 l 1038 304 l 1036 304 m 1048 305 l 1050 305 l 1050 304 l 1048 304 l 1048 305 m 1023 304 l 1025 304 l 1025 302 l 1023 302 l 1023 304 m 1033 302 l 1033 300 l 1036 300 l 1036 302 l 1033 302 m 1020 302 l 1022 302 l 1022 300 l 1020 300 l 1020 302 m 1029 300 l 1029 298 l 1032 298 l 1032 300 l 1029 300 m 1011 296 l 1013 296 l 1013 295 l 1011 295 l 1011 296 m 1021 294 l 1021 293 l 1023 293 l 1023 294 l 1021 294 m 1033 295 l 1036 295 l 1036 294 l 1033 294 l 1033 295 m 1008 294 l 1010 294 l 1010 293 l 1008 293 l 1008 294 m 1018 292 l 1018 291 l 1020 291 l 1020 292 l 1018 292 m 1029 293 l 1032 293 l 1032 292 l 1029 292 l 1029 293 m 1027 291 l 1029 291 l 1029 290 l 1027 290 l 1027 291 m 1023 288 l 1025 288 l 1025 288 l 1023 288 l 1023 288 m 1009 286 l 1009 286 l 1011 286 l 1011 286 l 1009 286 m 996 286 l 998 286 l 998 286 l 996 286 l 996 286 m 1006 284 l 1006 283 l 1008 283 l 1008 284 l 1006 284 m 1018 286 l 1020 286 l 1020 284 l 1018 284 l 1018 286 m 993 284 l 995 284 l 995 283 l 993 283 l 993 284 m 1002 282 l 1002 281 l 1004 281 l 1004 282 l 1002 282 m 1015 283 l 1017 283 l 1017 282 l 1015 282 l 1015 283 m 1011 281 l 1013 281 l 1013 280 l 1011 280 l 1011 281 m 997 279 l 997 277 l 999 277 l 999 279 l 997 279 m 984 279 l 986 279 l 986 277 l 984 277 l 984 279 m 1008 279 l 1010 279 q 1002 272 1010 277 l 999 272 q 1008 279 999 273 m 994 277 l 994 275 l 996 275 l 996 277 l 994 277 m 981 277 l 983 277 l 983 275 l 981 275 l 981 277 m 988 273 l 988 272 l 989 272 q 993 273 991 273 l 993 275 l 991 275 q 988 273 989 273 m 985 271 l 985 270 l 987 270 l 987 271 l 985 271 m 996 271 l 998 271 l 998 270 l 996 270 l 996 271 m 982 269 l 982 268 l 984 268 l 984 269 l 982 269 m 968 269 l 970 269 l 970 268 l 968 268 l 968 269 m 976 266 l 976 264 l 977 264 q 981 266 979 266 l 981 267 l 979 267 q 976 266 977 266 m 965 267 l 968 267 l 968 266 l 965 266 l 965 267 m 973 263 l 973 262 l 975 262 l 975 263 l 973 263 m 964 258 l 964 257 l 965 257 q 972 260 970 260 l 972 261 l 970 261 q 964 258 966 258 m 956 261 l 959 261 l 959 260 l 956 260 l 956 261 m 954 259 l 956 259 l 956 258 l 954 258 l 954 259 m 961 256 l 961 254 l 963 254 l 963 256 l 961 256 m 952 250 l 952 249 l 954 249 q 960 252 958 252 l 960 254 l 959 254 q 952 250 954 250 m 941 252 l 943 252 l 943 250 l 941 250 l 941 252 m 940 243 l 940 241 l 941 241 q 951 247 949 247 l 951 248 l 950 248 q 940 243 941 243 m 929 243 l 931 243 l 931 243 l 929 243 l 929 243 m 825 172 q 827 170 825 170 l 939 239 l 939 241 l 938 241 q 825 172 827 172 m 917 236 l 920 236 l 920 235 l 917 235 l 917 236 m 189 229 l 190 229 q 193 232 191 229 l 193 233 l 192 233 q 189 229 190 233 m 892 206 l 892 205 l 893 205 q 903 211 901 211 l 903 212 l 902 212 q 892 206 893 206 m 888 204 l 888 203 l 891 203 l 891 204 l 888 204 m 880 199 l 880 198 l 881 198 q 888 201 886 201 l 888 202 l 886 202 q 880 199 882 199 m 83 38 q 172 197 99 62 l 171 197 q 101 79 164 190 q 83 38 88 50 m 877 197 l 877 195 l 879 195 l 879 197 l 877 197 m 873 195 l 873 193 l 876 193 l 876 195 l 873 195 m 870 193 l 870 191 l 872 191 l 872 193 l 870 193 m 865 189 l 865 188 l 866 188 q 869 189 868 189 l 869 190 l 868 190 q 865 189 866 189 m 861 186 l 861 186 l 863 186 l 863 186 l 861 186 m 858 184 l 858 184 l 860 184 l 860 184 l 858 184 m 852 181 l 852 180 l 854 180 q 857 181 856 181 l 857 182 l 856 182 q 852 181 854 181 m 849 179 l 849 178 l 852 178 l 852 179 l 849 179 m 846 177 l 846 176 l 848 176 l 848 177 l 846 177 m 838 172 l 838 170 l 838 170 q 845 174 844 174 l 845 175 l 844 175 q 838 172 839 172 m 820 174 l 822 174 l 822 172 l 820 172 l 820 174 m 834 170 l 834 168 l 836 168 l 836 170 l 834 170 m 811 168 l 813 168 l 813 167 l 811 167 l 811 168 m 831 167 l 831 166 l 833 166 l 833 167 l 831 167 m 825 164 l 825 163 l 826 163 q 829 164 829 164 l 829 165 l 829 165 q 825 164 827 164 m 802 163 l 804 163 l 804 161 l 802 161 l 802 163 m 813 161 l 813 161 l 815 161 l 815 161 l 813 161 m 822 161 l 822 161 l 824 161 l 824 161 l 822 161 m 819 159 l 819 159 l 821 159 l 821 159 l 819 159 m 808 159 l 808 157 l 810 157 l 810 159 l 808 159 m 810 154 l 810 153 l 811 153 q 818 156 816 156 l 818 157 l 817 157 q 810 154 811 154 m 320 -134 l 320 -135 l 321 -135 q 806 155 481 -47 l 806 156 l 806 156 q 322 -134 524 -19 l 320 -134 m 806 152 l 806 151 l 809 151 l 809 152 l 806 152 m 795 144 l 795 143 l 795 143 q 806 149 804 149 l 806 150 l 804 150 q 795 144 796 144 m 762 121 l 764 121 l 764 120 l 762 120 l 762 121 m 758 119 l 761 119 q 758 117 761 117 l 756 117 q 758 119 757 119 m 753 116 l 755 116 l 755 115 l 753 115 l 753 116 m 750 113 l 752 113 l 752 113 l 750 113 l 750 113 m 716 92 l 718 92 l 718 91 l 716 91 l 716 92 m 715 91 q 718 90 717 90 q 716 87 718 87 q 713 88 713 88 q 715 91 713 91 m 710 88 l 713 88 l 713 87 l 710 87 l 710 88 m 701 77 l 701 77 l 703 77 l 703 77 l 701 77 m 608 28 l 608 27 l 610 27 q 613 28 612 28 l 613 29 l 612 29 q 608 28 610 28 m 308 -140 l 308 -141 l 309 -141 q 319 -137 317 -137 l 319 -136 l 317 -136 q 308 -140 310 -140 m 296 -147 l 296 -148 l 297 -148 q 304 -144 302 -144 l 304 -144 l 303 -144 q 296 -147 298 -147 m 279 -155 l 279 -157 l 281 -157 q 288 -153 286 -153 l 288 -153 l 287 -153 q 279 -155 281 -155 m 258 -167 l 258 -168 l 260 -168 q 269 -163 267 -163 l 269 -162 l 269 -162 q 258 -167 260 -167 m 208 -192 l 208 -193 l 210 -193 q 215 -191 213 -191 l 215 -189 l 214 -189 q 208 -192 210 -192 z "},"F":{"ha":683,"x_min":-88,"x_max":1406,"o":"m 1400 1282 l 1406 1282 l 1406 1280 l 1404 1280 q 1105 1227 1310 1280 q 593 1034 817 1137 q 544 1008 545 1010 q 498 821 530 918 q 393 545 454 693 l 394 545 q 596 630 505 599 q 613 633 610 633 l 613 632 l 615 632 l 614 634 q 686 651 670 651 l 686 650 l 690 650 l 689 652 l 689 653 l 691 653 q 693 651 691 651 l 693 649 l 611 629 q 614 627 611 627 l 671 642 l 671 640 q 667 637 667 640 l 665 639 l 663 639 l 665 637 l 660 637 q 659 635 660 635 l 655 635 q 651 633 655 633 l 648 633 q 643 631 648 631 l 640 631 q 639 630 640 630 l 635 630 l 635 629 l 633 630 l 632 630 q 631 628 632 628 q 627 629 629 629 l 629 627 l 627 627 q 623 628 626 628 l 624 625 l 623 625 q 620 627 621 627 l 621 625 l 620 625 l 618 625 l 595 618 l 596 616 l 595 616 q 592 618 593 618 l 593 616 l 592 616 q 589 616 590 616 l 590 614 l 589 614 l 587 616 q 573 611 575 611 l 573 610 l 574 610 l 583 613 l 583 611 l 585 611 l 584 613 l 587 614 l 587 614 l 587 612 l 587 610 q 675 637 640 628 l 675 635 l 670 634 l 670 633 l 672 633 q 707 642 684 637 l 707 640 q 557 590 636 625 q 376 507 425 532 q 155 4 330 398 q 124 -85 134 -41 q 70 -238 94 -178 l 68 -238 l 68 -236 l 68 -236 l 68 -238 q 68 -239 68 -238 q 63 -246 67 -239 l 63 -244 l 64 -241 l 63 -239 l 68 -222 l 68 -222 l 66 -222 l 61 -244 l 59 -244 q 64 -222 59 -241 l 64 -220 l 63 -220 l 63 -224 l 62 -224 l 60 -222 q 44 -267 57 -235 l 42 -267 q 102 -58 42 -231 q 123 81 123 46 l 123 94 q 78 247 123 199 l 78 246 q 92 205 89 217 l 90 205 q 44 290 65 271 q 33 309 33 303 l 37 309 q 99 258 59 304 q 127 184 117 234 l 131 176 l 132 176 l 132 179 q 106 252 119 231 q 28 318 71 304 l 26 318 q 23 314 26 314 l 22 314 q 9 333 9 327 q 37 345 9 342 l 37 342 q 30 338 37 340 q 56 328 30 337 q 140 227 114 298 q 155 130 155 180 l 155 104 q 155 77 155 92 l 155 76 l 155 76 q 304 408 189 153 l 335 484 l 334 484 q 181 397 294 463 l 181 396 l 182 396 q 239 420 237 420 q 98 366 153 374 l 98 370 q 283 469 172 412 l 283 471 l 283 471 l 81 365 l 82 363 l 82 361 q 37 354 82 355 l 37 357 q 169 429 43 363 l 351 524 q 448 790 401 646 l 448 791 l 447 791 q 394 663 401 675 l 394 665 l 507 954 q 512 960 509 959 q 513 958 512 958 q 445 726 513 920 l 379 560 q 378 555 379 557 l 378 554 l 379 554 q 492 859 445 710 q 524 991 515 935 q 519 988 520 988 l 519 989 l 519 996 l 519 998 q 233 825 366 918 q 78 699 170 785 l 79 699 q 210 797 184 781 l 212 797 q 42 661 115 727 q -43 551 -29 595 q -55 534 -50 538 q -56 535 -55 535 q -12 632 -56 568 q 77 727 3 656 q 254 858 182 818 q 330 909 308 891 l 328 909 q 91 743 186 823 q -65 519 -65 606 l -65 502 l -64 496 l -62 496 l -57 501 l -56 501 q -24 417 -47 449 q -12 399 -12 404 l -15 399 q -78 462 -65 436 q -88 505 -88 487 l -88 512 q 188 842 -88 642 q 465 1007 348 949 q 535 1044 534 1041 q 547 1076 544 1076 l 549 1076 l 549 1059 l 549 1048 q 898 1194 696 1122 q 1158 1270 1006 1234 q 1165 1271 1160 1270 l 1165 1269 q 1156 1267 1157 1267 l 1156 1267 l 1158 1267 q 1174 1269 1171 1269 q 1177 1265 1174 1267 l 1179 1267 l 1181 1267 l 1181 1264 l 1142 1257 l 1142 1255 l 1144 1255 q 1156 1258 1145 1255 l 1156 1255 q 1062 1232 1137 1252 l 1062 1231 l 1063 1231 l 1103 1241 l 1103 1239 l 1099 1239 l 1099 1238 l 1102 1238 q 1105 1239 1104 1239 l 1105 1236 q 1090 1234 1092 1234 l 1090 1232 l 1092 1232 q 1312 1279 1201 1261 q 1338 1281 1316 1279 l 1338 1279 l 1337 1279 l 1313 1276 l 1313 1274 l 1316 1274 q 1400 1282 1366 1282 m 920 1196 l 920 1194 l 922 1194 l 922 1196 l 920 1196 m 812 1156 l 812 1156 l 813 1156 q 919 1193 886 1183 l 919 1194 l 918 1194 q 812 1156 851 1172 m 807 1154 l 807 1153 l 808 1153 q 811 1154 810 1154 l 811 1156 l 810 1156 q 807 1154 808 1154 m 801 1152 l 801 1151 l 802 1151 q 806 1152 804 1152 l 806 1153 l 804 1153 q 801 1152 802 1152 m 795 1149 l 795 1149 l 797 1149 q 800 1149 799 1149 l 800 1151 l 799 1151 q 795 1149 797 1149 m 792 1149 l 792 1147 l 795 1147 l 795 1149 l 792 1149 m 787 1146 l 787 1145 l 789 1145 l 789 1146 l 787 1146 m 781 1144 l 781 1143 l 783 1143 l 783 1144 l 781 1144 m 776 1142 l 776 1141 l 778 1141 l 778 1142 l 776 1142 m 770 1140 l 770 1139 l 772 1139 l 772 1140 l 770 1140 m 764 1137 l 764 1137 l 767 1137 l 767 1137 l 764 1137 m 759 1135 l 759 1134 l 761 1134 l 761 1135 l 759 1135 m 753 1133 l 753 1132 l 755 1132 l 755 1133 l 753 1133 m 748 1131 l 748 1130 l 750 1130 l 750 1131 l 748 1131 m 742 1128 l 742 1128 l 745 1128 l 745 1128 l 742 1128 m 736 1126 l 736 1125 l 739 1125 l 739 1126 l 736 1126 m 682 650 l 682 649 l 684 649 l 684 650 l 682 650 m 677 649 l 677 648 l 679 648 l 679 649 l 677 649 m 672 648 l 672 647 l 674 647 l 674 648 l 672 648 m 658 644 l 658 644 l 660 644 l 660 644 l 658 644 m 653 644 l 653 642 l 655 642 l 655 644 l 653 644 m 649 642 l 649 641 l 651 641 l 651 642 l 649 642 m 673 644 l 675 644 l 675 641 l 673 641 l 673 644 m 644 641 l 644 640 l 646 640 l 646 641 l 644 641 m 640 640 l 640 639 l 642 639 l 642 640 l 640 640 m 635 639 l 635 637 l 637 637 l 637 639 l 635 639 m 631 637 l 631 637 l 633 637 l 633 637 l 631 637 m 627 637 l 627 635 l 629 635 l 629 637 l 627 637 m 622 635 l 622 634 l 624 634 l 624 635 l 622 635 m 618 634 l 618 633 l 620 633 l 620 634 l 618 634 m 667 633 l 667 632 l 669 632 l 669 633 l 667 633 m 570 610 l 570 609 l 572 609 l 572 610 l 570 610 m 583 610 l 583 609 l 585 609 l 585 610 l 583 610 m 566 609 l 566 608 l 568 608 l 568 609 l 566 609 m 475 576 l 475 575 l 477 575 l 477 576 l 475 576 m 463 571 l 463 570 l 464 570 q 469 572 467 572 l 469 573 l 469 573 q 463 571 465 571 m 438 560 l 438 559 l 439 559 q 462 569 451 565 l 462 570 l 460 570 q 438 560 439 560 m 229 191 l 229 188 l 230 188 l 230 191 l 229 191 m 226 182 q 224 179 226 181 l 224 178 l 226 178 q 227 181 226 179 l 227 182 l 226 182 m 221 172 q 220 169 221 172 l 220 168 l 221 168 q 222 172 221 169 l 222 172 l 221 172 m 218 165 q 216 159 218 163 l 216 158 l 217 158 q 219 163 217 160 l 219 165 l 218 165 m 214 157 q 141 -14 157 25 l 141 -16 l 142 -16 q 216 156 143 -10 l 216 157 l 214 157 m 144 54 l 144 51 l 146 51 l 146 54 l 144 54 m 130 -24 l 130 -26 l 131 -26 l 131 -24 l 130 -24 m 112 -80 l 112 -83 l 113 -83 l 113 -80 l 112 -80 m 102 -104 l 102 -107 l 103 -107 l 103 -104 l 102 -104 m 100 -111 q 82 -163 94 -125 l 82 -165 l 83 -165 l 102 -111 l 100 -111 m 90 -111 q 56 -218 68 -177 l 56 -218 q 54 -217 56 -217 l 54 -219 l 56 -219 l 56 -220 q 54 -222 56 -222 q 53 -222 54 -222 l 53 -224 l 54 -226 q 47 -248 52 -226 l 47 -250 l 49 -250 l 91 -113 l 91 -111 l 90 -111 m 102 -130 l 89 -170 l 89 -170 l 90 -170 q 104 -132 90 -168 l 102 -130 m 100 -148 l 100 -151 l 101 -151 l 101 -148 l 100 -148 m 96 -160 l 96 -163 l 96 -163 l 96 -160 l 96 -160 m 81 -166 l 81 -168 l 82 -168 l 82 -166 l 81 -166 m 80 -170 l 80 -172 l 81 -172 l 81 -170 l 80 -170 m 87 -172 l 87 -174 l 89 -174 l 89 -172 l 87 -172 m 87 -175 l 87 -177 l 87 -177 l 87 -175 l 87 -175 m 83 -194 l 83 -196 l 84 -196 l 84 -194 l 83 -194 m 68 -215 l 68 -217 l 70 -217 l 70 -215 l 68 -215 m 64 -217 l 64 -219 l 66 -219 l 66 -217 l 64 -217 m 68 -218 l 68 -220 l 68 -220 l 68 -218 l 68 -218 m 71 -227 l 71 -229 l 72 -229 l 72 -227 l 71 -227 m 47 -250 l 47 -253 l 47 -253 l 47 -250 l 47 -250 m 1375 1300 l 1375 1298 l 1388 1298 l 1388 1295 l 1387 1295 q 1229 1277 1291 1286 l 1229 1279 l 1230 1279 l 1274 1286 l 1274 1286 l 1272 1286 l 1232 1282 l 1232 1284 q 1375 1300 1336 1300 m 1345 1290 l 1345 1288 q 1326 1282 1326 1285 q 1201 1262 1304 1282 l 1201 1265 q 1345 1290 1279 1280 m 1278 1288 l 1278 1286 l 1281 1286 l 1281 1288 l 1278 1288 m 1225 1283 l 1229 1283 l 1229 1281 l 1225 1281 l 1225 1283 m 1340 1282 l 1343 1282 l 1343 1280 l 1340 1280 l 1340 1282 m 1222 1278 l 1226 1278 l 1226 1276 l 1222 1276 l 1222 1278 m 1215 1277 l 1220 1277 l 1220 1274 l 1215 1274 l 1215 1277 m 1208 1276 l 1213 1276 l 1213 1274 l 1208 1274 l 1208 1276 m 1308 1274 l 1308 1274 l 1311 1274 l 1311 1274 l 1308 1274 m 1177 1274 l 1179 1274 l 1179 1272 l 1177 1272 l 1177 1274 m 1203 1274 l 1206 1274 l 1206 1272 l 1203 1272 l 1203 1274 m 1196 1274 l 1200 1274 l 1200 1271 l 1196 1271 l 1196 1274 m 1167 1272 l 1170 1272 l 1170 1270 l 1167 1270 l 1167 1272 m 1190 1272 l 1193 1272 l 1193 1270 l 1190 1270 l 1190 1272 m 1183 1271 l 1187 1271 l 1187 1269 l 1183 1269 l 1183 1271 m 1177 1270 l 1181 1270 l 1181 1267 l 1177 1267 l 1177 1270 m 1151 1267 l 1151 1265 l 1154 1265 l 1154 1267 l 1151 1267 m 1168 1267 l 1168 1265 l 1172 1265 l 1172 1267 l 1168 1267 m 1163 1265 l 1163 1264 l 1165 1264 l 1165 1265 l 1163 1265 m 1158 1264 l 1158 1263 l 1160 1263 l 1160 1264 l 1158 1264 m 1195 1264 l 1198 1264 l 1198 1263 q 1196 1261 1198 1261 l 1195 1261 l 1195 1264 m 1190 1263 q 1192 1261 1192 1263 l 1192 1260 l 1190 1260 l 1190 1263 m 1183 1262 l 1184 1262 q 1187 1261 1186 1261 l 1187 1259 l 1184 1259 q 1183 1262 1184 1260 m 1179 1260 l 1182 1260 l 1182 1258 l 1179 1258 l 1179 1260 m 1174 1259 l 1177 1259 l 1177 1257 l 1174 1257 l 1174 1259 m 1170 1258 l 1172 1258 l 1172 1255 l 1170 1255 l 1170 1258 m 1137 1255 l 1137 1255 l 1141 1255 l 1141 1255 l 1137 1255 m 1165 1257 l 1167 1257 l 1167 1255 l 1165 1255 l 1165 1257 m 1160 1255 l 1162 1255 l 1162 1253 l 1160 1253 l 1160 1255 m 1155 1255 l 1158 1255 l 1158 1252 l 1155 1252 l 1155 1255 m 1149 1253 l 1152 1253 l 1152 1251 l 1149 1251 l 1149 1253 m 1145 1252 l 1147 1252 l 1147 1250 l 1145 1250 l 1145 1252 m 1141 1251 l 1143 1251 l 1143 1249 l 1141 1249 l 1141 1251 m 1136 1250 l 1139 1250 l 1139 1248 l 1136 1248 l 1136 1250 m 1105 1242 l 1107 1242 l 1107 1240 l 1105 1240 l 1105 1242 m 1096 1238 l 1096 1236 l 1099 1236 l 1099 1238 l 1096 1238 m 1087 1232 l 1087 1231 l 1090 1231 l 1090 1232 l 1087 1232 m 1049 1229 l 1049 1227 l 1050 1227 q 1061 1230 1059 1230 l 1061 1231 l 1059 1231 q 1049 1229 1051 1229 m 1083 1231 l 1083 1230 l 1085 1230 l 1085 1231 l 1083 1231 m 1042 1227 l 1042 1225 l 1044 1225 q 1048 1227 1046 1227 l 1048 1227 l 1046 1227 q 1042 1227 1044 1227 m 1034 1224 l 1034 1223 l 1036 1223 q 1040 1224 1038 1224 l 1040 1225 l 1038 1225 q 1034 1224 1036 1224 m 1031 1223 l 1031 1222 l 1033 1222 l 1033 1223 l 1031 1223 m 1026 1222 l 1026 1221 l 1028 1221 l 1028 1222 l 1026 1222 z "},"G":{"ha":983,"x_min":-50,"x_max":949,"o":"m 838 1267 l 838 1265 q 743 1230 808 1257 q 810 1260 748 1236 q 838 1267 835 1267 m 890 1267 l 899 1267 q 932 1243 932 1261 q 936 1224 935 1243 q 903 1085 936 1209 q 897 1045 897 1050 l 897 1044 l 898 1044 q 911 1076 911 1074 l 913 1076 q 878 1000 904 1044 l 873 996 q 870 1004 871 996 q 894 1102 870 1038 l 894 1105 q 868 1019 888 1105 l 866 998 q 867 987 867 993 l 868 987 l 873 988 l 873 986 q 871 968 873 985 l 871 957 q 869 955 871 955 q 847 996 847 966 l 847 998 q 896 1177 847 1027 q 901 1217 901 1202 l 901 1219 q 890 1244 901 1237 l 892 1244 l 892 1246 q 877 1249 884 1249 l 867 1249 l 856 1248 l 856 1250 l 863 1251 l 876 1251 q 894 1248 886 1251 q 897 1249 896 1249 q 908 1220 908 1238 q 907 1205 907 1206 l 907 1202 l 908 1202 q 909 1223 909 1217 q 890 1253 909 1246 l 889 1253 l 889 1255 l 890 1255 q 913 1241 902 1255 l 913 1242 l 907 1252 l 913 1253 q 887 1262 913 1260 q 867 1260 878 1262 l 867 1262 q 873 1263 873 1263 l 872 1265 q 890 1267 878 1267 m 870 1265 l 870 1263 q 846 1258 867 1263 l 846 1260 q 870 1265 867 1265 m 783 1260 q 665 1204 762 1249 q 652 1198 657 1198 q 660 1202 652 1200 l 660 1203 l 658 1203 q 660 1205 658 1205 l 662 1204 q 673 1211 673 1209 q 672 1212 672 1211 q 677 1215 674 1212 l 679 1213 q 689 1218 687 1218 l 689 1219 l 686 1219 l 686 1220 q 710 1231 688 1220 l 712 1230 q 729 1238 727 1238 l 729 1239 l 726 1239 q 766 1258 760 1258 q 732 1241 766 1255 l 732 1240 l 733 1240 q 783 1260 758 1252 m 724 1239 l 726 1239 l 726 1238 l 724 1238 l 724 1239 m 722 1238 l 724 1238 l 724 1236 l 722 1236 l 722 1238 m 720 1236 l 722 1236 l 722 1236 l 720 1236 l 720 1236 m 718 1236 l 720 1236 l 720 1234 l 718 1234 l 718 1236 m 715 1234 l 718 1234 l 718 1234 l 715 1234 l 715 1234 m 713 1234 l 715 1234 l 715 1232 l 713 1232 l 713 1234 m 711 1232 l 713 1232 l 713 1231 l 711 1231 l 711 1232 m 717 1227 l 719 1227 l 719 1227 l 717 1227 l 717 1227 m 714 1227 l 717 1227 l 717 1225 l 714 1225 l 714 1227 m 714 1225 q 681 1205 714 1224 l 681 1203 q 709 1217 706 1217 q 691 1206 709 1215 l 691 1205 l 692 1205 q 700 1208 698 1208 q 691 1203 700 1206 l 689 1204 q 683 1202 685 1202 l 683 1201 l 684 1201 q 688 1202 686 1202 q 625 1164 688 1200 q 454 1034 556 1122 q 301 873 353 937 q 134 639 182 725 q -14 231 -14 394 l -14 231 q 66 89 -14 118 q 115 81 87 81 q 307 135 188 81 l 307 136 l 306 136 q 137 92 193 92 l 122 92 l 122 94 l 131 94 q 407 188 224 94 q 557 269 444 205 q 568 274 565 274 q 368 146 492 214 q 112 63 210 63 q -3 122 39 63 l -6 123 l -6 122 q 41 78 27 78 q 113 62 67 62 l 115 62 q 624 306 284 62 l 629 311 l 629 311 l 623 311 l 623 311 q 766 410 646 330 q 836 507 794 456 l 838 507 l 838 505 l 840 507 l 840 505 q 830 491 838 500 l 830 490 l 831 490 l 831 492 q 833 490 833 492 l 829 483 q 828 484 829 484 q 810 456 828 479 q 795 431 795 433 l 793 431 l 791 432 q 790 431 791 431 l 790 432 l 826 483 l 826 484 q 783 427 823 483 l 783 425 l 783 425 l 783 427 l 785 427 l 787 427 q 788 427 787 427 l 788 425 q 790 429 790 425 l 791 429 l 793 427 q 826 474 797 429 l 838 490 l 838 488 l 835 482 l 835 481 l 836 481 q 863 517 836 486 l 863 516 q 811 439 825 467 q 820 444 817 444 l 820 443 q 783 395 794 420 q 630 54 668 176 q 592 -101 608 -14 l 592 -102 l 593 -102 q 616 -36 614 -36 l 616 -37 q 576 -158 593 -119 q 559 -203 564 -203 l 559 -203 q 557 -194 559 -198 q 595 -12 557 -138 q 606 21 606 12 l 606 23 l 604 23 q 552 -218 552 -138 l 552 -222 l 553 -222 l 556 -219 l 559 -219 l 559 -220 l 553 -262 q 554 -279 554 -274 q 551 -281 551 -281 q 533 -219 533 -260 l 533 -216 q 614 104 533 -119 q 747 382 676 258 q 106 43 319 43 q -36 132 0 43 q -50 218 -50 170 q 103 646 -50 381 q 252 856 159 740 q 391 1006 293 908 q 448 1057 448 1057 l 450 1057 l 448 1054 l 454 1054 l 453 1057 l 453 1057 q 460 1059 458 1059 l 460 1062 l 460 1063 q 494 1090 465 1065 l 495 1090 q 458 1057 484 1077 l 460 1054 q 455 1050 460 1053 l 455 1050 l 457 1054 l 456 1054 l 452 1050 l 453 1048 q 448 1044 453 1046 l 450 1042 l 450 1041 l 448 1041 q 445 1042 446 1042 q 429 1026 445 1040 l 429 1024 q 427 1022 429 1022 l 426 1022 l 424 1023 q 395 994 395 995 l 396 994 q 413 1003 404 1003 q 575 1137 502 1087 q 680 1203 629 1173 l 677 1203 q 665 1199 670 1199 l 667 1196 q 655 1193 659 1193 l 656 1191 q 650 1189 650 1189 l 649 1191 q 714 1225 709 1225 m 684 1219 l 686 1219 l 686 1218 l 684 1218 l 684 1219 m 682 1218 l 684 1218 l 684 1217 l 682 1217 l 682 1218 m 680 1217 l 682 1217 l 682 1215 l 680 1215 l 680 1217 m 677 1215 l 680 1215 l 680 1215 l 677 1215 l 677 1215 m 667 1210 l 670 1210 l 670 1208 l 667 1208 l 667 1210 m 665 1208 l 667 1208 l 667 1208 l 665 1208 l 665 1208 m 663 1208 l 665 1208 l 665 1206 l 663 1206 l 663 1208 m 661 1206 l 663 1206 l 663 1205 l 661 1205 l 661 1206 m 655 1203 l 658 1203 l 658 1202 l 655 1202 l 655 1203 m 688 1203 l 690 1203 l 690 1202 l 688 1202 l 688 1203 m 653 1202 l 655 1202 l 655 1201 l 653 1201 l 653 1202 m 648 1199 l 650 1199 l 650 1198 l 648 1198 l 648 1199 m 675 1198 l 675 1196 l 677 1196 l 677 1198 l 675 1198 m 646 1198 l 648 1198 l 648 1196 l 646 1196 l 646 1198 m 650 1198 l 652 1198 l 652 1196 l 650 1196 l 650 1198 m 650 1196 q 646 1193 650 1195 l 644 1193 q 650 1196 644 1196 m 637 1193 l 640 1193 l 640 1192 l 637 1192 l 637 1193 m 641 1192 l 643 1192 q 641 1190 643 1190 l 639 1190 q 641 1192 639 1192 m 632 1190 l 634 1190 l 634 1189 l 632 1189 l 632 1190 m 637 1189 q 630 1183 637 1187 l 627 1183 q 637 1189 632 1189 m 646 1189 l 646 1189 l 646 1187 q 646 1185 646 1187 l 646 1185 q 643 1187 643 1185 l 646 1189 m 624 1182 l 627 1182 q 624 1180 627 1180 l 622 1180 q 624 1182 623 1182 m 618 1179 l 621 1179 q 618 1177 621 1177 l 616 1177 q 618 1179 616 1179 m 613 1175 l 615 1175 l 615 1175 l 613 1175 l 613 1175 m 610 1173 l 612 1173 q 606 1168 612 1172 l 604 1168 q 610 1173 604 1171 m 599 1168 l 600 1168 q 603 1168 602 1168 l 530 1116 l 528 1116 q 536 1123 528 1118 l 535 1125 l 535 1126 l 537 1126 l 540 1125 q 541 1126 540 1126 l 540 1128 l 540 1130 l 542 1130 l 544 1128 l 545 1131 q 544 1132 544 1131 l 545 1132 l 547 1131 l 549 1133 q 547 1134 547 1133 l 549 1134 l 551 1133 q 556 1139 556 1138 q 555 1140 555 1139 l 556 1140 l 559 1139 l 559 1141 q 559 1142 559 1141 l 559 1142 l 562 1141 l 563 1143 q 562 1144 562 1143 l 563 1144 l 565 1143 l 600 1168 q 599 1168 599 1168 m 595 1159 l 597 1159 l 597 1158 l 595 1158 l 595 1159 m 592 1156 l 594 1156 l 594 1156 l 592 1156 l 592 1156 m 589 1154 l 591 1154 l 591 1153 l 589 1153 l 589 1154 m 585 1152 l 587 1152 l 587 1151 l 585 1151 l 585 1152 m 582 1149 l 584 1149 l 584 1149 l 582 1149 l 582 1149 m 578 1147 l 581 1147 l 581 1146 l 578 1146 l 578 1147 m 578 1145 q 568 1139 578 1143 q 578 1145 568 1141 m 564 1137 l 566 1137 l 566 1137 l 564 1137 l 564 1137 m 563 1135 q 556 1131 561 1131 q 563 1135 559 1135 m 555 1130 q 545 1123 555 1127 q 555 1130 545 1126 m 543 1122 l 544 1122 q 542 1120 544 1120 l 541 1120 q 543 1122 541 1122 m 538 1118 l 540 1118 q 532 1112 540 1116 l 531 1112 q 538 1118 531 1114 m 526 1116 l 528 1116 q 525 1113 528 1113 l 524 1113 q 526 1116 524 1116 m 519 1111 l 522 1111 l 522 1109 l 519 1109 l 519 1111 m 528 1111 l 530 1111 q 528 1109 530 1109 l 526 1109 q 528 1111 527 1111 m 524 1107 l 525 1107 l 522 1103 q 523 1102 523 1103 l 522 1102 q 519 1104 519 1102 l 524 1107 m 519 1103 l 519 1103 q 517 1101 519 1101 l 516 1101 q 519 1103 517 1103 m 512 1099 l 514 1099 l 514 1097 l 512 1097 l 512 1099 m 509 1095 l 509 1095 q 507 1093 509 1093 l 506 1093 q 509 1095 507 1095 m 498 1094 l 500 1094 l 500 1093 l 498 1093 l 498 1094 m 503 1090 l 504 1090 q 502 1088 504 1088 l 500 1088 q 503 1090 501 1090 m 495 1085 l 497 1085 l 497 1084 l 495 1084 l 495 1085 m 491 1081 l 492 1081 l 490 1078 q 491 1076 491 1078 l 488 1076 l 488 1078 q 491 1081 489 1081 m 483 1075 l 485 1075 q 483 1073 485 1073 l 483 1075 m 471 1065 l 473 1065 l 473 1064 l 471 1064 l 471 1065 m 454 1062 l 456 1062 l 456 1061 l 454 1061 l 454 1062 m 466 1061 l 466 1059 q 463 1057 466 1058 l 463 1057 q 466 1061 463 1059 m 444 1047 l 445 1047 q 447 1050 447 1047 l 446 1050 q 444 1047 444 1049 m 445 1044 l 446 1044 q 448 1046 448 1044 l 447 1046 q 445 1044 445 1046 m 437 1043 l 437 1042 l 439 1042 l 439 1043 l 437 1043 m 441 1035 l 441 1033 l 438 1033 q 441 1035 439 1035 m 401 1007 l 401 1006 l 403 1006 l 403 1007 l 401 1007 m 370 977 l 372 977 q 379 985 373 977 l 378 985 q 370 977 376 985 m 373 972 l 373 972 q 382 981 374 972 l 380 981 q 373 972 379 981 m 304 908 l 304 906 l 304 906 l 304 908 l 304 908 m 294 896 l 294 895 q 296 897 296 895 l 296 898 q 294 896 294 898 m 283 885 l 283 884 q 287 887 286 884 l 287 888 q 283 885 286 888 m 277 877 l 277 876 q 279 878 279 876 l 279 880 q 277 877 277 879 m 271 870 l 271 869 q 275 873 273 869 l 275 873 q 271 870 273 873 m 266 864 l 266 863 q 269 866 267 863 l 269 867 q 266 864 268 867 m 260 857 l 260 856 q 264 859 262 856 l 264 861 q 260 857 262 861 m 241 833 l 241 833 q 259 854 243 833 l 259 854 q 241 833 256 853 m 237 828 l 237 827 q 240 830 239 827 l 240 831 q 237 828 239 831 m 233 823 l 233 821 q 236 825 234 821 l 236 826 q 233 823 234 826 m 217 802 l 217 802 q 231 819 218 802 l 231 821 q 217 802 230 821 m 190 767 l 190 766 q 216 799 191 766 l 216 800 q 190 767 214 799 m 184 759 l 184 758 q 189 764 186 758 l 189 765 q 184 759 187 764 m 182 757 l 182 755 l 183 755 l 183 757 l 182 757 m 179 751 l 179 750 q 181 752 181 750 l 181 753 q 179 751 179 753 m 177 749 l 177 747 l 178 747 l 178 749 l 177 749 m 174 743 l 174 743 q 176 745 176 743 l 176 746 q 174 743 174 745 m 171 741 l 171 739 l 172 739 l 172 741 l 171 741 m 165 732 l 165 731 q 170 736 167 731 l 170 738 q 165 732 169 738 m 163 730 l 163 728 l 165 728 l 165 730 l 163 730 m 161 727 l 161 724 l 162 724 l 162 727 l 161 727 m 159 724 l 159 722 l 160 722 l 160 724 l 159 724 m 157 720 l 157 718 l 158 718 l 158 720 l 157 720 m 155 717 l 155 715 l 155 715 l 155 717 l 155 717 m 153 713 l 153 711 l 153 711 l 153 713 l 153 713 m 150 710 l 150 708 l 151 708 l 151 710 l 150 710 m 148 707 l 148 705 l 149 705 l 149 707 l 148 707 m 146 703 l 146 701 l 146 701 l 146 703 l 146 703 m 143 700 l 143 698 l 144 698 l 144 700 l 143 700 m 141 696 q 140 693 141 696 l 140 692 l 141 692 q 142 696 141 694 l 142 696 l 141 696 m 138 691 q 41 516 68 578 l 41 515 l 42 515 q 139 690 88 604 l 139 691 l 138 691 m 768 637 q 771 637 768 637 q 779 637 775 637 q 792 633 792 637 q 703 592 769 619 l 702 590 l 704 590 q 800 630 730 602 l 800 637 q 803 637 801 637 q 827 629 827 633 q 760 597 826 623 q 534 512 637 541 q 522 509 525 509 l 522 511 l 519 511 l 520 509 l 520 507 l 518 507 l 518 510 l 515 510 l 516 507 l 516 507 q 506 504 514 507 l 506 507 l 509 507 l 509 507 l 507 507 q 503 507 505 507 l 504 504 l 504 503 l 501 503 l 501 505 l 498 505 l 499 503 l 499 502 l 497 502 l 497 504 l 494 504 l 494 502 l 494 501 l 492 501 l 492 503 q 481 501 492 503 l 482 498 l 482 498 l 480 498 l 480 500 l 477 500 l 478 498 l 478 496 l 476 496 l 476 498 q 466 496 474 498 l 466 498 q 532 515 511 511 l 532 516 q 526 517 532 516 l 486 507 l 486 509 l 510 515 l 509 517 l 509 519 l 515 519 l 515 517 l 517 517 l 516 519 l 517 519 q 522 519 519 519 l 520 521 l 520 522 l 526 522 l 526 521 l 528 521 l 527 523 l 528 523 q 532 522 530 522 l 530 524 l 532 524 q 535 523 534 523 l 534 526 l 535 526 q 539 524 536 524 l 538 526 l 539 526 q 543 526 541 526 l 541 528 l 543 528 q 546 526 545 526 l 545 529 l 546 529 q 549 528 548 528 l 548 530 q 549 531 549 530 q 548 532 548 531 q 549 533 549 532 l 548 533 l 471 509 q 480 513 471 511 l 480 514 l 479 514 q 444 503 460 507 q 501 524 444 505 q 619 570 534 535 q 712 610 650 578 q 749 631 712 612 l 749 632 l 747 632 l 725 627 l 725 629 q 768 637 751 637 m 551 524 l 551 523 l 553 523 q 635 551 606 540 l 635 552 l 634 552 q 551 524 586 535 m 547 523 l 547 522 l 549 522 l 549 523 l 547 523 m 544 522 l 544 521 l 546 521 l 546 522 l 544 522 m 522 521 l 522 519 l 525 519 l 525 521 l 522 521 m 539 521 l 539 519 l 541 519 l 541 521 l 539 521 m 532 519 l 532 517 l 534 517 l 534 519 l 532 519 m 511 517 l 511 516 l 513 516 l 513 517 l 511 517 m 528 513 l 528 512 l 530 512 l 530 513 l 528 513 m 524 512 l 524 511 l 526 511 l 526 512 l 524 512 m 817 511 l 817 510 q 813 507 817 508 l 813 507 q 817 511 813 509 m 510 509 l 510 507 l 513 507 l 513 509 l 510 509 m 461 498 l 464 498 l 464 495 l 461 495 l 461 498 m 827 486 l 827 486 q 829 488 829 486 l 829 488 q 827 486 827 488 m 790 431 l 790 429 q 788 427 790 427 l 788 429 q 790 431 788 431 m 777 403 l 776 403 l 773 404 l 759 380 l 759 378 l 760 378 q 771 395 762 384 l 772 395 q 770 389 772 392 l 770 387 l 771 387 q 785 412 785 411 q 777 403 777 408 m 755 375 l 755 373 l 757 373 l 757 375 l 755 375 m 665 206 l 665 205 l 665 205 l 693 265 q 665 206 678 239 m 115 94 l 118 94 l 118 92 l 115 92 l 115 94 m 905 1253 l 907 1253 l 907 1252 l 905 1252 l 905 1253 m 860 1248 l 878 1248 l 886 1246 l 886 1244 l 878 1246 l 860 1246 l 860 1248 m 906 1200 l 906 1196 l 907 1196 l 907 1200 l 906 1200 m 905 1192 l 905 1190 l 906 1190 l 906 1192 l 905 1192 m 920 669 q 947 641 947 665 q 949 637 949 639 q 891 542 949 606 q 888 540 888 540 l 886 541 l 876 526 l 873 528 q 867 521 873 526 l 867 522 l 888 547 q 888 547 888 547 q 880 542 886 547 l 880 543 l 893 560 l 893 561 l 888 557 l 886 560 l 861 529 l 860 529 l 860 531 l 858 530 l 858 531 q 914 625 914 616 q 905 633 914 633 q 883 625 898 633 q 891 622 888 622 l 891 620 l 890 620 q 865 628 882 620 q 859 633 861 629 q 902 648 859 641 l 907 648 q 914 646 911 648 l 920 647 l 920 649 l 912 650 l 905 650 q 852 632 852 644 l 850 632 q 830 641 841 632 l 830 642 q 888 665 830 649 q 913 668 900 668 l 916 668 q 920 669 918 668 m 928 601 l 928 599 l 929 599 l 929 601 l 928 601 m 909 573 l 909 572 q 926 597 916 579 l 926 597 q 909 573 926 597 m 898 560 l 898 559 q 907 570 899 559 l 907 571 q 898 560 906 571 m 892 554 l 892 552 l 893 552 l 893 554 l 892 554 m 876 538 l 876 538 q 874 535 876 535 l 874 536 q 876 538 875 538 m 855 529 l 857 529 l 857 526 l 855 526 l 855 529 m 853 526 l 854 526 l 854 523 l 853 523 l 853 526 z "},"H":{"ha":994,"x_min":-89,"x_max":1097,"o":"m 647 1271 q 650 1269 650 1271 q 612 1065 638 1150 q 524 818 576 947 q 410 562 468 685 l 412 562 q 761 667 545 616 q 836 680 802 675 l 836 677 l 878 682 l 878 684 l 874 684 q 862 682 867 682 l 862 684 q 880 689 880 684 q 1034 1122 1001 1036 l 1036 1121 l 1036 1122 q 1034 1125 1034 1124 l 1037 1124 l 1037 1125 q 1036 1128 1036 1127 l 1038 1128 q 1039 1131 1038 1128 q 1038 1134 1038 1133 l 1040 1133 q 1042 1140 1040 1135 q 1041 1143 1041 1142 l 1044 1142 q 1046 1152 1044 1144 q 1046 1156 1046 1154 l 1048 1154 q 1050 1161 1048 1156 q 1049 1164 1049 1163 l 1051 1163 q 1055 1173 1051 1165 q 1053 1177 1053 1175 l 1056 1175 q 1058 1182 1056 1177 q 1057 1185 1057 1184 l 1059 1184 q 1061 1191 1059 1186 q 1060 1194 1060 1193 l 1062 1193 l 1062 1194 q 1061 1198 1061 1196 l 1063 1196 q 1065 1203 1063 1198 q 1065 1206 1065 1205 l 1067 1205 q 1069 1212 1067 1207 q 1068 1215 1068 1215 l 1070 1215 l 1070 1215 q 1069 1219 1069 1217 l 1072 1218 q 1072 1221 1072 1219 q 1072 1224 1072 1223 l 1074 1223 l 1074 1224 q 1072 1227 1072 1227 l 1075 1227 q 1076 1230 1075 1227 q 1075 1234 1075 1232 l 1077 1232 l 1077 1236 l 1079 1236 q 1041 1131 1072 1210 l 1044 1131 q 1063 1180 1061 1179 l 1063 1179 q 1021 1057 1056 1154 l 1021 1055 l 1022 1055 q 1032 1082 1025 1063 l 1034 1081 l 1034 1082 q 1034 1085 1034 1084 l 1038 1083 q 1084 1224 1061 1151 q 1095 1250 1088 1224 l 1097 1250 q 989 906 1074 1162 q 912 690 935 757 l 913 690 q 1002 696 951 694 q 1004 694 1002 694 l 1015 694 l 1015 692 l 1013 692 q 970 689 975 689 l 970 688 l 975 688 l 975 686 q 959 684 959 685 l 959 682 l 956 682 l 950 684 l 950 681 q 907 675 907 679 l 907 675 q 969 681 949 680 l 969 679 l 962 679 l 962 677 l 966 677 q 1023 682 996 681 l 1023 680 q 903 665 903 671 q 777 267 843 488 l 777 266 l 777 266 q 817 370 785 283 l 819 370 l 819 368 q 730 158 774 233 l 724 153 q 723 155 724 155 q 814 436 723 175 q 824 471 821 454 l 824 472 l 823 472 q 714 141 745 246 l 714 140 l 715 140 q 718 141 718 141 l 720 139 q 694 117 707 117 q 692 120 692 119 q 772 376 713 219 l 870 661 l 869 661 q 519 571 825 661 q 391 524 450 549 q 204 137 378 496 q 123 -41 155 34 l 121 -40 l 121 -41 l 122 -43 q 119 -49 119 -47 l 117 -48 l 117 -49 l 119 -52 q 117 -55 117 -54 l 115 -54 l 115 -55 l 116 -57 q 115 -60 115 -59 l 113 -59 l 113 -60 l 114 -62 q 113 -66 113 -64 l 111 -64 l 111 -66 q 112 -69 112 -68 l 109 -68 q 109 -71 109 -69 q 109 -75 109 -73 l 107 -73 q 106 -77 107 -75 q 107 -80 107 -79 l 105 -79 q 102 -89 105 -81 q 103 -92 103 -92 l 100 -92 q 97 -101 100 -94 q 98 -104 98 -104 l 96 -104 l 96 -104 q 97 -108 97 -107 l 95 -107 q 72 -195 72 -178 l 69 -195 l 69 -194 q 116 -45 69 -167 l 116 -43 l 114 -43 q 79 -139 79 -130 l 77 -139 q 147 41 108 -42 l 147 42 l 146 42 q 133 14 146 41 l 131 14 l 131 14 l 132 11 q 130 4 130 7 q 127 7 127 4 q 128 11 127 9 l 128 12 l 127 12 q 60 -198 60 -153 l 60 -199 l 57 -199 q 58 -182 58 -185 q 57 -179 57 -180 l 60 -180 l 60 -177 l 57 -177 q 97 -45 57 -155 q 244 285 159 121 q 351 507 321 441 l 350 507 q 95 370 223 454 l 39 330 l 39 328 l 41 328 q 136 387 97 367 l 138 387 q 44 327 87 357 q -30 262 -8 288 q -58 215 -43 249 q -62 208 -60 208 l -63 208 q -64 212 -63 210 q 57 363 -64 273 q 209 452 140 422 q 231 465 229 465 l 231 467 l 230 467 q -70 201 -70 315 q -66 180 -70 193 l -63 180 q -61 184 -63 184 l -60 184 q -31 123 -48 149 q -23 110 -23 115 q -24 109 -24 110 q -89 197 -89 149 q 289 512 -89 336 q 371 547 367 545 q 528 936 464 751 l 528 937 l 527 937 q 468 802 474 809 l 468 804 q 597 1121 566 1039 q 604 1130 602 1130 l 604 1128 q 497 802 604 1075 q 445 680 456 715 l 445 679 l 446 679 q 589 1054 539 887 q 618 1168 604 1097 q 612 1165 614 1165 l 612 1166 q 646 1271 612 1180 l 647 1271 m 1070 1222 l 1072 1222 l 1072 1220 l 1070 1220 l 1070 1222 m 1067 1213 l 1068 1213 l 1068 1211 l 1067 1211 l 1067 1213 m 1063 1204 l 1065 1204 l 1065 1202 l 1063 1202 l 1063 1204 m 1059 1192 l 1060 1192 l 1060 1190 l 1059 1190 l 1059 1192 m 1068 1192 l 1068 1191 q 1065 1184 1067 1184 l 1065 1185 q 1068 1192 1065 1192 m 1056 1183 l 1057 1183 l 1057 1181 l 1056 1181 l 1056 1183 m 1065 1175 l 1065 1173 q 1063 1171 1065 1171 l 1063 1173 q 1065 1175 1064 1175 m 1053 1175 l 1053 1175 l 1053 1172 l 1053 1172 l 1053 1175 m 1048 1162 l 1049 1162 l 1049 1160 l 1048 1160 l 1048 1162 m 1060 1160 l 1060 1159 q 1041 1107 1044 1107 l 1041 1109 q 1060 1160 1058 1160 m 1044 1153 l 1046 1153 l 1046 1151 l 1044 1151 l 1044 1153 m 1040 1141 l 1041 1141 l 1041 1139 l 1040 1139 l 1040 1141 m 1037 1132 l 1038 1132 l 1038 1130 l 1037 1130 l 1037 1132 m 1040 1130 l 1040 1128 l 1041 1128 l 1041 1130 l 1040 1130 m 1040 1124 l 1040 1122 l 1041 1122 l 1041 1124 l 1040 1124 m 1036 1112 l 1036 1109 l 1037 1109 l 1037 1112 l 1036 1112 m 1034 1088 q 1038 1088 1037 1088 q 1036 1085 1038 1085 l 1034 1088 l 1034 1088 m 1036 1082 l 1036 1080 l 1037 1080 l 1037 1082 l 1036 1082 m 1034 1078 l 1034 1076 l 1036 1076 l 1036 1078 l 1034 1078 m 1020 1054 l 1020 1052 l 1021 1052 l 1021 1054 l 1020 1054 m 1019 1050 l 1019 1048 l 1020 1048 l 1020 1050 l 1019 1050 m 1018 1047 l 1018 1045 l 1019 1045 l 1019 1047 l 1018 1047 m 1016 1042 l 1016 1040 l 1017 1040 l 1017 1042 l 1016 1042 m 1015 1038 l 1015 1036 l 1016 1036 l 1016 1038 l 1015 1038 m 956 888 l 956 886 l 957 886 l 957 888 l 956 888 m 949 869 l 949 867 l 950 867 l 950 869 l 949 869 m 947 866 l 947 864 l 949 864 l 949 866 l 947 866 m 941 847 l 941 845 l 942 845 l 942 847 l 941 847 m 940 844 l 940 842 l 941 842 l 941 844 l 940 844 m 918 688 l 918 687 l 921 687 l 921 688 l 918 688 m 958 688 l 958 687 l 966 687 l 966 688 l 958 688 m 909 681 l 909 680 q 957 686 938 684 l 957 687 l 952 687 q 909 681 909 684 m 854 684 l 859 684 l 859 681 l 854 681 l 854 684 m 846 682 l 851 682 l 851 680 l 846 680 l 846 682 m 972 682 l 977 682 l 977 680 l 972 680 l 972 682 m 840 681 l 842 681 l 842 679 l 840 679 l 840 681 m 852 677 q 842 673 852 673 l 842 672 l 844 672 l 844 670 l 841 670 l 841 672 l 836 672 l 836 671 l 839 671 l 839 669 l 838 669 l 780 659 l 780 658 l 783 658 q 794 660 792 660 q 795 656 794 659 q 794 656 794 656 l 795 656 q 874 670 867 668 q 876 675 874 673 q 874 675 874 675 q 876 677 876 675 l 876 680 q 852 677 852 677 m 956 677 l 956 677 l 960 677 l 960 677 l 956 677 m 869 675 l 872 675 l 872 673 q 870 671 872 671 l 867 671 q 867 675 867 672 l 869 675 m 859 675 l 862 675 q 863 670 862 674 l 860 670 l 859 675 m 850 673 l 853 673 q 857 671 853 671 l 857 669 l 852 669 q 850 671 852 671 l 850 673 m 829 671 l 829 670 l 832 670 l 832 671 l 829 671 m 845 670 l 848 670 l 848 668 l 845 668 l 845 670 m 840 669 l 842 669 l 842 667 l 840 667 l 840 669 m 833 668 l 836 668 l 836 665 l 833 665 l 833 668 m 796 660 l 798 660 q 800 658 800 660 l 798 658 q 796 660 796 658 m 774 658 l 774 656 l 779 656 l 779 658 l 774 658 m 770 656 l 770 656 l 773 656 l 773 656 l 770 656 m 764 656 l 764 654 l 766 654 l 766 656 l 764 656 m 789 656 l 789 654 l 793 654 l 793 656 l 789 656 m 758 654 l 758 653 l 762 653 l 762 654 l 758 654 m 785 654 l 785 653 l 787 653 l 787 654 l 785 654 m 754 653 l 754 652 l 756 652 l 756 653 l 754 653 m 749 652 l 749 651 l 751 651 l 751 652 l 749 652 m 743 651 l 743 650 l 745 650 l 745 651 l 743 651 m 604 621 l 604 620 l 606 620 l 606 621 l 604 621 m 596 618 l 596 618 l 598 618 l 598 618 l 596 618 m 591 618 l 591 616 l 593 616 l 593 618 l 591 618 m 588 616 l 588 616 l 591 616 l 591 616 l 588 616 m 584 616 l 584 614 l 586 614 l 586 616 l 584 616 m 581 614 l 581 613 l 583 613 l 583 614 l 581 614 m 577 613 l 577 612 l 579 612 l 579 613 l 577 613 m 574 612 l 574 611 l 576 611 l 576 612 l 574 612 m 569 611 l 569 610 l 572 610 l 572 611 l 569 611 m 566 610 l 566 609 l 568 609 l 568 610 l 566 610 m 562 609 l 562 608 l 565 608 l 565 609 l 562 609 m 548 604 l 548 604 l 550 604 l 550 604 l 548 604 m 545 604 l 545 602 l 547 602 l 547 604 l 545 604 m 140 391 l 143 391 q 140 389 143 389 l 138 389 q 140 391 139 391 m 267 281 q 119 -35 174 92 l 121 -35 q 268 281 121 -28 l 268 281 l 267 281 m 706 116 q 709 113 709 115 l 709 110 q 652 12 692 45 q 509 -39 601 -39 q 410 -26 469 -39 l 410 -24 l 412 -24 l 412 -24 l 367 -14 l 367 -12 q 418 -24 394 -17 l 419 -24 l 419 -22 q 416 -20 416 -22 q 416 -19 416 -20 q 400 -16 406 -16 l 400 -14 l 439 -19 l 441 -19 l 441 -18 q 432 -17 433 -17 l 432 -16 q 437 -12 432 -13 l 437 -12 q 378 -5 406 -7 l 378 -2 l 387 -2 l 387 -1 q 363 0 380 -1 l 363 2 l 364 2 l 516 -8 l 532 -8 q 624 29 580 -8 l 634 41 l 634 42 l 633 42 q 612 30 616 30 q 671 78 652 61 l 674 78 l 674 77 q 625 10 666 44 l 591 -8 l 591 -9 l 593 -9 q 680 75 650 15 q 683 85 683 83 l 683 85 l 680 85 q 706 116 680 92 m 156 64 q 154 59 156 62 l 154 58 l 155 58 q 157 63 155 60 l 157 64 l 156 64 m 152 54 q 147 45 152 52 l 147 43 l 149 43 q 153 54 149 45 l 153 54 l 152 54 m 130 18 q 128 14 130 16 l 128 14 l 130 14 q 131 17 130 14 l 131 18 l 130 18 m 398 -9 l 401 -9 l 401 -12 l 398 -12 l 398 -9 m 404 -10 l 408 -10 l 408 -12 l 404 -12 l 404 -10 m 411 -12 l 414 -12 l 414 -14 l 411 -14 l 411 -12 m 395 -12 l 397 -12 l 397 -14 l 395 -14 l 395 -12 m 416 -12 l 420 -12 l 420 -14 l 416 -14 l 416 -12 m 442 -19 l 442 -20 l 447 -20 l 447 -19 l 442 -19 m 385 -19 l 387 -19 l 387 -21 l 385 -21 l 385 -19 m 418 -20 l 418 -21 l 425 -22 l 427 -22 l 427 -21 l 420 -20 l 418 -20 m 395 -21 l 397 -21 l 397 -24 l 395 -24 l 395 -21 m 428 -22 l 428 -24 q 508 -33 475 -33 l 513 -33 l 513 -31 q 430 -22 454 -26 l 428 -22 m 400 -22 l 402 -22 l 402 -24 l 400 -24 l 400 -22 m 404 -24 l 408 -24 l 408 -26 l 404 -26 l 404 -24 m 414 -24 l 414 -26 l 416 -26 l 416 -24 l 414 -24 m 115 -40 l 115 -42 l 116 -42 l 116 -40 l 115 -40 m 117 -40 l 117 -42 l 119 -42 l 119 -40 l 117 -40 m 109 -70 l 111 -70 l 111 -73 l 109 -73 l 109 -70 m 103 -88 l 104 -88 l 104 -90 l 103 -90 l 103 -88 m 98 -100 l 100 -100 l 100 -102 l 98 -102 l 98 -100 m 76 -142 l 79 -142 q 76 -151 76 -150 l 74 -151 q 76 -142 76 -143 m 73 -154 l 75 -154 l 75 -156 l 73 -156 l 73 -154 m 72 -158 l 74 -158 l 74 -160 l 72 -160 l 72 -158 m 71 -163 l 73 -163 l 73 -165 l 71 -165 l 71 -163 m 69 -167 l 72 -167 l 72 -170 l 69 -170 l 69 -167 m 68 -172 l 71 -172 l 71 -174 l 68 -174 l 68 -172 m 67 -177 l 69 -177 l 69 -179 l 67 -179 l 67 -177 m 66 -182 l 68 -182 l 68 -185 l 66 -185 l 66 -182 m 74 -184 l 76 -184 l 76 -186 l 74 -186 l 74 -184 m 65 -188 l 67 -188 l 67 -191 l 65 -191 l 65 -188 m 73 -189 l 75 -189 l 75 -191 l 73 -191 l 73 -189 m 72 -196 l 74 -196 l 74 -199 l 72 -199 l 72 -196 m 68 -197 l 71 -197 l 71 -203 l 68 -203 l 68 -197 m 53 -203 l 55 -203 l 55 -205 l 53 -205 l 53 -203 m 71 -205 l 73 -205 l 73 -207 l 71 -207 l 71 -205 m 67 -206 l 69 -206 l 69 -210 l 71 -216 q 67 -215 68 -215 l 67 -206 m 52 -215 l 54 -215 l 54 -233 l 52 -233 l 52 -215 m 67 -224 l 69 -224 l 69 -229 l 67 -229 l 67 -224 m 67 -233 l 69 -233 l 69 -237 l 67 -237 l 67 -233 m 53 -239 l 55 -239 l 55 -243 l 53 -243 l 53 -239 m 54 -245 l 56 -245 q 65 -271 56 -252 q 54 -245 54 -256 z "},"I":{"ha":347,"x_min":0,"x_max":568,"o":"m 566 1279 l 568 1279 q 503 1128 568 1264 q 382 924 455 1034 q 147 352 270 701 q 41 -18 93 199 q 38 -24 41 -24 l 38 -26 l 40 -26 l 40 -28 q 38 -30 40 -30 q 37 -29 38 -29 l 37 -33 l 39 -33 l 39 -33 q 37 -36 39 -36 q 36 -35 37 -35 l 36 -36 l 37 -41 l 35 -40 q 34 -49 35 -41 q 35 -52 35 -51 l 33 -52 l 33 -54 l 34 -59 l 31 -58 q 19 -177 19 -132 l 19 -193 l 17 -193 l 17 -178 q 34 -33 17 -120 l 31 -35 q 31 -33 31 -33 q 20 -96 20 -85 l 18 -96 q 46 51 18 -71 l 46 54 l 45 54 q 36 22 39 22 q 35 23 36 23 l 35 21 q 36 18 36 19 q 33 21 33 18 l 31 21 q 7 -163 7 -98 l 7 -193 l 5 -193 q 3 -166 4 -166 l 1 -166 l 1 -157 q 0 -151 1 -153 q 41 109 0 -88 q 145 436 81 261 q 281 789 212 618 q 123 597 157 645 q 121 599 123 599 l 121 592 l 118 593 q 104 545 104 568 l 102 545 l 102 545 q 123 606 102 570 l 121 606 q 109 589 111 589 l 109 592 q 142 640 124 617 l 142 641 q 134 632 134 634 l 132 632 l 132 635 q 92 553 92 583 l 92 538 l 90 538 l 88 545 l 88 547 l 86 547 l 86 553 q 253 797 86 611 q 319 896 311 868 q 446 1113 360 979 q 462 1133 461 1133 l 463 1133 l 463 1132 l 452 1107 l 452 1106 l 453 1106 q 490 1171 467 1127 l 488 1171 l 484 1168 q 484 1170 484 1170 q 566 1279 504 1208 m 369 939 q 362 924 362 925 q 370 939 363 924 l 370 939 l 369 939 m 344 936 l 319 886 l 319 885 l 319 885 q 345 935 329 899 l 345 936 l 344 936 m 326 847 q 252 680 252 690 l 252 679 l 253 679 q 326 846 313 819 l 326 847 l 326 847 m 248 760 l 248 759 q 251 762 251 759 l 251 762 q 248 760 248 762 m 243 753 l 243 752 q 245 755 245 752 l 245 755 q 243 753 243 755 m 237 747 l 237 746 q 239 748 239 746 l 239 749 q 237 747 237 749 m 232 740 l 232 739 q 235 743 233 739 l 235 743 q 232 740 233 743 m 225 732 l 225 731 q 229 734 227 731 l 229 736 q 225 732 227 736 m 220 726 l 220 724 q 223 728 221 724 l 223 729 q 220 726 221 729 m 212 717 l 212 715 q 216 720 214 715 l 216 722 q 212 717 214 722 m 205 709 l 205 708 q 211 713 207 708 l 211 715 q 205 709 209 715 m 124 610 l 125 610 l 204 706 l 204 707 q 124 610 149 644 m 149 651 l 149 649 l 149 649 l 149 651 l 149 651 m 142 644 l 142 642 q 146 646 144 642 l 146 647 q 142 644 144 647 m 106 582 l 106 580 q 104 578 106 578 l 104 580 q 106 582 104 582 m 104 576 l 104 575 q 100 562 100 564 l 98 562 q 104 576 101 576 m 106 560 l 109 560 l 109 557 l 106 557 l 106 560 m 97 559 l 99 559 l 99 554 l 97 554 l 97 559 m 105 552 l 107 552 l 107 541 l 105 541 l 105 552 m 102 538 l 105 538 l 105 536 l 102 536 l 102 538 m 106 536 l 109 536 l 109 533 l 106 533 l 106 536 m 106 529 l 107 529 l 107 526 l 106 526 l 106 529 m 106 526 l 109 526 l 109 522 q 106 524 106 522 l 106 526 m 90 521 l 93 521 q 102 502 93 519 q 90 521 95 508 m 132 328 l 132 326 l 133 326 l 133 328 l 132 328 m 130 325 l 130 323 l 132 323 l 132 325 l 130 325 m 130 321 l 130 319 l 130 319 l 130 321 l 130 321 m 128 318 l 128 316 l 130 316 l 130 318 l 128 318 m 127 315 l 127 313 l 128 313 l 128 315 l 127 315 m 126 311 q 123 299 126 309 l 123 298 l 124 298 q 127 311 124 300 l 127 311 l 126 311 m 121 297 q 33 -26 71 139 l 33 -28 l 34 -28 q 123 296 75 134 l 123 297 l 121 297 m 52 79 l 52 77 l 52 77 l 52 79 l 52 79 m 50 76 l 50 73 l 52 73 l 52 76 l 50 76 m 50 71 l 50 68 l 50 68 l 50 71 l 50 71 m 48 66 l 48 63 l 50 63 l 50 66 l 48 66 m 47 62 l 47 59 l 48 59 l 48 62 l 47 62 m 46 58 l 46 54 l 47 54 l 47 58 l 46 58 m 33 26 l 33 22 l 34 22 l 34 26 l 33 26 m 31 -1 l 33 -1 l 33 -3 l 31 -3 l 31 -1 m 29 -7 l 31 -7 l 31 -9 l 29 -9 l 29 -7 m 28 -12 l 31 -12 l 31 -14 l 28 -14 l 28 -12 m 31 -29 l 31 -33 l 34 -31 q 35 -33 34 -33 l 35 -29 l 33 -30 q 31 -29 33 -29 m 17 -98 l 19 -98 q 18 -113 19 -99 l 16 -113 q 17 -98 16 -112 m 15 -116 l 17 -116 l 17 -125 l 15 -125 l 15 -116 m 24 -118 l 26 -118 l 26 -120 l 24 -120 l 24 -118 m 14 -129 l 16 -129 l 16 -137 l 14 -137 l 14 -129 m 22 -130 l 24 -130 l 24 -132 l 22 -132 l 22 -130 m 12 -142 l 15 -142 l 15 -153 l 12 -153 l 12 -142 m 22 -142 l 24 -142 l 24 -146 l 22 -146 l 22 -142 m 20 -160 l 22 -160 l 22 -168 l 20 -168 l 20 -160 m 12 -177 l 14 -177 l 14 -184 l 12 -184 l 12 -177 m 1 -194 l 3 -194 l 3 -198 l 1 -198 l 1 -194 m 20 -212 l 22 -212 l 22 -220 l 20 -220 l 20 -212 m 3 -216 l 6 -216 l 6 -218 l 3 -218 l 3 -216 m 5 -224 l 7 -224 l 7 -226 l 5 -226 l 5 -224 m 6 -229 l 8 -229 l 8 -231 l 6 -231 l 6 -229 m 7 -234 l 9 -234 l 16 -255 q 7 -234 11 -249 m 17 -256 l 18 -256 l 18 -258 l 17 -258 l 17 -256 z "},"J":{"ha":693,"x_min":-105,"x_max":1143,"o":"m 1112 1293 l 1112 1293 l 1112 1291 l 1119 1291 l 1119 1289 q 1081 1283 1081 1285 l 1081 1281 l 1079 1281 l 1079 1283 l 1072 1283 l 1072 1282 l 1076 1282 l 1076 1280 q 1061 1278 1061 1280 l 1061 1277 l 1055 1278 l 1055 1278 l 1055 1276 l 1046 1277 l 1046 1274 l 1044 1274 l 1039 1276 l 1039 1274 q 941 1259 1010 1270 q 940 1262 941 1260 q 1046 1278 1036 1278 l 1046 1279 l 1042 1279 l 924 1264 l 924 1262 l 926 1263 l 928 1263 q 932 1259 928 1261 q 931 1257 932 1257 l 922 1257 q 919 1260 919 1258 l 914 1260 l 914 1259 l 920 1257 l 920 1255 l 916 1255 q 914 1257 916 1257 q 899 1255 901 1255 l 899 1253 l 901 1253 l 901 1251 l 897 1251 l 897 1253 l 893 1253 l 893 1252 l 895 1252 l 895 1250 l 892 1250 q 891 1252 892 1252 l 842 1243 l 842 1242 l 845 1242 q 857 1244 854 1244 q 857 1241 857 1243 q 857 1240 857 1241 l 860 1240 l 857 1244 l 860 1246 l 861 1246 q 862 1242 861 1244 q 861 1241 861 1242 l 862 1241 q 1070 1274 1040 1274 l 1070 1274 l 1074 1274 l 1074 1274 l 1072 1274 l 1072 1277 l 1076 1277 q 1077 1274 1076 1274 q 1143 1281 1123 1280 l 1143 1279 q 804 1219 898 1248 q 300 1053 488 1142 q 106 944 193 1002 q 38 892 64 913 l 39 892 q 142 957 90 929 l 143 957 q 13 866 75 917 q -60 785 -45 816 q -79 748 -75 748 l -80 748 q -35 842 -80 783 q 41 915 14 897 q 203 1016 136 987 q 252 1044 233 1031 l 251 1044 q 25 905 125 985 q -87 731 -87 810 l -87 715 l -82 719 l -80 719 l -80 718 q -65 646 -71 646 l -59 625 l -61 623 q -105 726 -105 685 q 171 1019 -105 863 q 618 1199 327 1110 q 886 1262 740 1236 q 904 1264 891 1264 l 904 1263 l 907 1263 l 907 1265 l 907 1267 l 909 1267 l 909 1264 l 1059 1284 l 1059 1286 l 1055 1286 l 1055 1288 l 1060 1288 l 1060 1286 l 1068 1286 l 1068 1286 l 1065 1286 l 1065 1289 l 1070 1289 l 1070 1286 l 1077 1286 l 1076 1289 l 1076 1290 l 1081 1290 l 1081 1288 l 1086 1288 l 1086 1290 l 1088 1291 l 1091 1291 l 1091 1289 l 1098 1289 l 1097 1291 l 1099 1293 l 1102 1293 l 1102 1290 l 1110 1290 l 1109 1293 l 1112 1293 m 640 1200 l 640 1199 l 643 1199 l 643 1200 l 640 1200 m 636 1199 l 636 1198 l 638 1198 l 638 1199 l 636 1199 m 633 1198 l 633 1196 l 635 1196 l 635 1198 l 633 1198 m 628 1196 l 628 1196 l 630 1196 l 630 1196 l 628 1196 m 625 1196 l 625 1194 l 627 1194 l 627 1196 l 625 1196 m 621 1194 l 621 1193 l 623 1193 l 623 1194 l 621 1194 m 617 1193 l 617 1192 l 619 1192 l 619 1193 l 617 1193 m 612 1192 l 612 1191 l 614 1191 l 614 1192 l 612 1192 m 609 1191 l 609 1190 l 612 1190 l 612 1191 l 609 1191 m 602 1189 l 602 1187 l 604 1187 l 604 1189 l 602 1189 m 598 1187 l 598 1187 l 600 1187 l 600 1187 l 598 1187 m 590 1185 l 590 1184 l 593 1184 l 593 1185 l 590 1185 m 587 1184 l 587 1183 l 589 1183 l 589 1184 l 587 1184 m 758 1126 l 758 1126 q 772 1026 768 1122 q 671 557 772 863 l 638 465 l 640 465 q 714 500 691 492 l 715 500 l 715 498 q 628 439 698 484 q 498 151 581 309 l 497 151 l 497 153 l 496 153 q 489 141 491 141 l 489 144 q 545 255 495 158 l 543 256 q 499 170 500 170 q 498 174 499 172 q 503 184 503 182 l 505 182 l 505 184 q 503 184 505 184 l 553 292 l 553 293 l 551 295 l 553 297 l 553 298 l 551 298 q 489 163 509 200 l 489 165 l 488 165 q 486 159 488 163 q 487 156 487 157 l 484 157 q 466 120 468 120 l 466 122 q 569 366 532 263 l 587 413 q 303 195 460 330 q 166 54 210 108 q 38 -179 43 -97 l 38 -197 q 73 -241 38 -235 q 81 -243 74 -243 q 277 -111 154 -243 q 293 -92 293 -94 l 294 -92 l 296 -92 q 298 -85 296 -90 l 300 -85 l 302 -85 q 305 -79 303 -79 q 307 -80 305 -80 q 309 -78 307 -78 l 309 -79 q 289 -104 297 -94 l 292 -104 l 309 -85 l 309 -87 q 231 -172 292 -111 l 233 -172 q 255 -157 236 -168 q 383 7 346 -57 l 402 35 q 404 33 402 33 q 444 102 414 56 l 444 100 q 345 -59 406 28 q 109 -269 210 -238 q 73 -276 89 -276 l 66 -276 q 7 -227 22 -276 q 5 -203 5 -214 q 135 61 5 -105 q 267 206 173 111 l 324 259 l 323 259 q 220 172 291 234 l 220 172 q 372 300 302 252 q 526 399 474 371 l 527 396 q 473 353 473 354 l 475 353 q 571 420 515 382 l 571 422 l 567 422 l 567 423 q 600 445 570 428 q 692 734 648 560 q 720 916 720 877 q 722 918 722 916 l 722 920 l 720 920 q 701 828 716 901 l 699 828 q 744 1038 737 1025 l 746 1038 q 749 1010 748 1030 q 720 800 749 942 q 711 753 714 782 l 711 752 l 711 752 q 753 1031 753 922 q 751 1063 751 1045 l 746 1059 l 745 1059 l 745 1063 q 758 1126 752 1126 m 149 963 l 152 963 l 152 962 l 149 962 l 149 963 m 144 960 l 146 960 l 146 958 l 144 958 l 144 960 m 655 533 l 655 531 l 656 531 l 656 533 l 655 533 m 654 530 l 654 528 l 655 528 l 655 530 l 654 530 m 652 526 l 629 462 l 629 460 l 630 460 l 654 526 l 654 526 l 652 526 m 469 349 l 470 349 q 472 352 472 349 l 471 352 q 469 349 469 351 m 465 347 l 465 346 l 467 346 l 467 347 l 465 347 m 460 344 l 460 342 l 463 342 l 463 344 l 460 344 m 553 302 l 553 299 l 553 299 l 553 302 l 553 302 m 326 260 l 326 260 q 329 262 329 260 l 328 262 q 326 260 326 262 m 354 260 l 354 259 l 357 259 l 357 260 l 354 260 m 348 255 l 348 254 l 350 254 l 350 255 l 348 255 m 340 247 l 341 247 q 345 250 342 247 l 343 250 q 340 247 342 250 m 333 241 l 334 241 q 338 245 336 241 l 336 245 q 333 241 335 245 m 326 235 l 326 235 q 330 238 328 235 l 329 238 q 326 235 327 238 m 317 227 l 317 227 q 322 231 319 227 l 321 231 q 317 227 319 231 m 286 200 l 288 200 q 314 224 314 224 l 313 224 q 286 200 292 207 m 260 176 l 261 176 q 286 199 286 197 l 284 199 q 260 176 260 178 m 174 89 l 174 88 q 256 172 176 89 l 255 172 q 174 89 174 95 m 496 151 l 497 151 l 497 149 l 496 149 l 496 151 m 494 149 l 496 149 l 496 147 l 494 147 l 494 149 m 494 147 l 494 147 l 494 144 l 494 144 l 494 147 m 492 144 l 494 144 l 494 142 l 492 142 l 492 144 m 447 108 l 448 108 l 448 106 l 447 106 l 447 108 m 414 73 l 414 70 q 387 26 399 44 l 387 24 l 391 29 l 391 26 q 324 -66 357 -27 l 324 -64 l 347 -33 l 347 -31 q 343 -30 345 -31 q 342 -31 343 -31 l 342 -30 q 401 56 397 52 l 401 54 l 400 52 l 400 51 l 401 51 q 404 58 401 53 q 404 61 404 60 l 406 62 l 406 60 l 407 60 q 409 63 407 63 l 408 66 l 408 66 l 410 66 q 414 73 410 70 m 404 59 l 404 58 q 401 56 404 56 l 401 57 q 404 59 401 59 m 397 50 l 397 47 l 399 47 l 399 50 l 397 50 m 395 47 l 395 45 l 397 45 l 397 47 l 395 47 m 393 43 q 390 37 393 42 l 390 35 l 391 35 q 395 42 391 37 l 395 43 l 393 43 m 388 35 l 388 33 l 389 33 l 389 35 l 388 35 m 385 31 l 385 29 l 387 29 l 387 31 l 385 31 m 383 28 l 383 26 l 385 26 l 385 28 l 383 28 m 381 24 l 381 22 l 382 22 l 382 24 l 381 24 m 385 23 l 385 21 l 385 21 l 385 23 l 385 23 m 379 21 l 379 19 l 380 19 l 380 21 l 379 21 m 376 18 l 376 16 l 378 16 l 378 18 l 376 18 m 374 14 l 374 12 l 376 12 l 376 14 l 374 14 m 372 11 l 372 9 l 373 9 l 373 11 l 372 11 m 364 -1 l 364 -2 q 371 7 366 -2 l 371 7 q 364 -1 370 7 m 362 -3 l 362 -5 l 363 -5 l 363 -3 l 362 -3 m 351 -20 l 351 -21 q 361 -8 353 -21 l 361 -7 q 351 -20 360 -7 m 354 -19 l 354 -21 l 355 -21 l 355 -19 l 354 -19 m 345 -28 l 345 -29 q 349 -30 347 -29 l 350 -28 l 350 -26 l 348 -26 l 350 -24 l 350 -22 q 345 -28 349 -22 m 351 -24 l 351 -26 l 352 -26 l 352 -24 l 351 -24 m 338 -33 l 341 -33 q 338 -36 341 -36 l 338 -33 m 343 -33 l 345 -33 q 338 -40 340 -40 l 338 -40 q 343 -33 342 -33 m 333 -42 l 336 -43 q 336 -42 336 -42 l 336 -45 l 333 -45 l 333 -42 m 330 -47 l 332 -48 q 333 -47 332 -47 l 333 -49 l 330 -49 l 330 -47 m 326 -52 l 329 -52 q 330 -52 329 -52 l 330 -52 q 328 -55 330 -55 l 326 -55 l 326 -52 m 322 -56 l 323 -56 q 326 -58 326 -56 l 326 -59 l 322 -59 l 322 -56 m 319 -61 l 321 -62 q 322 -61 321 -61 l 322 -62 q 319 -66 322 -64 l 319 -61 m 319 -66 l 319 -67 q 313 -73 319 -68 l 313 -67 l 314 -67 l 317 -68 q 319 -66 317 -66 m 323 -67 l 323 -68 q 321 -70 323 -70 l 321 -69 q 323 -67 321 -67 m 309 -73 l 310 -73 l 312 -73 q 313 -73 312 -73 l 313 -73 q 309 -78 313 -75 l 309 -73 m 311 -81 l 312 -81 l 312 -83 l 311 -83 l 311 -81 m 222 -180 l 223 -180 q 227 -176 224 -180 l 227 -176 q 222 -180 224 -176 m 215 -186 l 216 -186 q 218 -184 218 -186 l 218 -184 q 215 -186 215 -184 m 31 -185 l 31 -194 q 31 -210 31 -205 l 33 -210 l 33 -205 q 31 -185 31 -195 l 31 -185 m 208 -185 l 208 -186 l 210 -186 l 210 -185 l 208 -185 m 202 -189 l 202 -191 l 204 -191 l 204 -189 l 202 -189 m 208 -191 l 208 -191 l 211 -191 l 211 -191 l 208 -191 m 196 -194 l 196 -195 l 199 -195 l 199 -194 l 196 -194 m 203 -195 l 203 -196 l 205 -196 l 205 -195 l 203 -195 m 192 -197 l 192 -198 l 194 -198 l 194 -197 l 192 -197 m 197 -199 l 197 -201 l 199 -201 l 199 -199 l 197 -199 m 187 -201 l 187 -201 l 190 -201 l 190 -201 l 187 -201 m 183 -205 l 184 -205 q 186 -203 186 -205 l 185 -203 q 183 -205 183 -203 m 180 -206 l 180 -207 l 182 -207 l 182 -206 l 180 -206 m 189 -206 l 189 -207 l 191 -207 l 191 -206 l 189 -206 m 175 -210 l 175 -210 l 177 -210 l 177 -210 l 175 -210 m 172 -212 l 172 -213 l 174 -213 l 174 -212 l 172 -212 m 33 -213 l 33 -215 l 34 -215 l 34 -213 l 33 -213 m 168 -214 l 168 -215 l 171 -215 l 171 -214 l 168 -214 m 159 -219 l 159 -220 l 161 -220 q 168 -217 165 -217 l 168 -216 l 166 -216 q 159 -219 161 -219 m 34 -217 l 34 -218 q 35 -222 35 -220 l 36 -222 l 36 -220 q 35 -217 35 -218 l 34 -217 m 156 -222 l 156 -222 l 159 -222 l 159 -222 l 156 -222 m 36 -222 l 36 -224 q 79 -250 49 -250 q 147 -229 104 -250 l 147 -229 l 146 -229 q 83 -248 108 -248 l 75 -248 q 37 -222 50 -248 l 36 -222 m 149 -226 l 149 -227 l 149 -227 q 155 -225 153 -225 l 155 -224 l 154 -224 q 149 -226 151 -226 m 1046 1286 l 1050 1286 l 1050 1284 l 1046 1284 l 1046 1286 m 1037 1286 l 1039 1286 l 1039 1283 l 1037 1283 l 1037 1286 m 1065 1282 l 1065 1281 l 1069 1281 l 1069 1282 l 1065 1282 m 1008 1282 l 1010 1282 l 1010 1280 l 1008 1280 l 1008 1282 m 1055 1281 l 1055 1280 l 1061 1280 l 1061 1281 l 1055 1281 m 999 1281 l 1001 1281 l 1001 1279 l 999 1279 l 999 1281 m 1046 1280 l 1046 1279 l 1053 1279 l 1053 1280 l 1046 1280 m 990 1280 l 994 1280 l 994 1278 l 990 1278 l 990 1280 m 982 1279 l 985 1279 l 985 1277 l 982 1277 l 982 1279 m 975 1278 l 978 1278 l 978 1276 l 975 1276 l 975 1278 m 968 1277 l 970 1277 l 970 1274 l 968 1274 l 968 1277 m 1063 1274 l 1063 1272 l 1067 1272 l 1067 1274 l 1063 1274 m 920 1269 l 922 1269 l 922 1267 l 920 1267 l 920 1269 m 913 1267 l 916 1267 l 916 1265 l 913 1265 l 913 1267 m 932 1264 l 933 1264 l 933 1262 l 932 1262 l 932 1264 m 921 1261 l 921 1260 q 923 1258 923 1260 l 928 1258 q 926 1261 926 1260 l 921 1261 m 933 1262 l 939 1262 q 940 1259 939 1261 l 937 1258 l 935 1258 l 933 1262 m 909 1259 l 909 1258 l 911 1258 l 911 1259 l 909 1259 m 902 1258 l 902 1257 l 904 1257 l 904 1258 l 902 1258 m 909 1255 l 913 1255 l 913 1253 l 909 1253 l 909 1255 m 904 1255 l 907 1255 l 907 1252 l 904 1252 l 904 1255 m 886 1251 l 888 1251 l 888 1249 l 886 1249 l 886 1251 m 881 1250 l 883 1250 l 883 1248 l 881 1248 l 881 1250 m 864 1246 l 865 1246 l 865 1243 l 864 1243 l 864 1246 m 836 1242 l 836 1241 l 841 1241 l 841 1242 l 836 1242 m 832 1241 l 832 1240 l 835 1240 l 835 1241 l 832 1241 m 826 1240 l 826 1239 l 829 1239 l 829 1240 l 826 1240 m 852 1240 l 852 1239 l 854 1239 l 854 1240 l 852 1240 m 821 1239 l 821 1238 l 823 1238 l 823 1239 l 821 1239 m 846 1239 l 846 1238 l 848 1238 l 848 1239 l 846 1239 m 817 1238 l 817 1236 l 819 1236 l 819 1238 l 817 1238 m 810 1236 l 810 1236 l 813 1236 l 813 1236 l 810 1236 m 805 1236 l 805 1234 l 807 1234 l 807 1236 l 805 1236 z "},"K":{"ha":856,"x_min":-50,"x_max":1348,"o":"m 1348 1274 l 1348 1274 q 1261 1213 1328 1255 q 890 975 1124 1124 q 431 665 667 831 q 420 659 424 659 l 420 656 q 412 653 415 653 l 413 651 q 404 648 408 648 l 405 646 q 396 642 399 642 l 397 640 q 389 637 392 637 l 389 634 l 389 633 q 380 631 384 631 l 382 629 l 382 628 q 361 616 366 616 l 361 614 l 361 613 q 340 602 346 602 l 342 600 l 342 599 l 340 599 l 337 600 l 336 597 q 337 597 337 597 l 333 597 l 334 594 l 334 593 l 328 593 l 330 591 l 330 590 l 328 590 l 325 591 l 324 589 q 325 588 325 589 l 318 587 q 452 684 361 621 q 451 686 451 684 q 446 684 447 684 l 509 731 l 507 731 l 483 715 q 482 719 482 718 q 336 611 440 690 q 319 594 328 611 q 317 587 317 587 q 318 585 318 587 q 288 519 313 583 q 267 472 285 513 q 361 474 276 473 q 364 473 364 474 l 372 474 l 430 474 q 677 448 478 474 q 739 434 698 444 q 688 456 739 438 l 688 458 l 689 458 q 755 431 703 458 q 791 393 784 405 l 791 391 q 789 389 791 389 q 641 437 731 415 l 639 437 l 633 436 l 633 435 q 730 410 678 428 q 793 376 777 391 l 796 376 l 800 380 q 810 353 806 380 q 804 335 807 335 l 802 335 q 778 361 788 359 q 698 399 749 382 q 467 439 654 418 q 351 448 366 448 q 349 452 349 451 l 338 452 l 330 451 l 330 453 l 313 453 l 313 451 l 305 451 l 305 453 l 309 453 l 309 454 l 290 454 l 290 452 l 278 452 l 278 454 l 285 454 l 285 455 l 259 455 q 33 -62 96 90 q -20 -219 21 -89 q -26 -231 -25 -231 l -26 -231 q -22 -213 -26 -229 l -22 -212 l -23 -212 l -30 -238 l -33 -238 q 16 -95 -17 -175 q 12 -94 14 -95 q 0 -125 2 -124 l 0 -123 q 40 -16 11 -85 l 40 -14 l 39 -14 q 28 -41 37 -21 l 26 -40 l 26 -42 l 23 -42 l 24 -40 l 24 -39 l 23 -39 q -35 -213 -35 -193 l -37 -214 q -38 -213 -37 -213 l -38 -215 q -37 -218 -37 -217 l -39 -217 l -48 -260 l -50 -260 q 83 135 -42 -172 q 237 479 237 471 l 235 479 l 229 479 l 229 481 l 237 481 q 243 493 239 481 l 235 493 l 235 495 l 245 495 l 269 554 q 212 501 248 533 q 212 498 212 498 q 229 496 224 496 l 231 496 l 231 494 l 229 494 q 210 495 223 494 q 208 493 210 493 l 208 492 q 225 491 219 491 l 231 491 l 231 488 l 199 488 l 199 488 l 201 488 l 201 486 l 200 484 q 201 483 201 484 q 200 482 200 483 l 201 482 q 231 484 209 482 l 231 482 q 197 473 226 479 q 175 469 186 469 l 170 469 q 158 474 158 470 l 158 479 q 197 528 158 484 q 212 549 197 530 l 212 550 q 197 542 200 542 q 243 563 214 558 l 245 563 q 247 561 247 563 q 199 513 233 541 l 199 511 l 200 511 q 255 562 252 558 l 255 563 l 253 566 q 276 572 256 570 q 382 861 328 697 l 382 863 l 380 863 q 326 731 334 743 l 326 732 l 442 1029 q 450 1044 448 1044 l 451 1044 l 451 1043 q 336 684 451 979 q 309 614 316 643 l 309 613 l 309 613 q 442 982 397 820 q 464 1078 454 1026 l 462 1078 l 458 1075 l 458 1075 q 488 1170 458 1088 l 489 1170 q 491 1168 491 1169 l 491 1163 q 328 611 491 1003 l 328 610 q 648 848 553 784 q 986 1076 757 918 q 1035 1109 1033 1109 l 1035 1109 l 1034 1109 q 943 1057 1009 1097 l 941 1057 q 1106 1153 1023 1111 q 1198 1199 1157 1181 l 1198 1196 q 878 988 1069 1109 l 876 985 l 877 985 q 1236 1215 1231 1211 q 1232 1218 1232 1215 q 1299 1253 1239 1225 q 1348 1274 1337 1272 m 382 866 l 382 864 l 383 864 l 383 866 l 382 866 m 623 806 l 623 805 l 625 805 l 625 806 l 623 806 m 620 804 l 620 802 l 622 802 l 622 804 l 620 804 m 606 793 l 606 793 l 608 793 l 608 793 l 606 793 m 602 791 l 602 790 l 604 790 l 604 791 l 602 791 m 599 789 l 599 788 l 601 788 l 601 789 l 599 789 m 595 787 l 595 786 l 597 786 l 597 787 l 595 787 m 588 780 l 589 780 q 594 785 594 783 l 593 785 q 588 780 588 782 m 585 779 l 585 778 l 587 778 l 587 779 l 585 779 m 581 777 l 581 776 l 583 776 l 583 777 l 581 777 m 578 774 l 578 774 l 580 774 l 580 774 l 578 774 m 573 770 l 574 770 q 576 772 576 770 l 576 772 q 573 770 573 772 m 570 769 l 570 768 l 572 768 l 572 769 l 570 769 m 566 767 l 566 766 l 569 766 l 569 767 l 566 767 m 564 765 l 564 764 l 566 764 l 566 765 l 564 765 m 559 760 l 560 760 q 562 762 562 760 l 561 762 q 559 760 559 762 m 555 759 l 555 758 l 557 758 l 557 759 l 555 759 m 552 757 l 552 755 l 554 755 l 554 757 l 552 757 m 549 755 l 549 753 l 551 753 l 551 755 l 549 755 m 545 752 l 545 751 l 548 751 l 548 752 l 545 752 m 541 749 l 541 748 l 543 748 l 543 749 l 541 749 m 538 747 l 538 746 l 540 746 l 540 747 l 538 747 m 534 745 l 534 743 l 536 743 l 536 745 l 534 745 m 531 743 l 531 741 l 533 741 l 533 743 l 531 743 m 517 739 l 517 738 l 519 738 l 519 739 l 517 739 m 510 732 l 511 732 q 517 736 516 735 l 515 736 q 510 732 510 734 m 523 736 l 523 736 l 526 736 l 526 736 l 523 736 m 519 734 l 519 734 l 522 734 l 522 734 l 519 734 m 509 727 l 509 726 l 511 726 l 511 727 l 509 727 m 505 724 l 505 724 l 507 724 l 507 724 l 505 724 m 484 720 l 486 720 q 488 722 488 720 l 486 722 q 484 720 484 722 m 491 715 l 491 713 l 493 713 l 493 715 l 491 715 m 467 705 l 469 705 l 469 703 l 467 703 l 467 705 m 473 703 l 473 701 l 475 701 l 475 703 l 473 703 m 462 701 l 464 701 l 464 700 l 462 700 l 462 701 m 461 699 q 405 659 414 663 q 461 699 451 695 m 444 682 q 437 677 442 677 q 444 682 439 682 m 435 677 l 436 677 q 434 675 436 675 l 433 675 q 435 677 433 677 m 430 673 l 432 673 l 432 672 l 430 672 l 430 673 m 427 671 l 429 671 q 427 669 429 669 l 425 669 q 427 671 425 671 m 422 668 l 424 668 l 424 667 l 422 667 l 422 668 m 417 665 l 420 665 l 420 663 l 417 663 l 417 665 m 414 663 l 416 663 l 416 661 l 414 661 l 414 663 m 410 659 l 412 659 l 412 658 l 410 658 l 410 659 m 403 658 l 404 658 q 402 656 404 656 l 401 656 q 403 658 401 658 m 397 654 l 399 654 l 399 653 l 397 653 l 397 654 m 393 651 l 395 651 l 395 650 l 393 650 l 393 651 m 397 650 l 399 650 l 399 649 l 397 649 l 397 650 m 385 646 l 387 646 l 387 644 l 385 644 l 385 646 m 380 642 l 383 642 l 383 641 l 380 641 l 380 642 m 222 500 l 224 500 l 224 498 l 222 498 l 222 500 m 182 495 l 182 494 l 189 494 l 189 495 l 182 495 m 217 488 l 225 488 l 225 486 l 217 486 l 217 488 m 287 470 l 287 469 l 290 469 l 290 470 l 287 470 m 262 458 l 273 458 q 363 453 313 458 q 368 455 363 455 l 368 456 l 357 456 l 357 454 q 349 458 354 458 l 349 460 l 357 458 q 408 458 374 458 l 414 458 l 414 458 q 391 460 408 458 l 391 460 l 392 463 q 391 464 391 463 q 392 465 392 464 q 321 467 366 467 l 305 467 q 281 467 297 467 l 281 469 l 267 469 q 262 458 264 469 m 302 465 l 317 465 l 317 463 l 302 463 l 302 465 m 330 464 l 332 464 q 376 463 342 464 l 376 460 q 330 462 345 462 l 330 464 m 284 462 l 290 462 l 290 460 l 284 460 l 284 462 m 317 460 l 323 460 l 323 458 l 317 458 l 317 460 m 370 455 l 370 454 l 380 454 l 380 455 l 370 455 m 383 454 l 383 453 l 392 453 l 392 454 l 383 454 m 394 453 l 394 452 l 402 452 l 402 453 l 394 453 m 406 452 l 406 451 l 413 451 l 413 452 l 406 452 m 418 451 l 418 450 l 424 450 l 424 451 l 418 451 m 431 450 l 431 448 l 435 448 l 435 450 l 431 450 m 443 448 l 443 448 l 446 448 l 446 448 l 443 448 m 455 448 l 455 446 l 458 446 l 458 448 l 455 448 m 151 227 l 151 224 l 151 224 l 151 227 l 151 227 m 147 219 q 144 214 147 217 l 144 212 l 146 212 q 148 218 146 214 l 148 219 l 147 219 m 142 209 q 140 203 142 208 l 140 203 l 141 203 q 144 208 141 205 l 144 209 l 142 209 m 139 201 q 21 -73 87 84 l 21 -75 l 22 -75 q 140 200 73 47 l 140 201 l 139 201 m 43 -3 l 43 -5 l 45 -5 l 45 -3 l 43 -3 m 41 -9 q 40 -12 41 -10 l 40 -14 l 41 -14 q 42 -10 41 -12 l 42 -9 l 41 -9 m 26 -30 l 26 -33 l 28 -33 l 28 -30 l 26 -30 m 24 -36 l 24 -38 l 26 -38 l 26 -36 l 24 -36 m 26 -42 l 26 -42 l 26 -45 l 26 -45 l 26 -42 m 24 -43 l 26 -45 l 26 -47 q 22 -45 24 -45 q 24 -43 22 -43 m 17 -83 l 17 -85 l 18 -85 l 21 -76 q 17 -83 20 -76 m 14 -78 l 14 -79 q -3 -121 -1 -121 l -3 -120 q 14 -78 7 -87 m 18 -85 l 18 -88 l 19 -88 l 19 -85 l 18 -85 m 14 -88 l 14 -90 l 16 -90 l 16 -88 l 14 -88 m 16 -92 l 16 -94 l 17 -94 l 17 -92 l 16 -92 m -3 -123 l -3 -123 q -9 -137 -7 -137 l -9 -136 q -3 -123 -5 -123 m -17 -172 l -14 -172 q -28 -214 -28 -212 l -30 -214 l -17 -172 m -17 -191 l -17 -194 l -16 -194 l -16 -191 l -17 -191 m -18 -195 l -18 -197 l -17 -197 l -17 -195 l -18 -195 m -19 -198 l -19 -201 l -18 -201 l -18 -198 l -19 -198 m -20 -201 l -20 -203 l -19 -203 l -19 -201 l -20 -201 m -21 -205 l -21 -207 l -20 -207 l -20 -205 l -21 -205 m -22 -208 l -22 -210 l -21 -210 l -21 -208 l -22 -208 z "},"L":{"ha":1279,"x_min":-87,"x_max":1297,"o":"m 810 1281 l 813 1281 q 819 1270 819 1278 q 803 1203 819 1265 l 817 1223 l 817 1221 q 770 1161 814 1205 q 766 1160 768 1160 l 766 1161 q 793 1230 769 1173 q 756 1152 787 1221 l 756 1151 q 761 1149 759 1151 q 728 1120 751 1137 q 726 1122 726 1120 l 726 1123 l 743 1164 l 735 1156 l 733 1156 l 733 1152 l 730 1153 q 730 1147 730 1152 l 727 1149 q 726 1143 726 1147 l 724 1144 q 723 1143 724 1143 l 724 1141 l 724 1139 l 723 1139 l 721 1140 l 721 1134 l 720 1134 l 718 1135 l 718 1131 l 715 1132 q 714 1126 714 1130 q 711 1128 711 1126 l 711 1130 l 739 1168 l 737 1168 q 733 1164 737 1167 l 733 1165 l 753 1194 l 751 1194 q 739 1181 751 1190 q 737 1184 739 1184 l 706 1137 l 705 1137 l 707 1141 l 707 1142 l 706 1142 q 694 1122 706 1138 l 694 1124 q 744 1210 725 1175 q 810 1281 790 1275 m 732 1171 l 733 1171 l 733 1168 l 732 1168 l 732 1171 m 724 1160 l 725 1160 l 725 1158 l 724 1158 l 724 1160 m 736 1114 l 737 1112 q 566 858 674 994 q 475 751 504 784 q 71 76 202 314 q -43 -203 -43 -137 l -43 -205 q -44 -206 -43 -206 q -16 -238 -44 -238 l -12 -238 q 624 87 105 -238 l 754 167 l 756 165 l 758 165 l 758 167 l 755 167 q 758 169 755 169 l 760 168 l 761 168 l 761 169 l 758 169 l 758 170 q 763 172 760 170 l 765 172 l 766 172 l 766 172 l 764 172 q 766 175 764 175 l 768 174 l 770 174 l 770 175 l 767 175 q 770 177 768 177 l 772 176 q 779 179 777 179 l 779 180 l 777 180 q 779 182 777 182 l 781 181 q 1211 456 930 275 l 1213 456 q 1053 349 1185 435 l 1053 349 l 1053 349 q 1057 349 1055 349 q 1049 344 1057 347 l 1046 345 l 1046 345 l 1046 344 l 1048 344 q 1046 342 1048 342 l 1044 342 q 1040 342 1041 342 l 1040 340 l 1041 340 q 1044 342 1043 342 q 850 215 994 306 l 850 214 l 851 214 l 952 278 l 954 278 q 726 132 901 242 l 724 132 q 753 150 739 143 l 753 151 l 752 151 q 570 39 642 81 l 570 38 l 572 38 l 661 92 l 663 90 l 664 90 l 664 92 l 662 92 q 664 94 662 94 l 666 92 l 671 96 l 673 96 q 662 88 673 94 l 662 87 l 663 87 q 1119 382 825 187 q 1122 380 1121 380 q 1297 495 1242 463 q 842 191 1227 446 l 519 -17 q -23 -278 96 -278 l -34 -278 q -84 -241 -72 -278 q -87 -219 -87 -229 q 114 239 -87 -114 q 233 448 187 370 l 233 448 l 232 448 q 112 257 204 408 q 103 245 104 245 l 103 247 q 345 622 224 453 l 343 622 q 210 496 257 545 q 203 488 203 490 l 202 488 l 199 488 q 196 482 199 482 q 195 483 196 483 q 194 482 195 482 l 195 479 l 195 477 l 194 477 l 192 479 q 191 477 192 477 l 192 475 l 192 474 l 190 475 q 189 474 190 474 l 190 472 l 190 471 l 187 472 l 186 470 q 187 467 187 467 l 185 465 q 184 467 185 467 q 174 439 174 447 l 172 439 q 208 502 172 458 q 225 519 209 502 q 294 585 294 583 l 293 585 q 182 473 199 500 l 182 475 q 204 504 190 488 q 203 507 203 507 l 204 507 l 206 507 q 224 526 214 514 l 223 526 q 215 519 222 526 l 215 524 q 161 429 161 469 l 161 427 l 159 427 l 159 439 l 156 439 q 180 493 158 459 q 274 595 200 522 q 430 745 342 651 q 465 789 444 768 l 465 787 q 463 783 463 785 q 517 857 494 819 l 517 858 l 499 840 l 499 842 l 520 867 l 519 867 l 513 864 l 513 866 q 642 1050 530 897 q 690 1111 683 1105 l 692 1109 q 608 966 667 1061 q 650 1012 638 1001 l 652 1012 l 652 1010 q 527 837 624 958 l 527 836 q 668 1024 591 910 q 675 1036 668 1025 q 671 1038 671 1036 q 734 1113 684 1060 l 736 1114 m 392 659 l 392 658 l 393 658 q 408 682 393 659 l 408 684 q 392 659 404 680 m 390 656 q 389 653 390 656 l 389 652 l 390 652 q 391 656 390 653 l 391 656 l 390 656 m 387 651 q 386 648 387 650 l 386 647 l 387 647 q 388 650 387 648 l 388 651 l 387 651 m 383 646 l 383 644 l 385 644 l 385 646 l 383 646 m 380 640 l 380 637 l 381 637 l 381 640 l 380 640 m 376 634 l 376 632 l 378 632 l 378 634 l 376 634 m 343 630 l 345 630 q 348 633 346 630 l 347 633 q 343 630 345 633 m 326 613 l 327 613 q 333 620 328 613 l 332 620 q 326 613 330 620 m 311 600 l 312 600 q 319 606 313 600 l 317 606 q 311 600 316 606 m 296 587 l 298 587 q 307 595 299 587 l 305 595 q 296 587 304 595 m 196 500 l 197 500 l 197 498 l 196 498 l 196 500 m 180 472 l 180 470 q 178 467 180 467 l 178 470 q 180 472 179 472 m 1223 465 l 1226 465 l 1226 464 l 1223 464 l 1223 465 m 1221 463 l 1223 463 l 1223 462 l 1221 462 l 1221 463 m 1217 460 l 1219 460 l 1219 460 l 1217 460 l 1217 460 m 174 458 l 174 456 q 172 454 174 454 l 172 456 q 174 458 172 458 m 1214 458 l 1216 458 l 1216 458 l 1214 458 l 1214 458 m 172 453 l 172 450 l 170 450 l 170 451 q 172 453 170 453 m 263 448 l 263 446 l 264 446 l 264 448 l 263 448 m 168 444 l 170 444 l 170 442 l 168 442 l 168 444 m 260 443 l 260 441 l 261 441 l 261 443 l 260 443 m 174 439 l 176 439 l 176 434 l 174 434 l 174 439 m 256 437 l 256 435 l 258 435 l 258 437 l 256 437 m 171 436 l 173 436 l 173 432 l 171 432 l 171 436 m 254 434 l 254 432 l 255 432 l 255 434 l 254 434 m 155 429 l 157 429 l 157 427 l 155 427 l 155 429 m 251 429 l 251 427 l 252 427 l 252 429 l 251 429 m 173 429 l 175 429 l 175 424 l 173 424 l 173 429 m 248 423 l 248 420 l 249 420 l 249 423 l 248 423 m 155 420 l 157 420 l 157 418 l 155 418 l 155 420 m 245 420 q 244 416 245 418 l 244 415 l 245 415 q 246 418 245 416 l 246 420 l 245 420 m 171 417 l 173 417 l 173 412 l 171 412 l 171 417 m 242 414 q 241 411 242 413 l 241 410 l 242 410 q 243 413 242 411 l 243 414 l 242 414 m 1138 413 l 1140 413 l 1140 412 l 1138 412 l 1138 413 m 156 411 l 159 411 q 163 392 159 408 q 156 411 159 392 m 239 408 q 34 54 34 72 q 29 45 32 54 q 142 245 45 70 l 239 408 l 239 408 l 239 408 m 1119 401 l 1121 401 l 1121 399 l 1119 399 l 1119 401 m 1103 391 l 1105 391 l 1105 389 l 1103 389 l 1103 391 m 1070 370 l 1072 370 l 1072 368 l 1070 368 l 1070 370 m 1081 366 l 1082 366 q 1080 364 1082 364 l 1079 364 q 1081 366 1080 366 m 1077 364 l 1079 364 l 1079 363 l 1077 363 l 1077 364 m 1055 359 l 1057 359 l 1057 358 l 1055 358 l 1055 359 m 1065 356 l 1067 356 q 1065 354 1067 354 l 1063 354 q 1065 356 1064 356 m 1062 354 l 1063 354 q 1061 352 1063 352 l 1060 352 q 1062 354 1061 354 m 1059 352 l 1060 352 q 1058 349 1060 349 l 1057 349 q 1059 352 1057 352 m 1039 349 l 1041 349 l 1041 349 l 1039 349 l 1039 349 m 1049 347 l 1049 346 l 1051 346 l 1051 347 l 1049 347 m 1027 342 l 1029 342 l 1029 340 l 1027 340 l 1027 342 m 1037 340 l 1037 338 l 1039 338 l 1039 340 l 1037 340 m 1023 340 l 1025 340 l 1025 338 l 1023 338 l 1023 340 m 1034 337 l 1034 336 l 1036 336 l 1036 337 l 1034 337 m 1030 335 l 1030 334 l 1032 334 l 1032 335 l 1030 335 m 1025 332 l 1025 330 l 1025 330 q 1029 332 1027 332 l 1029 333 l 1028 333 q 1025 332 1025 332 m 1011 332 l 1013 332 l 1013 330 l 1011 330 l 1011 332 m 1021 330 l 1021 328 l 1023 328 l 1023 330 l 1021 330 m 1018 327 l 1018 326 l 1020 326 l 1020 327 l 1018 327 m 1013 324 l 1013 323 l 1013 323 q 1017 324 1015 324 l 1017 325 l 1016 325 q 1013 324 1013 324 m 999 324 l 1001 324 l 1001 323 l 999 323 l 999 324 m 1009 321 l 1009 321 l 1011 321 l 1011 321 l 1009 321 m 996 321 l 998 321 l 998 321 l 996 321 l 996 321 m 1006 319 l 1006 318 l 1008 318 l 1008 319 l 1006 319 m 1002 317 l 1002 316 l 1004 316 l 1004 317 l 1002 317 m 997 314 l 997 313 l 999 313 l 999 314 l 997 314 m 1009 315 l 1011 315 l 1011 314 l 1009 314 l 1009 315 m 983 314 l 985 314 l 985 313 l 983 313 l 983 314 m 994 311 l 994 311 l 996 311 l 996 311 l 994 311 m 980 311 l 982 311 l 982 311 l 980 311 l 980 311 m 990 309 l 990 309 l 992 309 l 992 309 l 990 309 m 985 306 l 985 305 l 987 305 l 987 306 l 985 306 m 971 306 l 973 306 l 973 305 l 971 305 l 971 306 m 981 304 l 981 302 l 983 302 l 983 304 l 981 304 m 994 305 l 996 305 l 996 304 l 994 304 l 994 305 m 968 304 l 970 304 l 970 302 l 968 302 l 968 304 m 978 302 l 978 300 l 980 300 l 980 302 l 978 302 m 990 302 l 992 302 l 992 302 l 990 302 l 990 302 m 987 300 l 989 300 l 989 299 l 987 299 l 987 300 m 983 298 l 985 298 l 985 297 l 983 297 l 983 298 m 969 296 l 969 295 l 971 295 l 971 296 l 969 296 m 956 296 l 958 296 l 958 295 l 956 295 l 956 296 m 966 294 l 966 293 l 968 293 l 968 294 l 966 294 m 978 295 l 980 295 l 980 294 l 978 294 l 978 295 m 952 294 l 954 294 l 954 293 l 952 293 l 952 294 m 975 293 l 977 293 l 977 292 l 975 292 l 975 293 m 960 290 l 960 290 l 962 290 l 962 290 l 960 290 m 971 290 l 973 290 l 973 290 l 971 290 l 971 290 m 957 288 l 957 287 l 959 287 l 959 288 l 957 288 m 943 288 l 945 288 l 945 287 l 943 287 l 943 288 m 968 288 l 970 288 q 961 281 970 287 l 959 281 q 968 288 959 283 m 954 286 l 954 285 l 956 285 l 956 286 l 954 286 m 940 286 l 942 286 l 942 285 l 940 285 l 940 286 m 947 283 l 947 281 l 950 281 l 950 283 l 947 283 m 944 281 l 944 279 l 947 279 l 947 281 l 944 281 m 931 281 l 933 281 l 933 279 l 931 279 l 931 281 m 956 281 l 958 281 l 958 279 l 956 279 l 956 281 m 939 277 l 939 276 l 940 276 q 943 277 942 277 l 943 278 l 942 278 q 939 277 940 277 m 928 278 l 930 278 l 930 277 l 928 277 l 928 278 m 935 275 l 935 274 l 938 274 l 938 275 l 935 275 m 932 273 l 932 271 l 935 271 l 935 273 l 932 273 m 926 269 l 926 268 l 928 268 q 931 269 930 269 l 931 271 l 930 271 q 926 269 928 269 m 916 271 l 918 271 l 918 269 l 916 269 l 916 271 m 923 267 l 923 266 l 926 266 l 926 267 l 923 267 m 914 262 l 914 260 l 916 260 q 922 264 920 264 l 922 265 l 921 265 q 914 262 916 262 m 903 262 l 905 262 l 905 262 l 903 262 l 903 262 m 911 259 l 911 258 l 913 258 l 913 259 l 911 259 m 902 254 l 902 252 l 903 252 q 910 256 908 256 l 910 257 l 909 257 q 902 254 903 254 m 888 252 l 890 252 l 890 252 l 888 252 l 888 252 m 785 181 q 786 178 786 179 q 901 250 888 243 l 901 252 l 900 252 q 785 181 796 186 m 846 212 l 846 212 l 848 212 l 848 212 l 846 212 m 838 207 l 838 206 l 839 206 q 845 209 844 209 l 845 210 l 844 210 q 838 207 839 207 m 834 205 l 834 203 l 836 203 l 836 205 l 834 205 m 831 203 l 831 201 l 833 201 l 833 203 l 831 203 m 825 199 l 825 198 l 826 198 q 829 199 829 199 l 829 200 l 829 200 q 825 199 827 199 m 822 197 l 822 196 l 824 196 l 824 197 l 822 197 m 819 195 l 819 194 l 821 194 l 821 195 l 819 195 m 815 193 l 815 191 l 817 191 l 817 193 l 815 193 m 810 189 l 810 188 l 812 188 l 812 189 l 810 189 m 806 187 l 806 186 l 808 186 l 808 187 l 806 187 m 803 184 l 803 184 l 805 184 l 805 184 l 803 184 m 780 184 l 782 184 l 782 182 l 780 182 l 780 184 m 798 181 l 798 180 l 798 180 q 802 181 801 181 l 802 182 l 801 182 q 798 181 799 181 m 794 179 l 794 178 l 796 178 l 796 179 l 794 179 m 770 178 l 773 178 l 773 177 l 770 177 l 770 178 m 791 177 l 791 176 l 793 176 l 793 177 l 791 177 m 785 174 l 785 172 l 786 172 q 789 174 789 174 l 789 175 l 789 175 q 785 174 786 174 m 773 172 l 773 170 l 775 170 l 775 172 l 773 172 m 782 172 l 782 170 l 784 170 l 784 172 l 782 172 m 779 169 l 779 168 l 781 168 l 781 169 l 779 169 m 767 168 l 767 167 l 770 167 l 770 168 l 767 168 m 770 163 l 770 163 l 770 163 q 777 165 776 165 l 777 167 l 777 167 q 770 163 771 163 m 758 163 l 758 161 l 760 161 q 766 165 765 165 l 766 165 l 765 165 q 758 163 760 163 m 766 161 l 766 160 l 768 160 l 768 161 l 766 161 m 271 -129 l 271 -130 l 272 -130 q 758 159 441 -37 l 758 160 l 756 160 q 289 -120 508 5 q 271 -129 273 -129 m 754 153 l 754 153 l 755 153 q 765 158 764 158 l 765 159 l 764 159 q 754 153 755 153 m 721 130 l 723 130 l 723 129 l 721 129 l 721 130 m 718 128 l 720 128 q 718 125 720 125 l 715 125 q 718 128 715 128 m 711 125 l 714 125 l 714 123 l 711 123 l 711 125 m 708 122 l 711 122 l 711 121 l 708 121 l 708 122 m 674 100 l 676 100 l 676 99 l 674 99 l 674 100 m 675 98 l 676 98 q 674 96 676 96 l 673 96 q 675 98 673 98 m 668 97 l 671 97 l 671 96 l 668 96 l 668 97 m 667 96 l 668 96 q 666 94 668 94 l 665 94 q 667 96 665 96 m 659 85 l 659 85 l 661 85 l 661 85 l 659 85 m 565 35 l 565 35 l 566 35 q 569 35 568 35 l 569 37 l 568 37 q 565 35 566 35 m 258 -136 l 258 -137 l 260 -137 q 270 -132 268 -132 l 270 -132 l 269 -132 q 258 -136 260 -136 m 246 -142 l 246 -144 l 248 -144 q 255 -140 253 -140 l 255 -139 l 254 -139 q 246 -142 249 -142 m 230 -151 l 230 -153 l 231 -153 q 237 -151 235 -151 l 237 -149 l 235 -149 q 230 -151 232 -151 m 209 -163 l 209 -163 l 210 -163 q 220 -159 218 -159 l 220 -158 l 218 -158 q 209 -163 210 -163 m 157 -188 l 157 -189 l 159 -189 q 164 -187 162 -187 l 164 -186 l 163 -186 q 157 -188 159 -188 z "},"M":{"ha":1011,"x_min":-32,"x_max":1089,"o":"m 613 1280 q 615 1277 615 1280 q 570 1072 584 1164 q 555 795 555 962 l 555 746 q 554 699 555 728 l 551 699 l 551 562 l 549 562 q 547 633 549 616 q 549 656 549 641 l 549 684 l 547 690 l 549 690 l 549 699 l 547 699 l 547 729 l 546 729 l 546 675 l 545 667 l 543 667 l 543 703 q 542 759 543 720 l 541 759 q 538 724 541 724 q 535 722 536 722 l 535 698 q 537 594 537 618 l 536 594 q 538 535 538 556 q 554 504 543 535 q 562 488 555 504 q 584 515 583 512 l 585 515 l 587 514 q 591 521 589 521 q 592 519 591 519 q 596 524 592 522 l 596 523 q 587 513 589 513 q 589 510 589 511 q 597 519 589 510 l 597 517 q 584 498 597 516 l 584 498 q 589 504 589 500 l 591 504 l 591 501 l 592 501 q 610 526 597 505 l 610 526 l 610 524 l 610 522 q 610 519 610 520 q 574 462 590 473 q 549 452 561 452 q 513 476 540 452 l 511 471 l 513 460 l 511 460 q 508 472 508 460 q 520 504 508 484 l 523 505 q 544 471 532 496 q 547 472 546 472 l 547 473 q 530 512 538 482 l 522 511 l 522 512 q 537 534 529 526 q 524 741 533 572 q 520 816 522 741 q 532 1073 527 1037 l 532 1074 l 530 1074 q 359 732 486 983 q 143 274 236 485 q 18 -58 73 115 q 8 -88 12 -85 l 8 -92 l 7 -92 l 7 -92 l 8 -95 q 6 -96 6 -95 q 7 -99 7 -98 l 5 -98 l 5 -100 q 6 -104 6 -102 l 4 -102 q -15 -235 -15 -178 l -17 -235 l -17 -215 q -16 -194 -17 -206 l -16 -193 l -17 -193 l -17 -198 l -20 -198 l -20 -197 q -14 -160 -20 -192 l -12 -160 l -12 -163 l -10 -163 l -10 -158 l -13 -158 l -13 -155 l -12 -155 l -9 -156 q 18 -47 -3 -115 q 16 -43 16 -45 l 18 -45 l 18 -43 q 18 -40 18 -41 l 20 -41 l 20 -40 q 18 -37 18 -38 l 21 -38 l 21 -37 q 20 -33 20 -35 l 22 -35 l 22 -33 q 21 -30 21 -31 l 23 -31 l 23 -30 l 22 -28 q 51 58 25 -16 l 51 59 l 50 59 q 30 4 31 5 l 30 5 q 32 12 30 7 l 32 14 l 31 14 l 31 11 l 30 11 l 30 14 q 51 75 39 41 l 51 76 l 50 76 q 34 33 50 73 l 32 35 l 32 33 q 33 30 33 31 l 31 31 l 31 30 q 32 26 32 28 l 27 29 q 26 24 27 26 l 26 23 l 27 23 q 30 26 27 26 l 31 24 l 31 23 l 28 24 l 28 23 q 30 20 30 21 l 25 22 q -25 -201 -25 -135 l -27 -201 l -27 -185 l -29 -185 l -29 -178 l -27 -178 l -27 -180 l -26 -180 l -26 -174 l -28 -174 q 50 122 -28 -113 q 197 465 107 275 q 456 1010 281 646 l 456 1012 l 455 1012 q 374 863 379 868 l 374 865 q 554 1187 460 1037 q 578 1234 568 1210 q 613 1280 593 1259 m 1087 1224 q 1089 1222 1089 1224 l 1089 1221 q 995 849 1089 1184 q 891 260 891 458 l 891 247 q 897 178 891 205 l 895 178 l 895 175 l 897 175 l 896 169 q 900 146 896 163 l 898 146 q 886 222 886 189 l 886 228 l 884 228 l 884 290 l 884 290 q 882 243 884 252 q 890 159 884 205 l 888 159 q 878 268 878 210 q 879 298 878 276 l 879 306 l 878 306 q 877 262 877 272 l 874 262 q 871 268 874 268 l 871 264 q 924 71 871 131 l 924 70 l 922 70 q 869 188 884 101 q 861 283 861 244 l 861 309 q 960 863 861 441 q 992 998 983 958 l 992 998 l 991 998 q 956 884 977 956 l 954 884 q 1014 1069 979 982 q 1018 1078 1015 1069 l 1018 1078 l 1017 1078 q 736 656 957 966 q 702 609 732 654 l 701 609 l 699 610 q 696 601 699 606 l 695 601 l 693 602 q 692 601 693 601 l 693 599 l 693 597 l 692 597 l 690 597 l 690 593 l 688 594 q 686 593 688 593 l 688 591 l 688 589 l 686 589 l 684 590 l 684 585 l 682 587 q 681 581 681 585 l 679 582 q 677 581 679 581 l 679 578 l 679 578 l 676 578 q 675 573 675 577 l 673 574 q 672 573 673 573 l 673 571 l 673 569 l 672 569 l 669 570 l 669 566 l 667 566 q 666 561 666 565 l 664 562 q 663 561 664 561 l 664 559 l 664 557 l 662 559 q 657 553 660 553 l 657 554 q 728 652 690 604 l 725 652 q 697 616 724 652 l 697 618 l 755 701 l 755 703 q 740 682 740 684 q 738 686 738 682 q 659 570 701 635 l 656 571 q 633 538 647 555 l 633 540 q 799 793 758 733 q 980 1088 906 942 l 980 1088 q 943 1036 973 1080 l 943 1038 q 1030 1159 976 1094 l 1037 1164 l 1039 1163 q 955 1010 1021 1118 q 938 981 939 990 q 1017 1111 955 1002 q 1051 1177 1051 1174 l 1051 1179 l 1050 1179 l 1048 1177 l 1047 1180 l 1047 1181 q 1087 1224 1055 1194 m 574 1215 l 574 1211 l 575 1211 l 575 1215 l 574 1215 m 1055 1146 q 1042 1106 1045 1129 q 959 797 1042 1097 q 958 786 959 795 l 958 783 l 959 783 q 1056 1145 988 896 l 1056 1146 l 1055 1146 m 563 1144 q 544 1038 544 1053 l 544 1031 q 554 1095 548 1031 l 564 1143 l 564 1144 l 563 1144 m 536 1132 q 533 1122 536 1130 l 533 1121 l 534 1121 q 537 1130 534 1124 l 537 1132 l 536 1132 m 525 1109 q 381 819 485 1021 q 334 722 343 750 l 334 720 l 334 720 q 526 1107 479 1008 l 526 1109 l 525 1109 m 549 877 l 549 846 l 549 846 l 549 877 l 549 877 m 547 830 l 547 755 l 549 755 l 549 830 l 547 830 m 844 823 l 844 821 l 846 821 l 846 823 l 844 823 m 842 819 l 842 817 l 843 817 l 843 819 l 842 819 m 840 816 l 840 814 l 841 814 l 841 816 l 840 816 m 837 811 l 837 809 l 838 809 l 838 811 l 837 811 m 834 808 l 834 806 l 836 806 l 836 808 l 834 808 m 832 805 l 832 802 l 833 802 l 833 805 l 832 805 m 830 802 l 830 799 l 831 799 l 831 802 l 830 802 m 827 798 l 827 795 l 829 795 l 829 798 l 827 798 m 825 793 l 825 791 l 825 791 l 825 793 l 825 793 m 822 790 l 822 788 l 823 788 l 823 790 l 822 790 m 820 787 l 820 785 l 821 785 l 821 787 l 820 787 m 814 779 l 814 777 l 815 777 l 815 779 l 814 779 m 812 776 l 812 774 l 813 774 l 813 776 l 812 776 m 762 713 l 762 711 l 763 711 l 763 713 l 762 713 m 538 711 l 541 711 q 542 631 542 660 l 542 625 l 539 625 l 539 627 q 538 711 539 646 m 759 708 l 759 707 q 761 709 761 707 l 761 710 q 759 708 759 710 m 756 706 l 756 703 l 758 703 l 758 706 l 756 706 m 728 669 l 730 669 l 730 667 l 728 667 l 728 669 m 728 665 l 728 665 q 721 656 724 656 l 721 656 q 728 665 725 665 m 720 654 l 720 653 q 700 625 703 628 l 700 627 q 720 654 716 652 m 544 652 l 546 652 l 546 602 l 544 602 l 544 652 m 697 625 l 699 625 l 699 622 l 697 622 l 697 625 m 696 621 l 696 620 q 694 618 696 618 l 694 618 q 696 621 694 621 m 692 616 l 693 616 l 693 614 l 692 614 l 692 616 m 696 616 l 696 614 q 692 609 694 609 l 692 610 q 696 616 694 615 m 690 613 l 691 613 l 691 611 l 690 611 l 690 613 m 690 608 l 691 608 l 691 606 l 690 606 l 690 608 m 684 606 l 685 606 l 685 604 l 684 604 l 684 606 m 684 600 l 685 600 l 685 597 l 684 597 l 684 600 m 537 592 l 539 592 l 539 587 l 537 587 l 537 592 m 631 536 l 632 536 l 632 534 l 631 534 l 631 536 m 596 529 l 598 528 q 600 529 598 529 l 600 528 q 596 524 600 526 l 596 529 m 600 523 l 601 523 l 601 521 l 600 521 l 600 523 m 610 523 l 612 523 l 612 521 l 610 521 l 610 523 m 578 501 l 578 498 l 579 498 l 579 501 l 578 501 m 572 492 l 572 491 q 574 493 574 491 l 574 494 q 572 492 572 494 m 566 486 l 566 484 q 568 486 568 484 l 568 488 q 566 486 566 487 m 901 454 l 901 452 l 902 452 l 902 454 l 901 454 m 900 448 l 900 444 l 901 444 l 901 448 l 900 448 m 899 441 l 899 436 l 900 436 l 900 441 l 899 441 m 898 434 l 898 427 l 899 427 l 899 434 l 898 434 m 897 427 q 886 333 890 374 l 886 326 l 888 326 q 898 423 888 347 l 898 427 l 897 427 m 886 325 l 886 311 l 886 311 l 886 325 l 886 325 m 879 314 l 879 307 l 880 307 l 880 314 l 879 314 m 884 309 l 884 294 l 886 294 l 886 309 l 884 309 m 871 290 l 871 287 l 872 287 l 872 290 l 871 290 m 127 254 l 127 252 l 129 252 l 129 254 l 127 254 m 124 246 l 124 243 l 125 243 l 125 246 l 124 246 m 121 238 q 120 235 121 237 l 120 234 l 121 234 q 122 237 121 235 l 122 238 l 121 238 m 876 236 l 878 236 l 878 224 l 876 224 l 876 236 m 119 233 q 117 227 119 231 l 117 226 l 117 226 q 120 231 117 228 l 120 233 l 119 233 m 115 224 l 75 125 l 75 125 l 77 125 q 117 224 95 175 l 117 224 l 115 224 m 877 216 l 879 216 l 879 207 l 877 207 l 877 216 m 878 203 l 880 203 l 880 198 l 878 198 l 878 203 m 879 191 l 881 191 l 881 189 l 879 189 l 879 191 m 898 161 l 900 161 q 920 104 905 146 l 920 104 q 898 160 907 123 l 898 161 m 889 157 l 891 157 l 891 155 l 889 155 l 889 157 m 893 142 l 896 142 l 905 116 q 893 142 901 118 m 74 123 q 73 120 74 122 l 73 119 l 74 119 q 75 122 74 120 l 75 123 l 74 123 m 72 118 q 71 115 72 117 l 71 113 l 72 113 q 73 117 72 115 l 73 118 l 72 118 m 70 113 q 67 106 70 111 l 67 104 l 68 104 q 71 111 68 106 l 71 113 l 70 113 m 913 109 q 924 92 915 109 l 924 92 l 924 92 q 913 109 919 92 m 66 104 q 65 100 66 102 l 65 99 l 66 99 q 67 102 66 100 l 67 104 l 66 104 m 58 99 q 58 96 58 98 l 58 94 l 58 94 q 60 98 58 96 l 60 99 l 58 99 m 64 98 q 62 92 64 96 l 62 90 l 63 90 q 65 97 63 92 l 65 98 l 64 98 m 56 94 q 54 87 56 92 l 54 85 l 55 85 q 58 92 55 87 l 58 94 l 56 94 m 61 89 q 60 85 61 87 l 60 85 l 61 85 q 62 88 61 85 l 62 89 l 61 89 m 53 85 q 52 81 53 83 l 52 80 l 53 80 q 54 83 53 81 l 54 85 l 53 85 m 58 83 l 58 81 l 60 81 l 60 83 l 58 83 m 58 80 q 56 77 58 79 l 56 76 l 58 76 q 58 79 58 77 l 58 80 l 58 80 m 51 79 l 51 77 l 52 77 l 52 79 l 51 79 m 55 75 l 55 73 l 56 73 l 56 75 l 55 75 m 54 71 q 51 61 54 69 l 51 60 l 52 60 q 55 70 52 62 l 55 71 l 54 71 m 30 35 l 30 33 l 31 33 l 31 35 l 30 35 m 28 33 l 28 30 l 30 30 l 30 33 l 28 33 m 22 -8 l 23 -8 q 25 -10 25 -8 l 25 -12 q 22 -10 23 -10 l 22 -8 m 22 -12 q 24 -14 24 -12 l 24 -14 q 22 -12 22 -14 l 22 -12 m 16 -16 l 18 -16 l 18 -21 l 15 -21 l 16 -16 m 20 -16 l 21 -16 q 23 -18 23 -16 l 21 -18 l 21 -19 l 22 -21 q 20 -22 20 -21 l 21 -24 q -6 -134 6 -70 l -8 -134 q 20 -16 -8 -110 m 12 -30 l 14 -30 l 14 -33 l 12 -33 l 12 -30 m 9 -38 l 12 -38 l 11 -43 l 8 -43 l 9 -38 m 6 -49 l 8 -49 l 8 -52 l 6 -52 l 6 -49 m 2 -64 l 4 -64 l 4 -67 l 2 -67 l 2 -64 m -1 -127 l 2 -127 l 2 -129 l -1 -129 l -1 -127 m -1 -132 l 1 -132 l 1 -136 l -1 -136 l -1 -132 m -9 -136 l -7 -136 l -7 -139 l -9 -139 l -9 -136 m -3 -138 l -1 -138 l -12 -224 l -14 -224 q -3 -138 -14 -202 m -13 -165 l -13 -170 l -12 -170 l -12 -165 l -13 -165 m -14 -172 l -14 -176 l -13 -176 l -13 -172 l -14 -172 m -15 -178 l -15 -182 l -14 -182 l -14 -178 l -15 -178 m -16 -186 l -16 -191 l -15 -191 l -15 -186 l -16 -186 m -31 -188 l -28 -188 q -29 -226 -29 -214 q -28 -256 -29 -234 l -31 -256 q -32 -231 -32 -239 l -32 -224 q -31 -188 -32 -212 m -29 -260 l -27 -260 l -27 -262 l -29 -262 l -29 -260 z "},"N":{"ha":1017,"x_min":-81,"x_max":1153,"o":"m 1147 1246 l 1149 1246 q 973 625 1058 863 q 806 237 893 382 q 568 23 676 23 l 565 23 q 408 186 469 23 q 360 515 360 329 q 362 589 360 537 l 362 593 l 361 593 q 353 475 353 530 l 357 351 l 355 351 l 355 353 q 350 433 350 398 l 350 464 q 422 884 350 666 l 422 886 l 421 886 q 66 161 181 428 q -27 -75 7 25 q -45 -131 -42 -131 q -44 -134 -44 -133 l -46 -133 l -46 -135 l -44 -135 l -44 -137 l -45 -137 l -47 -136 q -54 -166 -54 -161 l -56 -166 q -25 -54 -46 -112 q -26 -50 -26 -52 l -24 -52 l -24 -50 q -25 -47 -25 -48 l -22 -48 l -22 -47 q -24 -43 -24 -45 l -22 -45 l -22 -43 l -24 -43 q 14 54 -24 -41 l 14 56 l 13 56 q -56 -147 -26 -36 l -58 -147 q 11 64 -39 -58 q 14 71 12 64 l 14 73 l 13 73 q -14 9 -12 11 l -14 11 l -13 14 l -13 14 l -14 14 l -14 12 l -15 12 l -15 16 q -14 19 -15 17 l -14 20 l -15 20 q -73 -201 -73 -142 l -75 -201 l -75 -199 q -74 -174 -75 -191 l -76 -174 l -76 -173 q -74 -171 -76 -171 q -73 -172 -74 -172 l -73 -168 l -75 -168 q -35 -10 -75 -143 q 97 312 21 158 q 405 949 222 574 l 405 950 l 404 950 q 326 810 385 918 l 324 810 l 324 812 q 474 1071 402 964 q 506 1114 487 1095 l 507 1114 q 314 728 507 1093 q 288 673 296 696 l 288 673 l 290 673 q 525 1135 455 991 q 526 1139 526 1138 l 525 1139 l 521 1138 l 519 1140 q 564 1194 525 1156 l 565 1194 q 568 1192 568 1194 q 507 1050 568 1181 q 410 510 410 755 l 410 488 q 477 144 410 281 q 581 60 524 60 q 816 327 680 60 q 1010 824 921 538 q 1017 841 1015 841 q 1018 840 1017 840 l 1018 841 q 1017 844 1017 843 l 1019 843 l 1019 844 q 1018 848 1018 846 l 1020 846 l 1020 848 q 1019 851 1019 850 l 1021 850 l 1021 851 q 1020 854 1020 853 l 1023 853 l 1023 855 l 1020 855 l 1020 858 l 1021 858 l 1023 857 q 1112 1164 1061 968 l 1114 1164 q 1088 1062 1107 1133 l 1088 1061 l 1089 1061 q 1090 1067 1089 1061 l 1093 1067 q 1038 884 1080 1019 l 1036 884 l 1036 884 l 1037 881 l 1035 881 q 1036 877 1035 880 q 1033 873 1036 873 l 1033 872 l 1034 870 l 1031 870 l 1031 869 l 1033 867 q 1030 865 1030 867 q 1031 862 1031 863 l 1029 863 l 1029 861 l 1030 859 q 1028 858 1028 859 q 1029 854 1029 856 l 1027 855 l 1027 854 q 1028 851 1028 852 l 1026 852 l 1026 851 q 1027 848 1027 849 l 1025 849 l 1023 843 q 1025 840 1025 841 l 1023 841 l 1023 839 l 1025 839 q 932 559 996 728 l 932 557 l 933 557 q 952 604 950 604 l 952 602 l 954 602 q 957 609 954 609 l 957 608 q 954 597 957 606 l 954 597 l 954 597 q 1096 1057 1028 795 l 1099 1057 l 1095 1044 l 1095 1042 l 1096 1042 l 1147 1246 m 452 945 q 436 898 436 913 q 388 592 388 671 q 385 494 385 548 q 416 222 385 334 q 422 208 418 222 l 423 208 l 423 211 q 388 474 388 334 l 388 502 q 454 943 388 715 l 454 945 l 452 945 m 983 718 q 981 720 983 720 l 981 718 q 983 715 983 716 l 980 716 l 980 715 q 981 711 981 713 l 979 713 l 979 711 l 980 709 q 978 708 978 709 l 979 706 q 779 245 882 425 l 779 244 l 781 244 q 985 720 873 399 l 983 718 m 118 296 l 118 294 l 119 294 l 119 296 l 118 296 m 113 284 q 110 279 113 282 l 110 277 l 111 277 q 113 283 111 279 l 113 284 l 113 284 m 108 274 q 103 264 108 273 l 103 263 l 104 263 q 109 273 104 265 l 109 274 l 108 274 m 102 262 q 14 58 53 153 l 14 57 l 15 57 q 103 261 61 168 l 103 262 l 102 262 m 777 243 q 776 239 777 242 l 776 239 l 777 239 q 779 242 777 240 l 779 243 l 777 243 m 772 233 l 772 231 l 772 231 l 772 233 l 772 233 m -14 23 l -14 21 l -13 21 l -13 23 l -14 23 m -13 18 l -13 16 l -12 16 l -12 18 l -13 18 m -15 9 l -14 9 l -14 7 q -17 0 -15 0 l -17 1 q -15 9 -17 1 m -60 -150 l -57 -150 l -57 -152 l -60 -152 l -60 -150 m -60 -154 l -58 -154 l -58 -156 l -60 -156 l -60 -154 m -52 -159 l -50 -159 l -50 -162 l -52 -162 l -52 -159 m -53 -164 l -51 -164 q -57 -222 -56 -208 l -60 -222 q -53 -164 -60 -210 m -57 -169 l -55 -169 l -55 -173 l -57 -173 l -57 -169 m -64 -175 l -62 -175 l -62 -178 l -64 -178 l -64 -175 m -58 -178 l -56 -178 l -56 -180 l -58 -180 l -58 -178 m -65 -182 l -63 -182 l -63 -186 l -65 -186 l -65 -182 m -66 -190 l -64 -190 l -64 -194 l -66 -194 l -66 -190 m -67 -200 l -65 -200 l -65 -202 l -67 -202 l -67 -200 m -81 -216 l -79 -216 l -79 -235 l -81 -235 l -81 -216 m -63 -222 l -60 -222 l -60 -241 l -63 -241 l -63 -222 m -79 -238 l -77 -238 q -73 -264 -77 -245 q -79 -238 -77 -264 m 1151 1259 l 1153 1259 l 1153 1257 l 1151 1257 l 1151 1259 m 1149 1255 l 1152 1255 l 1152 1253 l 1149 1253 l 1149 1255 m 1149 1251 l 1151 1251 l 1151 1248 l 1149 1248 l 1149 1251 m 1114 1173 l 1116 1173 l 1116 1171 l 1114 1171 l 1114 1173 m 1113 1169 l 1115 1169 l 1115 1166 l 1113 1166 l 1113 1169 m 1099 1066 l 1101 1066 l 1101 1064 l 1099 1064 l 1099 1066 m 1097 1062 l 1099 1062 l 1099 1059 l 1097 1059 l 1097 1062 m 1087 1059 l 1087 1056 l 1088 1056 l 1088 1059 l 1087 1059 m 1086 1055 l 1086 1053 l 1087 1053 l 1087 1055 l 1086 1055 m 1085 1052 l 1085 1050 l 1086 1050 l 1086 1052 l 1085 1052 m 1084 1047 l 1084 1045 l 1085 1045 l 1085 1047 l 1084 1047 m 1083 1044 l 1083 1042 l 1084 1042 l 1084 1044 l 1083 1044 m 1094 1040 l 1094 1038 l 1095 1038 l 1095 1040 l 1094 1040 m 1093 1036 l 1093 1033 l 1094 1033 l 1094 1036 l 1093 1036 m 1092 1031 l 1092 1029 l 1093 1029 l 1093 1031 l 1092 1031 m 1090 1027 l 1090 1025 l 1092 1025 l 1092 1027 l 1090 1027 m 1089 1023 l 1089 1021 l 1090 1021 l 1090 1023 l 1089 1023 m 1088 1019 l 1088 1016 l 1089 1016 l 1089 1019 l 1088 1019 m 1087 1014 l 1087 1012 l 1088 1012 l 1088 1014 l 1087 1014 m 1061 943 l 1063 943 l 1063 941 l 1061 941 l 1061 943 m 1058 936 l 1061 936 l 1061 934 l 1058 934 l 1058 936 m 1055 924 l 1057 924 l 1057 922 l 1055 922 l 1055 924 m 1053 917 l 1055 917 l 1054 911 l 1052 911 l 1053 917 m 1037 912 l 1039 912 l 1039 910 l 1037 910 l 1037 912 m 1050 909 l 1053 909 q 969 650 1015 779 l 968 650 l 968 651 q 1050 909 1019 804 m 1034 901 l 1036 901 l 1036 899 l 1034 899 l 1034 901 m 1029 886 l 1031 886 l 1031 884 l 1029 884 l 1029 886 m 1025 872 l 1027 872 l 1027 870 l 1025 870 l 1025 872 m 1021 838 l 1021 836 l 1023 836 l 1023 838 l 1021 838 m 1020 834 l 1020 832 l 1021 832 l 1021 834 l 1020 834 m 1019 831 q 985 726 1019 828 l 988 726 l 1020 830 l 1020 831 l 1019 831 m 983 725 l 983 720 l 985 723 q 987 722 985 722 l 987 725 l 985 724 q 983 725 985 725 m 1126 608 l 1127 608 l 1127 606 l 1126 606 l 1126 608 m 951 601 l 951 599 l 952 599 l 952 601 l 951 601 m 952 595 l 952 593 l 954 593 l 954 595 l 952 595 m 931 557 q 930 553 931 555 l 930 552 l 931 552 q 932 555 931 553 l 932 557 l 931 557 m 929 551 l 929 549 l 930 549 l 930 551 l 929 551 m 928 547 q 926 545 928 547 l 926 543 l 928 543 q 929 547 928 545 l 929 547 l 928 547 m 926 542 q 924 538 926 541 l 924 538 l 926 538 q 926 541 926 538 l 926 542 l 926 542 m 923 536 l 923 534 l 924 534 l 924 536 l 923 536 m 921 531 l 921 528 l 922 528 l 922 531 l 921 531 m 919 526 l 919 523 l 920 523 l 920 526 l 919 526 m 917 519 l 917 517 l 918 517 l 918 519 l 917 519 m 913 512 l 913 510 l 914 510 l 914 512 l 913 512 z "},"O":{"ha":1272,"x_min":0,"x_max":1312,"o":"m 1109 1274 q 1263 1201 1209 1274 q 1312 1019 1312 1136 q 1219 621 1312 858 q 1086 365 1170 504 q 987 220 1036 285 l 987 218 q 1114 396 1067 313 q 1142 436 1141 436 l 1142 435 q 1009 239 1091 345 q 876 90 964 179 q 722 -40 749 -28 l 720 -40 l 795 39 l 794 39 q 657 -84 724 -30 l 657 -85 l 664 -85 l 664 -86 q 614 -121 646 -105 q 471 -197 522 -177 l 469 -197 l 469 -195 q 595 -109 492 -176 q 773 47 675 -48 q 869 146 812 83 q 1078 435 1019 326 q 1213 720 1143 537 q 1270 1008 1270 882 q 1159 1223 1270 1175 q 1097 1234 1126 1234 l 1078 1234 q 849 1166 994 1234 l 846 1168 q 800 1145 803 1145 q 853 1173 817 1157 l 853 1175 l 852 1175 q 846 1173 848 1173 q 920 1204 864 1183 l 920 1206 l 919 1206 q 761 1131 829 1170 l 760 1131 q 943 1220 850 1185 q 995 1236 991 1236 l 995 1237 l 994 1237 q 949 1225 991 1237 l 948 1225 l 948 1226 l 950 1226 l 950 1227 l 949 1227 q 935 1223 938 1223 q 947 1228 935 1225 l 947 1229 l 946 1229 q 720 1116 868 1204 q 606 1040 645 1067 l 604 1040 l 628 1059 l 627 1059 q 464 936 625 1059 l 463 936 q 629 1062 548 1008 l 630 1062 l 629 1059 l 630 1059 q 632 1062 632 1059 l 630 1062 q 637 1067 632 1066 l 639 1066 l 640 1066 l 640 1067 l 638 1067 q 640 1069 638 1069 l 642 1069 l 644 1069 l 644 1069 l 642 1069 q 889 1216 763 1158 q 1109 1274 1016 1274 m 1041 1247 l 1041 1246 l 1046 1246 l 1046 1247 l 1041 1247 m 1026 1244 l 1026 1244 l 1028 1244 q 1038 1244 1034 1244 l 1038 1246 l 1035 1246 q 1026 1244 1029 1244 m 1015 1242 l 1015 1242 l 1017 1242 q 1025 1242 1021 1242 l 1025 1244 l 1022 1244 l 1015 1242 m 998 1232 l 998 1230 l 1000 1230 q 1091 1242 1049 1242 q 1261 1123 1216 1242 l 1261 1119 l 1263 1119 l 1263 1120 q 1192 1217 1241 1186 q 1102 1242 1150 1242 l 1078 1242 q 998 1232 1049 1242 m 1005 1240 l 1005 1239 l 1007 1239 l 1014 1240 l 1014 1242 l 1012 1242 l 1005 1240 m 1000 1239 l 1000 1238 l 1004 1238 l 1004 1239 l 1000 1239 m 996 1238 l 996 1237 l 1000 1237 l 1000 1238 l 996 1238 m 960 1235 l 960 1234 l 962 1234 l 962 1235 l 960 1235 m 951 1232 l 951 1230 l 953 1230 q 959 1232 957 1232 l 959 1234 l 958 1234 q 951 1232 954 1232 m 948 1230 l 948 1229 l 950 1229 l 950 1230 l 948 1230 m 994 1230 l 994 1229 l 997 1229 l 997 1230 l 994 1230 m 989 1229 l 989 1228 l 993 1228 l 993 1229 l 989 1229 m 951 1228 l 951 1227 l 954 1227 l 954 1228 l 951 1228 m 974 1225 l 974 1223 l 976 1223 q 988 1227 984 1227 l 988 1228 l 987 1228 l 974 1225 m 966 1223 l 966 1221 l 968 1221 q 972 1223 970 1223 l 972 1223 l 970 1223 q 966 1223 968 1223 m 962 1221 l 962 1220 l 965 1220 l 965 1221 l 962 1221 m 959 1220 l 959 1219 l 962 1219 l 962 1220 l 959 1220 m 949 1217 l 949 1216 l 950 1216 q 958 1218 955 1218 l 958 1219 l 956 1219 q 949 1217 951 1217 m 946 1216 l 946 1215 l 948 1215 l 948 1216 l 946 1216 m 943 1215 l 943 1213 l 945 1213 l 945 1215 l 943 1215 m 930 1210 l 930 1209 l 931 1209 q 941 1213 939 1213 l 941 1213 l 940 1213 q 930 1210 932 1210 m 927 1209 l 927 1208 l 929 1208 l 929 1209 l 927 1209 m 922 1207 l 922 1206 l 922 1206 q 926 1207 924 1207 l 926 1208 l 924 1208 q 922 1207 922 1207 m 846 1166 l 848 1166 l 848 1166 l 846 1166 l 846 1166 m 843 1166 l 846 1166 l 846 1164 l 843 1164 l 843 1166 m 841 1164 l 843 1164 l 843 1163 l 841 1163 l 841 1164 m 839 1163 l 841 1163 l 841 1162 l 839 1162 l 839 1163 m 837 1162 l 839 1162 l 839 1161 l 837 1161 l 837 1162 m 834 1161 l 837 1161 l 837 1160 l 834 1160 l 834 1161 m 832 1160 l 834 1160 l 834 1159 l 832 1159 l 832 1160 m 830 1159 l 832 1159 l 832 1158 l 830 1158 l 830 1159 m 827 1158 l 830 1158 l 830 1157 l 827 1157 l 827 1158 m 825 1157 l 827 1157 l 827 1156 l 825 1156 l 825 1157 m 823 1156 l 825 1156 l 825 1154 l 823 1154 l 823 1156 m 821 1154 l 823 1154 l 823 1154 l 821 1154 l 821 1154 m 819 1154 l 821 1154 l 821 1152 l 819 1152 l 819 1154 m 799 1144 q 785 1138 799 1141 q 799 1144 785 1141 m 782 1135 q 773 1131 782 1133 q 782 1135 773 1134 m 758 1130 q 751 1126 758 1126 q 758 1130 753 1130 m 765 1128 l 768 1128 l 768 1126 l 765 1126 l 765 1128 m 751 1125 q 743 1120 751 1124 l 741 1120 q 751 1125 745 1125 m 760 1124 l 762 1124 l 762 1123 l 760 1123 l 760 1124 m 751 1120 l 754 1120 l 754 1119 l 751 1119 l 751 1120 m 737 1119 l 739 1119 q 737 1116 739 1116 l 735 1116 q 737 1119 735 1119 m 746 1116 l 749 1116 q 746 1114 749 1114 l 744 1114 q 746 1116 744 1116 m 732 1116 l 734 1116 q 732 1113 734 1113 l 730 1113 q 732 1116 730 1116 m 726 1112 l 728 1112 q 726 1109 728 1109 l 724 1109 q 726 1112 724 1112 m 739 1112 l 741 1112 q 739 1109 741 1109 l 736 1109 q 739 1112 736 1112 m 720 1109 l 723 1109 q 718 1104 723 1107 l 715 1104 q 720 1109 715 1105 m 730 1107 l 733 1107 q 730 1105 733 1105 l 728 1105 q 730 1107 728 1107 m 725 1104 l 727 1104 l 727 1103 l 725 1103 l 725 1104 m 711 1103 l 714 1103 q 708 1099 713 1101 l 706 1099 q 711 1103 706 1100 m 720 1101 l 722 1101 l 722 1100 l 720 1100 l 720 1101 m 716 1099 l 718 1099 q 716 1097 718 1097 l 714 1097 q 716 1099 714 1099 m 703 1097 l 705 1097 l 705 1097 l 703 1097 l 703 1097 m 699 1095 l 701 1095 l 701 1094 l 699 1094 l 699 1095 m 711 1095 l 713 1095 q 707 1090 713 1094 l 705 1090 q 711 1095 705 1093 m 701 1090 l 704 1090 q 701 1088 704 1088 l 699 1088 q 701 1090 700 1090 m 758 1090 q 760 1088 758 1088 q 697 1034 751 1078 q 585 940 650 1002 q 404 763 562 925 l 321 665 q 208 503 248 570 q 104 301 137 385 q 43 30 43 145 l 43 23 q 175 -227 43 -165 q 206 -238 206 -235 l 212 -238 l 212 -239 l 218 -238 l 216 -240 q 250 -243 236 -243 l 269 -243 q 286 -242 275 -243 l 286 -244 q 263 -247 267 -247 q 174 -232 209 -247 l 172 -233 q 146 -220 170 -233 q 56 -106 87 -191 q 36 16 36 -48 l 36 29 q 37 67 36 45 l 37 70 l 36 70 q 33 18 36 62 q 89 -174 33 -97 q 149 -225 125 -215 q 254 -251 190 -251 l 263 -251 l 263 -254 l 261 -254 q 119 -213 168 -254 q 77 -170 92 -191 l 77 -169 l 76 -169 l 76 -170 q 117 -216 79 -180 l 116 -216 l 111 -213 l 111 -214 q 116 -220 116 -219 l 114 -220 q 89 -200 108 -217 l 89 -201 q 242 -261 148 -261 q 350 -244 288 -261 q 328 -252 350 -248 l 328 -254 l 329 -254 q 454 -203 387 -237 q 464 -201 463 -201 q 347 -251 427 -225 q 235 -269 280 -269 q 60 -192 131 -269 q 0 3 0 -117 q 130 450 0 197 q 268 666 185 550 q 334 749 311 722 l 334 751 q 237 638 294 711 q 214 610 216 610 l 214 611 q 353 779 246 663 q 533 936 465 886 q 550 945 545 945 q 457 848 526 918 l 457 846 q 602 981 549 937 l 602 983 l 595 983 l 595 984 q 664 1034 616 1004 q 758 1090 736 1080 m 696 1086 l 699 1086 q 526 967 606 1026 l 526 967 q 696 1086 602 1029 m 669 1075 l 671 1075 l 671 1074 l 669 1074 l 669 1075 m 666 1073 l 668 1073 l 668 1072 l 666 1072 l 666 1073 m 663 1071 l 665 1071 l 665 1069 l 663 1069 l 663 1071 m 676 1069 l 678 1069 l 678 1069 l 676 1069 l 676 1069 m 659 1069 l 661 1069 l 661 1067 l 659 1067 l 659 1069 m 673 1067 l 675 1067 l 675 1066 l 673 1066 l 673 1067 m 656 1066 l 658 1066 l 658 1065 l 656 1065 l 656 1066 m 633 1064 l 633 1063 l 635 1063 l 635 1064 l 633 1064 m 669 1065 l 671 1065 l 671 1064 l 669 1064 l 669 1065 m 652 1064 l 654 1064 l 654 1063 l 652 1063 l 652 1064 m 668 1063 q 561 989 568 991 q 668 1063 662 1063 m 651 1062 q 607 1031 625 1041 q 651 1062 627 1048 m 602 1038 l 604 1038 q 601 1036 604 1036 l 600 1036 q 602 1038 600 1038 m 598 1035 l 599 1035 q 597 1033 599 1033 l 595 1033 q 598 1035 596 1035 m 592 1031 l 595 1031 l 595 1031 l 592 1031 l 592 1031 m 606 1031 q 599 1026 604 1026 q 606 1031 601 1031 m 595 1025 l 598 1025 l 598 1024 l 595 1024 l 595 1025 m 592 1023 l 595 1023 l 595 1022 l 592 1022 l 592 1023 m 557 988 l 560 988 l 560 987 l 557 987 l 557 988 m 557 987 l 557 987 q 554 984 557 985 l 553 984 q 557 987 553 985 m 552 984 l 553 984 q 551 981 553 981 l 550 981 q 552 984 550 984 m 521 965 l 523 965 l 523 964 l 521 964 l 521 965 m 460 934 l 460 934 q 458 931 460 931 l 457 931 q 460 934 458 934 m 453 929 l 455 929 l 455 928 l 453 928 l 453 929 m 416 805 l 416 804 q 428 817 418 804 l 428 817 q 416 805 427 817 m 161 467 l 161 466 l 161 466 q 261 619 208 545 q 410 796 327 707 l 410 798 q 261 623 311 696 q 161 467 169 496 m 1194 610 q 1040 336 1120 456 q 860 107 966 228 q 814 59 822 66 l 814 58 q 960 220 917 161 q 1160 533 1084 387 q 1194 609 1181 572 l 1194 610 l 1194 610 m 73 258 l 67 239 l 67 237 l 68 237 q 75 258 68 239 l 75 258 l 73 258 m 66 237 l 66 234 l 67 234 l 67 237 l 66 237 m 64 229 l 64 227 l 64 227 l 64 229 l 64 229 m 984 216 l 984 214 l 985 214 l 985 216 l 984 216 m 40 111 l 40 108 l 41 108 l 41 111 l 40 111 m 39 102 l 39 96 l 40 96 l 40 102 l 39 102 m 38 92 l 38 85 l 39 85 l 39 92 l 38 92 m 37 80 l 37 73 l 38 73 l 38 80 l 37 80 m 417 -208 l 418 -208 q 372 -225 418 -214 l 372 -223 q 391 -218 374 -223 l 389 -216 l 389 -214 l 391 -214 l 391 -216 l 394 -216 l 393 -214 l 397 -214 l 417 -208 m 387 -216 l 387 -218 q 337 -231 353 -228 l 337 -232 l 339 -232 l 353 -229 l 353 -231 q 309 -239 323 -239 q 308 -238 309 -238 q 296 -239 307 -238 l 296 -237 l 298 -237 q 387 -216 325 -232 m 118 -218 l 119 -218 q 121 -220 121 -218 l 121 -220 q 118 -218 118 -220 m 123 -221 l 125 -221 l 125 -222 l 123 -222 l 123 -221 m 126 -223 l 128 -223 l 128 -224 l 126 -224 l 126 -223 m 332 -232 l 332 -233 l 336 -233 l 336 -232 l 332 -232 m 327 -233 l 327 -235 l 331 -235 l 331 -233 l 327 -233 m 173 -233 l 175 -233 l 175 -235 l 173 -235 l 173 -233 m 321 -235 l 321 -235 l 326 -235 l 326 -235 l 321 -235 m 358 -233 l 358 -235 q 288 -250 300 -250 l 288 -248 q 358 -233 309 -244 m 315 -235 l 315 -237 l 320 -237 l 320 -235 l 315 -235 m 310 -237 l 310 -238 l 315 -238 l 315 -237 l 310 -237 m 290 -238 l 294 -238 l 294 -240 l 290 -240 l 290 -238 m 277 -239 l 282 -239 l 282 -241 l 277 -241 l 277 -239 m 303 -239 l 307 -239 l 307 -241 l 303 -241 l 303 -239 m 290 -241 l 292 -241 l 292 -243 l 290 -243 l 290 -241 m 271 -250 l 275 -250 l 275 -252 l 271 -252 l 271 -250 m 325 -254 l 325 -254 l 327 -254 l 327 -254 l 325 -254 m 1263 1118 l 1263 1116 l 1263 1116 l 1263 1118 l 1263 1118 m 1263 1114 l 1263 1112 q 1266 1104 1266 1107 l 1267 1104 l 1267 1107 q 1265 1114 1265 1111 l 1263 1114 m 1267 1103 l 1267 1101 q 1276 1044 1276 1049 l 1277 1044 l 1277 1047 q 1268 1103 1273 1083 l 1267 1103 m 1277 1042 l 1277 1038 l 1278 1038 l 1278 1042 l 1277 1042 m 1278 1033 l 1278 1031 l 1280 1031 l 1280 1033 l 1278 1033 z "},"P":{"ha":768,"x_min":-52,"x_max":1080,"o":"m 804 1297 q 1065 1175 1004 1293 q 1080 1102 1080 1141 q 945 849 1080 990 q 774 704 861 764 q 597 593 685 641 l 595 595 l 565 580 l 565 581 l 564 583 q 584 595 581 593 l 581 595 l 581 597 l 583 597 l 583 597 l 582 597 q 578 597 579 597 q 583 600 578 600 l 585 599 q 591 601 589 601 l 591 602 l 589 602 q 586 601 587 601 q 591 604 586 604 l 593 604 q 624 623 623 620 q 623 623 623 623 l 624 623 q 625 623 625 623 q 635 629 633 625 l 632 629 l 632 631 l 633 631 l 635 630 l 636 632 q 635 633 635 632 q 646 640 644 640 l 646 642 l 645 642 q 345 481 478 542 l 344 481 l 344 481 l 362 490 l 362 491 l 361 491 q 214 424 274 448 q 349 488 220 428 q 657 659 549 587 q 1042 1094 1042 911 q 981 1207 1042 1161 q 812 1255 909 1255 l 786 1255 q 555 1207 689 1255 l 555 1206 l 556 1206 q 743 1242 682 1242 l 743 1239 l 742 1239 q 558 1202 677 1237 q 332 1093 411 1149 q 297 1073 302 1073 l 297 1074 q 396 1149 338 1113 q 544 1223 468 1194 q 786 1274 676 1274 q 890 1265 806 1274 l 894 1265 l 894 1266 q 793 1276 837 1276 q 332 1109 566 1276 q 247 1038 284 1074 l 249 1038 q 252 1038 252 1038 l 252 1038 q 109 901 220 1003 l 106 901 l 106 903 q 235 1050 138 944 q 375 1160 323 1131 q 577 1258 465 1219 q 804 1297 700 1297 m 551 1206 l 551 1204 l 553 1204 l 553 1206 l 551 1206 m 447 1078 l 450 1078 l 450 1078 q 402 991 442 1059 q 167 512 255 726 q 39 164 100 363 q -23 -125 -23 -41 l -23 -128 q -26 -131 -23 -131 q -28 -161 -26 -138 q -20 -235 -28 -193 q -30 -182 -30 -223 l -31 -182 l -31 -197 l -30 -211 l -32 -211 l -33 -205 q -34 -175 -33 -203 l -32 -175 l -32 -181 l -31 -181 q -22 -62 -31 -119 l -24 -62 q -9 16 -15 -12 l -9 19 l -9 19 q -21 -28 -18 -28 q -22 -27 -21 -27 l -22 -29 l -24 -29 q -11 37 -18 5 l -11 38 l -12 38 q -23 -14 -23 -9 l -25 -14 l -25 -12 l -26 -12 l -26 -16 l -24 -16 l -24 -19 l -26 -19 q -28 -12 -28 -15 l -30 -12 q -44 -154 -44 -92 q -39 -213 -44 -186 l -41 -213 q -45 -191 -45 -195 l -47 -192 l -49 -192 q -52 -145 -52 -147 q -16 102 -52 -56 q 72 366 18 225 q 267 830 169 624 l 267 831 l 266 831 q 198 704 239 785 l 197 704 l 197 706 q 355 972 255 834 q 371 989 362 983 q 372 988 371 988 q 340 919 364 968 l 340 918 l 340 918 q 393 1012 340 922 l 393 1014 l 387 1014 q 447 1078 387 1025 m 292 829 q 290 825 292 827 l 290 824 l 292 824 q 293 827 292 825 l 293 829 l 292 829 m 280 808 q 176 585 176 599 l 176 585 l 176 585 q 281 806 236 715 l 281 808 l 280 808 m 637 630 l 638 630 q 662 644 659 644 l 662 645 l 661 645 q 637 630 638 632 m 648 644 l 648 642 l 650 642 l 650 644 l 648 644 m 605 613 l 607 613 l 607 612 l 605 612 l 605 613 m 600 610 l 602 610 l 602 609 l 600 609 l 600 610 m 597 609 l 600 609 l 600 608 l 597 608 l 597 609 m 596 608 l 597 608 q 595 606 597 606 l 594 606 q 596 608 594 608 m 591 606 l 594 606 l 594 604 l 591 604 l 591 606 m 596 604 l 596 602 l 598 602 l 598 604 l 596 604 m 584 601 l 586 601 l 586 600 l 584 600 l 584 601 m 586 597 l 586 597 l 587 597 q 591 597 589 597 l 591 599 l 589 599 q 586 597 587 597 m 576 597 l 578 597 l 578 595 l 576 595 l 576 597 m 575 595 q 578 595 577 595 q 574 591 578 593 l 572 592 q 568 591 570 591 q 575 595 570 595 m 578 595 l 581 595 l 581 595 l 578 595 l 578 595 m 596 593 q 593 590 596 592 l 591 590 q 596 593 591 593 m 567 591 q 570 590 569 590 q 559 583 570 589 q 556 585 557 585 l 556 585 l 567 591 m 570 591 l 572 591 l 572 590 l 570 590 l 570 591 m 583 587 l 585 587 l 585 585 l 583 585 l 583 587 m 555 585 q 558 583 557 583 q 549 578 558 582 q 546 578 547 578 l 546 580 q 555 585 553 585 m 575 582 l 577 582 l 577 581 l 575 581 l 575 582 m 545 578 q 548 578 547 578 l 548 576 q 452 526 477 537 q 449 528 450 528 l 449 528 q 545 578 498 553 m 488 540 q 274 436 397 488 q 488 540 294 448 m 447 528 l 449 528 l 449 526 l 447 526 l 447 528 m 444 526 l 447 526 l 447 526 l 444 526 l 444 526 m 449 526 l 451 526 l 451 526 l 449 526 l 449 526 m 442 526 l 444 526 l 444 524 l 442 524 l 442 526 m 447 526 l 449 526 l 449 524 l 447 524 l 447 526 m 440 524 l 442 524 l 442 523 l 440 523 l 440 524 m 444 524 l 447 524 l 447 523 l 444 523 l 444 524 m 437 523 l 440 523 l 440 522 l 437 522 l 437 523 m 442 523 l 444 523 l 444 522 l 442 522 l 442 523 m 435 522 l 437 522 l 437 521 l 435 521 l 435 522 m 440 522 l 442 522 l 442 521 l 440 521 l 440 522 m 433 521 l 435 521 l 435 519 l 433 519 l 433 521 m 437 521 l 440 521 l 440 519 l 437 519 l 437 521 m 431 519 l 433 519 l 433 519 l 431 519 l 431 519 m 435 519 l 437 519 l 437 519 l 435 519 l 435 519 m 429 519 l 431 519 l 431 517 l 429 517 l 429 519 m 433 519 l 435 519 l 435 517 l 433 517 l 433 519 m 427 517 l 429 517 l 429 516 l 427 516 l 427 517 m 433 517 q 430 514 433 516 l 428 514 q 433 517 428 517 m 399 500 l 402 500 l 402 500 l 399 500 l 399 500 m 397 500 l 399 500 l 399 498 l 397 498 l 397 500 m 395 498 l 397 498 l 397 497 l 395 497 l 395 498 m 393 497 l 395 497 l 395 496 l 393 496 l 393 497 m 391 496 l 393 496 l 393 495 l 391 495 l 391 496 m 411 496 q 404 493 410 493 l 403 493 l 403 494 l 411 496 m 389 495 l 391 495 l 391 494 l 389 494 l 389 495 m 387 494 l 389 494 l 389 493 q 378 490 380 490 q 387 494 378 492 m 401 493 l 403 493 l 403 492 l 401 492 l 401 493 m 399 492 l 401 492 l 401 491 l 399 491 l 399 492 m 396 491 l 399 491 l 399 490 l 396 490 l 396 491 m 372 488 l 374 488 l 374 486 l 372 486 l 372 488 m 370 486 l 372 486 l 372 485 l 370 485 l 370 486 m 368 485 l 370 485 l 370 484 l 368 484 l 368 485 m 365 484 l 368 484 l 368 483 l 365 483 l 365 484 m 385 484 q 383 481 385 481 l 380 481 l 380 483 l 385 484 m 363 483 l 365 483 l 365 481 l 363 481 l 363 483 m 362 481 l 363 481 l 363 481 q 353 477 355 477 q 362 481 353 480 m 378 481 l 380 481 l 380 481 l 378 481 l 378 481 m 342 481 l 344 481 l 344 479 l 342 479 l 342 481 m 375 481 l 378 481 l 378 479 l 375 479 l 375 481 m 340 479 l 342 479 l 342 478 l 340 478 l 340 479 m 373 479 l 375 479 l 375 478 l 373 478 l 373 479 m 337 478 l 340 478 l 340 477 l 337 477 l 337 478 m 335 477 l 337 477 l 337 476 l 335 476 l 335 477 m 333 476 l 335 476 l 335 475 l 333 475 l 333 476 m 346 475 l 349 475 l 349 474 l 346 474 l 346 475 m 344 474 l 346 474 l 346 473 l 344 473 l 344 474 m 342 473 l 344 473 l 344 472 l 342 472 l 342 473 m 359 473 l 361 473 l 361 472 l 359 472 l 359 473 m 340 472 l 342 472 l 342 471 l 340 471 l 340 472 m 356 472 l 359 472 l 359 471 l 356 471 l 356 472 m 340 464 l 342 464 l 342 463 l 340 463 l 340 464 m 328 458 l 330 458 l 330 457 l 328 457 l 328 458 m 315 453 l 317 453 l 317 452 l 315 452 l 315 453 m 55 243 l 55 241 l 56 241 l 56 243 l 55 243 m 54 239 l 54 237 l 55 237 l 55 239 l 54 239 m 53 237 l 53 234 l 54 234 l 54 237 l 53 237 m 52 233 l 52 231 l 53 231 l 53 233 l 52 233 m 51 230 l 51 227 l 52 227 l 52 230 l 51 230 m 50 227 l 50 224 l 51 224 l 51 227 l 50 227 m 48 223 l 48 221 l 50 221 l 50 223 l 48 223 m 47 220 l 47 218 l 48 218 l 48 220 l 47 220 m 46 216 q -7 26 20 134 l -7 24 l -6 24 q 47 215 18 126 l 47 216 l 46 216 m -11 41 l -11 39 l -9 39 l -9 41 l -11 41 m -9 23 l -9 20 l -7 20 l -7 23 l -9 23 m -26 4 l -26 2 l -25 2 l -25 4 l -26 4 m -28 -1 l -28 -5 l -26 -5 l -26 -1 l -28 -1 m -28 -7 l -28 -12 l -28 -12 l -28 -7 l -28 -7 m -28 -22 l -25 -22 l -25 -24 l -28 -24 l -28 -22 m -22 -29 l -20 -29 l -20 -33 l -22 -33 l -22 -29 m -23 -36 l -21 -36 l -21 -38 l -23 -38 l -23 -36 m -26 -37 l -24 -37 l -24 -39 l -26 -39 l -26 -37 m -31 -43 l -28 -43 l -28 -45 l -31 -45 l -31 -43 m -24 -43 l -22 -43 l -22 -45 l -24 -45 l -24 -43 m -28 -43 l -25 -43 l -25 -47 l -28 -47 l -28 -43 m -32 -50 l -30 -50 l -30 -52 l -32 -52 l -32 -50 m -28 -50 l -26 -50 l -25 -57 q -28 -56 -27 -56 l -28 -50 m -33 -56 l -31 -56 l -31 -59 l -33 -59 l -33 -56 m -30 -58 l -28 -58 l -26 -64 q -32 -161 -32 -98 l -34 -161 q -35 -114 -34 -157 q -30 -58 -35 -106 m -34 -64 l -32 -64 l -32 -67 l -34 -67 l -34 -64 m -35 -71 l -33 -71 l -33 -75 l -35 -75 l -35 -71 m -37 -81 l -34 -81 l -34 -84 l -37 -84 l -37 -81 m -37 -90 l -35 -90 l -35 -93 l -37 -93 l -37 -90 m -39 -100 l -37 -100 l -37 -102 l -39 -102 l -39 -100 m -25 -136 l -23 -136 l -23 -137 q -18 -225 -23 -156 l -20 -225 q -26 -149 -26 -196 q -25 -136 -25 -138 m -47 -197 l -45 -197 l -45 -197 q -28 -260 -45 -212 q -47 -197 -40 -250 m 1006 931 l 1006 929 l 1006 929 l 1006 931 l 1006 931 m 1003 928 l 1003 926 l 1004 926 l 1004 928 l 1003 928 m 993 915 l 993 912 l 994 912 l 994 915 l 993 915 m 989 908 l 989 907 q 991 909 991 907 l 991 910 q 989 908 989 910 m 985 905 l 985 903 l 987 903 l 987 905 l 985 905 m 981 899 l 981 897 l 982 897 l 982 899 l 981 899 m 975 890 l 975 889 q 977 891 977 889 l 977 892 q 975 890 975 892 m 964 879 l 964 878 q 968 882 966 878 l 968 884 q 964 879 967 884 m 954 868 l 954 867 q 960 872 956 867 l 960 873 q 954 868 958 873 m 908 821 l 909 821 q 947 859 912 822 l 947 860 q 908 821 945 860 m 894 808 l 895 808 q 904 817 897 808 l 903 817 q 894 808 901 817 m 880 795 l 882 795 q 890 803 883 795 l 888 803 q 880 795 886 803 m 873 789 l 873 789 q 880 794 876 789 l 878 794 q 873 789 877 794 m 866 783 l 867 783 q 871 787 869 783 l 871 787 q 866 783 869 787 m 858 777 l 859 777 q 865 782 861 777 l 864 782 q 858 777 862 782 m 852 770 l 852 770 q 857 775 854 770 l 856 775 q 852 770 854 775 m 825 749 l 826 749 q 850 770 850 768 l 849 770 q 825 749 825 751 m 793 726 l 795 726 q 823 749 817 741 l 823 749 l 793 726 m 759 701 l 760 701 q 792 725 783 716 l 791 725 l 759 701 m 748 694 l 749 694 q 758 701 758 699 l 757 701 q 748 694 748 695 m 745 692 l 745 692 l 747 692 l 747 692 l 745 692 m 728 682 l 728 680 l 729 680 q 743 690 743 688 l 742 690 q 728 682 730 682 m 724 680 l 724 678 l 726 678 l 726 680 l 724 680 m 721 677 l 721 676 l 723 676 l 723 677 l 721 677 m 718 675 l 718 673 l 720 673 l 720 675 l 718 675 m 714 673 l 714 671 l 717 671 l 717 673 l 714 673 m 711 670 l 711 669 l 713 669 l 713 670 l 711 670 m 707 668 l 707 667 l 710 667 l 710 668 l 707 668 m 695 667 l 695 666 l 698 666 l 698 667 l 695 667 m 704 666 l 704 665 l 707 665 l 707 666 l 704 666 m 692 665 l 692 664 l 694 664 l 694 665 l 692 665 m 701 664 l 701 663 l 703 663 l 703 664 l 701 664 m 698 661 l 698 661 l 700 661 l 700 661 l 698 661 m 683 659 l 683 658 l 686 658 l 686 659 l 683 659 m 692 658 l 692 657 l 693 657 q 696 658 695 658 l 696 659 l 695 659 q 692 658 693 658 m 677 656 l 677 654 l 680 654 l 680 656 l 677 656 m 688 656 l 688 654 l 691 654 l 691 656 l 688 656 m 674 654 l 674 652 l 676 652 l 676 654 l 674 654 m 683 652 l 683 651 l 684 651 q 688 652 686 652 l 688 654 l 686 654 q 683 652 684 652 m 669 650 l 669 649 l 671 649 l 671 650 l 669 650 m 680 650 l 680 649 l 682 649 l 682 650 l 680 650 m 663 647 l 663 646 l 665 646 l 665 647 l 663 647 m 674 647 l 674 646 l 676 646 l 676 647 l 674 647 z "},"Q":{"ha":1272,"x_min":1,"x_max":1310,"o":"m 1094 1272 l 1122 1272 q 1254 1211 1195 1272 q 1310 1017 1310 1144 q 1206 593 1310 844 q 1048 307 1147 460 q 987 222 1019 264 l 987 221 q 1103 377 1045 286 q 1141 437 1132 427 l 1141 435 q 1013 245 1092 349 q 890 107 964 182 q 726 -37 766 -12 q 902 -79 831 -79 q 1037 -45 965 -79 l 1039 -46 q 1072 -29 1070 -29 q 1039 -48 1050 -44 l 1039 -50 l 1040 -50 l 1044 -47 l 1044 -50 l 1019 -60 l 1019 -62 l 1020 -62 l 1047 -50 l 1046 -47 l 1047 -47 l 1049 -48 q 1063 -43 1059 -43 q 963 -86 1023 -71 l 963 -87 l 965 -87 l 1001 -77 l 1002 -77 l 1002 -78 l 1000 -78 l 1000 -79 l 1001 -79 q 1006 -78 1003 -78 q 1000 -81 1006 -81 l 1000 -83 l 1001 -83 q 1118 -15 1044 -68 q 1154 11 1147 10 q 1200 50 1176 33 l 1200 50 q 1082 -47 1141 -7 q 877 -121 976 -121 q 674 -67 823 -121 q 656 -84 656 -82 l 663 -84 l 663 -86 q 586 -137 641 -107 q 472 -195 501 -186 l 470 -195 l 470 -194 q 594 -109 491 -176 q 653 -60 644 -70 q 525 -41 581 -41 l 522 -41 q 459 -46 498 -41 l 459 -48 q 541 -55 498 -48 l 541 -57 q 478 -52 501 -52 q 340 -65 405 -52 l 335 -65 l 334 -62 q 437 -24 366 -41 q 508 -18 478 -18 l 520 -18 q 612 -31 556 -18 l 620 -33 l 626 -31 l 626 -31 q 515 -15 557 -15 l 513 -15 q 307 -67 410 -15 l 307 -74 q 218 -102 233 -102 l 218 -100 q 298 -50 235 -85 q 526 9 410 9 q 695 -26 598 9 q 884 165 833 102 q 1013 334 964 262 q 1134 538 1091 452 q 1238 808 1202 674 q 1267 994 1267 918 l 1267 1022 q 1208 1189 1267 1122 q 1084 1232 1162 1232 q 830 1157 986 1232 l 828 1158 q 793 1141 797 1141 q 856 1173 808 1151 l 856 1175 l 855 1175 q 852 1173 852 1173 q 906 1198 856 1178 l 906 1199 l 905 1199 q 757 1128 819 1164 l 755 1128 q 1010 1238 915 1220 l 1010 1239 l 1008 1239 q 946 1223 980 1232 l 945 1223 l 945 1223 l 947 1223 l 947 1225 l 946 1225 q 935 1221 939 1221 q 947 1227 935 1223 l 947 1228 l 946 1228 q 814 1169 880 1204 q 610 1042 723 1121 q 606 1040 610 1040 q 629 1059 606 1040 l 629 1059 q 466 936 550 1001 l 465 936 q 631 1062 546 1005 l 632 1062 l 631 1059 l 632 1059 q 634 1062 634 1059 l 632 1062 q 634 1064 632 1064 l 636 1063 l 637 1063 l 637 1064 l 635 1064 q 673 1090 637 1068 q 861 1201 760 1152 q 1094 1272 1007 1272 m 1044 1246 l 1044 1244 l 1049 1244 l 1049 1246 l 1044 1246 m 1028 1244 l 1028 1242 l 1030 1242 q 1040 1244 1036 1244 l 1040 1244 l 1037 1244 q 1028 1244 1031 1244 m 1011 1240 l 1011 1239 l 1013 1239 q 1027 1242 1022 1242 l 1027 1242 l 1023 1242 q 1011 1240 1014 1240 m 994 1229 l 994 1228 l 996 1228 q 1084 1239 1040 1239 l 1103 1239 q 1232 1175 1178 1239 q 1261 1116 1255 1139 l 1262 1116 l 1262 1116 q 1227 1182 1250 1156 q 1089 1242 1182 1242 q 994 1229 1048 1242 m 958 1232 l 958 1232 l 960 1232 l 960 1232 l 958 1232 m 952 1230 l 952 1229 l 953 1229 q 956 1230 956 1230 l 956 1232 l 956 1232 q 952 1230 953 1230 m 949 1229 l 949 1228 l 951 1228 l 951 1229 l 949 1229 m 990 1228 l 990 1227 l 994 1227 l 994 1228 l 990 1228 m 975 1223 l 975 1223 l 977 1223 q 989 1226 985 1226 l 989 1227 l 987 1227 l 975 1223 m 949 1226 l 949 1225 l 951 1225 l 951 1226 l 949 1226 m 966 1221 l 966 1220 l 968 1220 q 973 1221 970 1221 l 973 1223 l 971 1223 q 966 1221 969 1221 m 963 1220 l 963 1219 l 965 1219 l 965 1220 l 963 1220 m 960 1219 l 960 1218 l 962 1218 l 962 1219 l 960 1219 m 946 1215 l 946 1213 l 947 1213 q 959 1217 956 1217 l 959 1218 l 956 1218 q 946 1215 948 1215 m 943 1213 l 943 1213 l 945 1213 l 945 1213 l 943 1213 m 940 1213 l 940 1211 l 942 1211 l 942 1213 l 940 1213 m 930 1209 l 930 1208 l 932 1208 q 939 1210 937 1210 l 939 1211 l 937 1211 q 930 1209 933 1209 m 928 1208 l 928 1207 l 930 1207 l 930 1208 l 928 1208 m 918 1204 l 918 1204 l 920 1204 q 926 1206 924 1206 l 926 1207 l 925 1207 q 918 1204 920 1204 m 913 1202 l 913 1201 l 914 1201 q 918 1202 916 1202 l 918 1204 l 916 1204 q 913 1202 914 1202 m 907 1200 l 907 1199 l 909 1199 q 911 1200 911 1200 l 911 1201 l 911 1201 q 907 1200 909 1200 m 849 1173 l 852 1173 l 852 1173 l 849 1173 l 849 1173 m 838 1169 l 840 1169 l 840 1168 l 838 1168 l 838 1169 m 790 1139 q 779 1133 790 1136 q 790 1139 779 1136 m 771 1130 l 774 1130 l 774 1128 l 771 1128 l 771 1130 m 755 1126 q 736 1114 755 1125 l 733 1114 q 755 1126 749 1126 m 764 1125 l 766 1125 l 766 1124 l 764 1124 l 764 1125 m 755 1121 l 758 1121 l 758 1120 l 755 1120 l 755 1121 m 750 1118 l 752 1118 q 750 1116 752 1116 l 748 1116 q 750 1118 748 1118 m 1262 1114 l 1262 1112 q 1264 1104 1264 1107 l 1265 1104 l 1265 1107 q 1263 1114 1263 1111 l 1262 1114 m 730 1113 l 732 1113 q 730 1111 732 1111 l 728 1111 q 730 1113 728 1113 m 742 1113 l 745 1113 q 742 1111 745 1111 l 740 1111 q 742 1113 741 1113 m 724 1109 l 726 1109 q 724 1107 726 1107 l 722 1107 q 724 1109 722 1109 m 734 1109 l 736 1109 l 736 1107 l 734 1107 l 734 1109 m 719 1107 l 721 1107 q 719 1104 721 1104 l 717 1104 q 719 1107 717 1107 m 729 1105 l 731 1105 q 729 1103 731 1103 l 726 1103 q 729 1105 727 1105 m 1265 1103 l 1265 1101 q 1274 1045 1274 1052 l 1276 1045 l 1276 1050 q 1267 1103 1271 1084 l 1265 1103 m 713 1103 l 715 1103 q 707 1097 715 1101 l 705 1097 q 713 1103 705 1098 m 723 1102 l 726 1102 q 723 1100 726 1100 l 721 1100 q 723 1102 722 1102 m 718 1099 l 720 1099 l 720 1097 l 718 1097 l 718 1099 m 701 1095 l 703 1095 l 703 1094 l 701 1094 l 701 1095 m 712 1095 l 714 1095 l 714 1094 l 712 1094 l 712 1095 m 698 1093 l 700 1093 l 700 1092 l 698 1092 l 698 1093 m 709 1093 l 711 1093 q 709 1090 711 1090 l 707 1090 q 709 1093 707 1093 m 703 1090 l 705 1090 q 541 975 608 1027 q 541 974 541 975 l 541 974 l 538 975 q 528 967 538 973 l 527 967 q 703 1090 601 1028 m 758 1088 l 759 1086 q 631 981 735 1062 q 347 695 433 803 q 180 454 228 547 q 102 294 134 376 q 45 43 45 140 l 45 9 q 110 -178 45 -101 q 197 -231 155 -222 q 209 -237 209 -233 l 212 -237 l 214 -235 q 254 -242 214 -240 l 262 -242 q 283 -241 269 -242 l 283 -243 q 267 -244 273 -244 l 248 -244 q 178 -232 214 -244 q 174 -233 176 -233 l 172 -231 l 174 -231 l 174 -230 l 174 -230 l 171 -231 q 157 -223 168 -231 q 63 -121 98 -199 q 36 22 36 -53 q 37 41 37 31 l 37 62 l 36 62 q 35 16 35 33 q 138 -216 35 -144 q 248 -249 183 -249 l 274 -249 l 274 -251 l 237 -251 q 77 -168 142 -251 l 77 -166 l 76 -166 l 76 -168 q 119 -216 79 -177 l 117 -216 l 112 -212 l 111 -212 q 117 -219 111 -213 l 115 -219 q 94 -202 103 -211 l 93 -202 q 236 -259 151 -259 l 255 -259 q 351 -242 294 -259 l 351 -244 q 328 -251 330 -251 l 328 -254 l 328 -254 l 326 -254 l 326 -252 l 324 -252 l 325 -254 l 323 -256 l 321 -256 l 321 -254 l 319 -254 l 321 -256 q 243 -267 282 -267 l 235 -267 q 62 -191 131 -267 q 1 1 1 -117 l 1 12 q 105 398 1 173 q 283 686 172 534 l 332 746 l 332 747 q 228 626 301 717 q 214 608 227 623 l 214 609 q 359 784 248 664 q 551 943 531 943 q 479 869 498 888 l 479 868 q 602 981 526 913 l 602 981 q 595 984 595 981 q 736 1078 631 1014 l 758 1088 m 671 1075 l 673 1075 l 673 1074 l 671 1074 l 671 1075 m 667 1073 l 670 1073 l 670 1072 l 667 1072 l 667 1073 m 664 1071 l 667 1071 l 667 1069 l 664 1069 l 664 1071 m 661 1069 l 663 1069 l 663 1067 l 661 1067 l 661 1069 m 674 1067 l 676 1067 l 676 1066 l 674 1066 l 674 1067 m 657 1066 l 660 1066 l 660 1065 l 657 1065 l 657 1066 m 671 1065 l 673 1065 l 673 1064 l 671 1064 l 671 1065 m 654 1064 l 656 1064 l 656 1063 l 654 1063 l 654 1064 m 667 1063 l 670 1063 l 670 1062 l 667 1062 l 667 1063 m 653 1062 q 597 1024 603 1025 q 653 1062 648 1062 m 667 1061 q 563 989 570 991 q 667 1061 623 1035 m 1276 1044 l 1276 1038 l 1276 1038 l 1276 1044 l 1276 1044 m 604 1038 l 605 1038 q 603 1036 605 1036 l 602 1036 q 604 1038 602 1038 m 598 1035 l 601 1035 l 601 1034 l 598 1034 l 598 1035 m 1276 1034 l 1276 1031 l 1278 1031 l 1278 1034 l 1276 1034 m 594 1031 l 596 1031 l 596 1031 l 594 1031 l 594 1031 m 589 1028 l 591 1028 l 591 1027 l 589 1027 l 589 1028 m 594 1023 l 596 1023 l 596 1022 l 594 1022 l 594 1023 m 591 1021 l 593 1021 l 593 1019 l 591 1019 l 591 1021 m 559 988 l 562 988 l 562 987 l 559 987 l 559 988 m 558 987 l 559 987 q 556 984 559 985 l 555 984 q 558 987 555 985 m 551 983 l 553 983 l 553 981 l 551 981 l 551 983 m 551 981 l 551 981 q 549 979 551 979 l 548 979 q 551 981 549 981 m 525 966 l 526 966 q 524 964 526 964 l 522 964 q 525 966 523 966 m 518 962 l 520 962 l 520 960 l 518 960 l 518 962 m 463 935 l 463 935 q 461 932 463 932 l 460 932 q 463 935 460 935 m 432 821 l 432 820 q 441 829 433 820 l 441 830 q 432 821 439 830 m 161 466 q 228 572 176 486 q 416 802 297 672 l 416 803 q 247 601 292 673 q 161 466 170 496 m 1192 609 q 1047 348 1120 458 q 943 206 1008 292 q 827 73 899 150 l 827 73 q 962 224 924 170 q 1148 513 1067 363 q 1193 608 1193 598 l 1193 609 l 1192 609 m 74 258 q 67 237 67 238 l 67 235 l 68 235 q 75 256 68 239 l 75 258 l 74 258 m 66 234 l 66 232 l 67 232 l 67 234 l 66 234 m 65 231 l 65 229 l 66 229 l 66 231 l 65 231 m 984 218 l 984 216 l 985 216 l 985 218 l 984 218 m 42 117 l 42 114 l 43 114 l 43 117 l 42 117 m 41 107 l 41 102 l 42 102 l 42 107 l 41 107 m 39 96 l 39 90 l 41 90 l 41 96 l 39 96 m 39 85 l 39 78 l 39 78 l 39 85 l 39 85 m 37 75 l 37 64 l 39 64 l 39 75 l 37 75 m 717 -33 l 717 -34 q 723 -35 722 -35 q 823 67 774 18 l 823 68 q 717 -33 776 21 m 1166 39 l 1167 39 q 1112 -3 1137 10 l 1166 39 m 1155 33 q 1069 -28 1110 -5 q 1065 -29 1067 -29 q 1155 33 1151 33 m 1139 12 l 1141 12 l 1141 11 l 1139 11 l 1139 12 m 1138 10 q 1079 -31 1100 -21 q 1138 10 1135 10 m 1108 -5 l 1110 -5 l 1110 -5 l 1108 -5 l 1108 -5 m 1105 -7 l 1107 -7 l 1107 -8 l 1105 -8 l 1105 -7 m 1101 -9 l 1103 -9 l 1103 -10 l 1101 -10 l 1101 -9 m 1098 -12 l 1100 -12 l 1100 -12 l 1098 -12 l 1098 -12 m 1091 -16 l 1094 -16 l 1094 -17 l 1091 -17 l 1091 -16 m 1079 -24 l 1081 -24 l 1081 -24 l 1079 -24 l 1079 -24 m 1076 -26 l 1078 -26 q 1076 -28 1078 -28 l 1074 -28 q 1076 -26 1074 -26 m 1061 -31 l 1063 -31 q 1061 -33 1063 -33 l 1059 -33 q 1061 -31 1059 -31 m 1044 -40 l 1047 -40 l 1047 -41 l 1044 -41 l 1044 -40 m 1042 -41 l 1044 -41 l 1044 -43 l 1042 -43 l 1042 -41 m 1040 -43 l 1042 -43 l 1042 -43 l 1040 -43 l 1040 -43 m 1038 -43 l 1040 -43 l 1040 -45 l 1038 -45 l 1038 -43 m 1013 -62 l 1013 -64 l 1015 -64 q 1018 -62 1017 -62 l 1018 -62 l 1017 -62 q 1013 -62 1015 -62 m 1008 -65 l 1008 -66 l 1009 -66 q 1013 -65 1011 -65 l 1013 -64 l 1011 -64 q 1008 -65 1009 -65 m 1004 -66 l 1004 -67 l 1006 -67 l 1006 -66 l 1004 -66 m 999 -68 l 999 -69 l 1000 -69 q 1003 -68 1002 -68 l 1003 -67 l 1002 -67 q 999 -68 1000 -68 m 996 -69 l 996 -71 l 998 -71 l 998 -69 l 996 -69 m 992 -71 l 992 -71 l 994 -71 l 994 -71 l 992 -71 m 989 -71 l 989 -73 l 991 -73 l 991 -71 l 989 -71 m 909 -86 l 909 -87 l 918 -87 q 987 -74 942 -87 l 987 -73 l 985 -73 q 909 -86 945 -86 m 996 -83 l 996 -84 l 999 -84 l 999 -83 l 996 -83 m 463 -200 q 345 -250 414 -230 q 331 -254 343 -250 l 331 -251 q 430 -213 345 -251 q 463 -200 454 -201 m 418 -205 l 418 -206 q 374 -223 414 -214 l 374 -221 l 390 -216 l 390 -216 l 387 -216 q 340 -229 347 -229 l 340 -230 l 343 -230 l 352 -228 l 352 -230 q 309 -239 328 -235 l 309 -237 l 318 -235 l 318 -235 l 316 -235 q 302 -237 306 -237 l 302 -235 q 394 -212 311 -235 l 394 -214 l 397 -214 l 395 -212 q 397 -211 397 -212 l 399 -212 q 418 -205 418 -205 m 391 -214 l 391 -216 l 393 -216 l 393 -214 l 391 -214 m 120 -216 l 121 -216 q 123 -219 123 -217 l 122 -219 q 120 -216 120 -219 m 124 -220 l 127 -220 l 127 -221 l 124 -221 l 124 -220 m 127 -222 l 130 -222 l 130 -223 l 127 -223 l 127 -222 m 354 -227 l 356 -227 l 356 -229 l 354 -229 l 354 -227 m 336 -230 l 336 -231 l 340 -231 l 340 -230 l 336 -230 m 332 -231 l 332 -232 l 335 -232 l 335 -231 l 332 -231 m 326 -232 l 326 -233 l 330 -233 l 330 -232 l 326 -232 m 321 -233 l 321 -235 l 324 -235 l 324 -233 l 321 -233 m 357 -232 l 357 -235 q 292 -248 304 -248 l 292 -245 q 357 -232 313 -242 m 295 -235 l 299 -235 l 299 -238 l 295 -238 l 295 -235 m 287 -237 l 290 -237 l 290 -239 l 287 -239 l 287 -237 m 241 -238 l 245 -238 l 245 -240 l 241 -240 l 241 -238 m 274 -238 l 278 -238 l 278 -240 l 274 -240 l 274 -238 m 302 -238 l 305 -238 l 305 -240 l 302 -240 l 302 -238 m 287 -240 l 290 -240 l 290 -242 l 287 -242 l 287 -240 m 286 -247 l 290 -247 l 290 -249 l 286 -249 l 286 -247 z "},"R":{"ha":789,"x_min":-43,"x_max":1054,"o":"m 794 1293 l 801 1293 q 1031 1196 960 1293 q 1054 1109 1054 1156 q 781 734 1054 945 q 553 588 650 638 q 547 585 553 585 q 553 589 547 588 l 553 590 l 552 590 q 523 576 545 587 q 519 576 521 576 q 554 597 527 583 l 554 599 q 541 592 550 595 l 538 593 q 535 592 536 592 q 540 595 535 595 l 542 595 q 578 616 572 610 q 576 616 576 616 l 578 616 q 579 616 579 616 q 583 619 583 617 q 582 620 582 619 l 585 621 l 587 620 q 612 635 610 635 l 612 635 l 611 635 q 590 623 610 635 q 589 627 590 625 q 600 633 598 633 l 600 635 l 599 635 q 310 481 444 543 l 309 481 l 309 481 l 311 481 l 311 483 l 310 483 q 175 422 237 447 q 283 473 184 428 q 697 709 509 579 q 861 840 780 767 q 954 941 938 916 q 1016 1090 1016 1029 l 1016 1097 q 877 1242 1016 1204 q 800 1251 829 1251 q 557 1204 682 1251 l 557 1202 l 559 1202 q 727 1237 676 1236 l 733 1237 l 733 1235 l 732 1235 q 491 1173 636 1231 q 345 1094 408 1137 q 302 1069 308 1069 l 302 1069 q 377 1130 330 1097 q 559 1226 475 1194 q 774 1270 680 1270 l 789 1270 q 888 1259 812 1270 l 890 1259 l 890 1260 q 813 1272 827 1272 l 802 1272 q 796 1273 798 1272 l 789 1272 l 780 1272 q 318 1090 557 1272 q 254 1035 264 1047 l 254 1034 l 258 1034 l 258 1033 q 116 898 210 983 l 115 898 l 115 899 q 243 1047 144 939 q 376 1154 335 1132 q 601 1263 469 1218 q 794 1293 706 1293 m 735 1238 l 743 1238 l 743 1236 l 735 1236 l 735 1238 m 553 1202 l 553 1201 l 555 1201 l 555 1202 l 553 1202 m 455 1075 l 458 1075 q 410 990 454 1060 q 205 580 288 767 q 139 422 168 493 l 140 422 q 157 414 157 416 l 157 412 q 125 387 157 410 q 114 357 116 365 l 115 357 q 275 360 226 358 q 513 337 313 360 q 616 321 536 337 q 559 343 610 328 l 559 346 q 635 318 574 346 q 673 277 673 286 l 670 277 q 507 322 598 300 q 498 319 498 321 q 592 298 536 313 q 676 263 656 277 l 678 263 q 684 269 683 269 q 695 242 688 269 l 695 234 q 688 221 695 225 l 687 221 l 670 241 q 485 299 602 279 q 249 327 403 315 q 199 330 209 330 l 199 332 l 203 332 l 203 334 q 106 337 144 337 q 12 38 54 205 q -15 -119 -15 -79 q -17 -131 -16 -131 l -18 -131 l -18 -140 q -15 -146 -15 -140 q -9 -228 -15 -162 l -12 -228 q -18 -142 -18 -205 l -19 -142 q -20 -170 -20 -163 q -12 -237 -20 -198 l -14 -237 q -21 -189 -21 -216 l -22 -189 l -22 -211 l -24 -211 q -26 -189 -26 -196 l -26 -166 l -24 -166 l -24 -186 l -22 -186 q -15 -69 -22 -120 l -17 -69 l -17 -67 l -16 -67 l -14 -68 l -14 -64 l -16 -64 l -3 1 l -3 3 l -5 3 l -12 -34 l -14 -34 q -16 -31 -14 -31 q -2 35 -9 9 l -2 37 l -3 37 q -15 -15 -15 -11 l -16 -15 l -18 -14 l -18 -17 l -16 -17 l -16 -20 l -18 -20 q -20 -14 -20 -16 l -21 -14 q -36 -149 -36 -95 l -36 -161 q -31 -216 -36 -189 l -33 -216 q -37 -194 -37 -197 l -38 -194 l -38 -197 l -40 -197 l -40 -191 l -38 -191 l -38 -189 q -43 -149 -43 -189 q -9 97 -43 -58 q 79 362 16 192 q 45 347 50 347 l 45 347 q 54 360 52 354 l 54 360 l 39 348 l 38 350 q 42 355 39 350 l 38 355 l 38 356 l 28 356 q 20 362 20 356 q 39 377 22 368 l 40 379 l 42 378 q 45 379 45 379 l 43 382 l 43 384 q 45 386 45 384 l 54 385 l 54 385 q 48 389 54 387 l 48 391 q 64 389 52 391 q 102 419 100 419 l 102 422 l 86 418 l 86 420 q 107 435 107 425 q 274 825 186 640 l 274 827 l 273 827 l 204 699 l 204 701 q 372 981 267 840 l 377 985 l 379 985 q 348 917 372 963 l 348 916 l 349 916 q 401 1010 355 929 l 396 1010 l 396 1014 q 455 1075 402 1027 m 342 908 q 341 905 342 907 l 341 903 l 342 903 q 343 907 342 905 l 343 908 l 342 908 m 946 895 l 946 892 l 947 892 l 947 895 l 946 895 m 935 882 l 935 880 l 936 880 l 936 882 l 935 882 m 919 865 l 919 863 q 922 867 921 863 l 922 868 q 919 865 921 868 m 874 820 l 876 820 q 887 831 877 820 l 886 831 q 874 820 884 831 m 301 829 l 301 827 l 302 827 l 302 829 l 301 829 m 862 808 l 863 808 q 870 815 865 808 l 869 815 q 862 808 867 815 m 289 805 q 184 583 184 597 l 184 582 l 185 582 q 290 804 243 711 l 290 805 l 289 805 m 851 799 l 852 799 q 859 805 854 799 l 858 805 q 851 799 856 805 m 842 791 l 843 791 q 849 796 845 791 l 848 796 q 842 791 846 796 m 836 785 l 836 785 q 841 789 838 785 l 840 789 q 836 785 838 789 m 829 780 l 830 780 q 834 784 831 780 l 833 784 q 829 780 831 784 m 822 774 l 823 774 q 827 779 825 774 l 827 779 q 822 774 825 779 m 718 697 l 720 697 q 821 773 768 728 l 820 773 q 718 697 770 733 m 715 696 l 715 695 l 717 695 l 717 696 l 715 696 m 685 676 l 685 675 l 686 675 q 714 694 713 692 l 713 694 q 685 676 687 676 m 682 673 l 682 673 l 684 673 l 684 673 l 682 673 m 678 671 l 678 670 l 680 670 l 680 671 l 678 671 m 675 669 l 675 668 l 677 668 l 677 669 l 675 669 m 671 667 l 671 666 l 673 666 l 673 667 l 671 667 m 659 666 l 659 665 l 661 665 l 661 666 l 659 666 m 668 665 l 668 664 l 670 664 l 670 665 l 668 665 m 656 664 l 656 663 l 658 663 l 658 664 l 656 664 m 659 659 l 659 658 l 661 658 q 667 661 665 661 l 667 663 l 666 663 q 659 659 661 659 m 650 661 l 650 659 l 652 659 l 652 661 l 650 661 m 656 657 l 656 656 l 658 656 l 658 657 l 656 657 m 642 654 l 642 654 l 644 654 l 644 654 l 642 654 m 650 654 l 650 652 l 651 652 q 654 654 654 654 l 654 654 l 654 654 q 650 654 652 654 m 635 651 l 635 650 l 638 650 l 638 651 l 635 651 m 647 651 l 647 650 l 649 650 l 649 651 l 647 651 m 642 648 l 642 647 l 642 647 q 646 648 644 648 l 646 649 l 645 649 q 642 648 642 648 m 627 646 l 627 645 l 629 645 l 629 646 l 627 646 m 638 646 l 638 645 l 640 645 l 640 646 l 638 646 m 619 642 l 619 640 l 620 640 q 623 642 623 642 l 623 642 l 623 642 q 619 642 620 642 m 614 638 l 614 637 l 614 637 q 618 638 616 638 l 618 639 l 616 639 q 614 638 614 638 m 604 638 l 604 637 l 606 637 l 606 638 l 604 638 m 595 630 l 595 629 l 597 629 l 597 630 l 595 630 m 564 610 l 566 610 l 566 609 l 564 609 l 564 610 m 559 607 l 561 607 l 561 606 l 559 606 l 559 607 m 557 606 l 559 606 l 559 604 l 557 604 l 557 606 m 555 604 l 557 604 q 554 602 557 602 l 553 602 q 555 604 553 604 m 555 600 l 555 599 l 557 599 q 562 601 560 601 l 562 602 l 561 602 q 555 600 557 600 m 551 602 l 553 602 l 553 601 l 551 601 l 551 602 m 549 601 l 551 601 l 551 600 l 549 600 l 549 601 m 547 600 l 549 600 q 543 597 549 597 q 547 600 543 598 m 541 597 l 543 597 l 543 595 l 541 595 l 541 597 m 533 592 l 535 592 l 535 591 l 533 591 l 533 592 m 538 592 l 540 592 l 540 591 l 538 591 l 538 592 m 531 591 l 533 591 l 533 590 l 531 590 l 531 591 m 535 591 l 538 591 l 538 590 l 535 590 l 535 591 m 529 590 l 531 590 l 530 588 q 531 587 531 588 q 347 492 434 532 q 345 494 345 492 q 529 590 437 539 m 533 590 l 535 590 l 535 589 l 533 589 l 533 590 m 540 582 l 542 582 l 542 581 l 540 581 l 540 582 m 517 576 l 519 576 l 517 574 q 519 573 519 574 l 516 572 q 513 573 514 573 l 513 574 q 517 576 515 574 m 530 576 l 532 576 l 532 576 l 530 576 l 530 576 m 511 573 l 513 573 l 513 572 l 511 572 l 511 573 m 513 572 l 515 572 l 515 571 l 513 571 l 513 572 m 511 571 l 513 571 l 513 570 l 511 570 l 511 571 m 509 570 l 511 570 l 511 569 l 509 569 l 509 570 m 455 541 q 227 431 358 486 q 455 541 234 436 m 417 516 q 408 512 417 513 q 417 516 408 515 m 372 494 q 365 491 370 491 l 363 491 l 363 492 l 372 494 m 361 491 l 363 491 l 363 490 l 361 490 l 361 491 m 359 490 l 361 490 l 361 488 l 359 488 l 359 490 m 357 488 l 359 488 l 359 488 l 357 488 l 357 488 m 346 481 q 343 479 346 479 l 340 479 l 340 481 l 346 481 m 307 481 l 309 481 l 309 479 l 307 479 l 307 481 m 304 479 l 307 479 l 307 478 l 304 478 l 304 479 m 338 479 l 340 479 l 340 478 l 338 478 l 338 479 m 302 478 l 304 478 l 304 477 l 302 477 l 302 478 m 336 478 l 338 478 l 338 477 l 336 477 l 336 478 m 313 476 l 315 476 l 315 475 l 313 475 l 313 476 m 311 475 l 313 475 l 313 474 l 311 474 l 311 475 m 309 474 l 311 474 l 311 473 l 309 473 l 309 474 m 307 473 l 309 473 l 309 472 l 307 472 l 307 473 m 304 472 l 307 472 l 307 471 l 304 471 l 304 472 m 321 472 l 323 472 l 323 471 l 321 471 l 321 472 m 302 471 l 304 471 l 304 469 l 302 469 l 302 471 m 319 471 l 321 471 l 321 469 l 319 469 l 319 471 m 317 469 l 319 469 l 319 469 l 317 469 l 317 469 m 288 464 l 290 464 l 290 463 l 288 463 l 288 464 m 304 464 l 307 464 l 307 463 l 304 463 l 304 464 m 302 463 l 304 463 l 304 462 l 302 462 l 302 463 m 290 457 l 292 457 l 292 456 l 290 456 l 290 457 m 288 456 l 290 456 l 290 455 l 288 455 l 288 456 m 277 452 l 280 452 l 280 450 l 277 450 l 277 452 m 265 446 l 268 446 l 268 445 l 265 445 l 265 446 m 172 422 l 174 422 q 172 419 174 419 l 170 419 q 172 422 170 422 m 83 388 l 83 386 q 90 391 88 386 l 90 391 q 83 388 85 388 m 78 386 l 77 384 l 83 384 l 83 385 q 78 386 79 386 m 52 377 l 52 374 q 58 374 56 374 l 58 377 l 52 377 m 54 372 l 54 369 l 58 369 l 58 372 l 54 372 m 107 340 l 109 340 q 211 334 160 340 l 213 334 l 213 336 l 208 336 l 208 338 l 212 338 l 212 339 q 197 340 201 339 l 197 342 l 199 342 q 214 338 214 342 q 213 337 213 338 l 224 337 l 224 338 l 215 338 l 215 341 l 216 341 q 258 340 228 341 l 264 340 l 264 341 q 232 343 237 343 l 232 346 q 237 348 237 346 l 250 348 l 250 349 q 175 351 201 351 l 156 351 q 126 350 146 351 l 126 353 l 135 353 l 135 353 l 130 353 q 111 349 111 353 l 107 340 m 166 348 l 168 348 q 215 347 210 347 l 215 345 l 214 345 q 166 346 171 346 l 166 348 m 137 345 l 142 345 l 142 342 l 137 342 l 137 345 m 225 337 l 225 336 l 237 336 l 237 337 l 225 337 m 111 337 l 116 337 l 116 334 l 111 334 l 111 337 m 237 336 l 237 334 l 248 334 l 248 336 l 237 336 m 134 336 l 142 336 l 142 334 l 134 334 l 134 336 m 250 334 l 250 334 l 260 334 l 260 334 l 250 334 m 159 334 l 164 334 l 164 332 l 159 332 l 159 334 m 262 334 l 262 332 l 271 332 l 271 334 l 262 334 m 182 334 l 186 334 l 186 331 l 182 331 l 182 334 m 274 332 l 274 331 l 282 331 l 282 332 l 274 332 m 287 331 l 287 330 l 294 330 l 294 331 l 287 331 m 299 330 l 299 329 l 306 329 l 306 330 l 299 330 m 311 329 l 311 328 l 317 328 l 317 329 l 311 329 m 325 328 l 325 327 l 328 327 l 328 328 l 325 328 m 337 327 l 337 326 l 339 326 l 339 327 l 337 327 m 62 239 l 62 237 l 64 237 l 64 239 l 62 239 m 61 235 l 61 233 l 62 233 l 62 235 l 61 235 m 60 232 l 60 230 l 61 230 l 61 232 l 60 232 m 59 229 q 2 30 29 136 l 2 28 l 3 28 q 60 227 3 43 l 60 229 l 59 229 m -2 40 l -2 38 l -1 38 l -1 40 l -2 40 m 1 26 q -3 7 1 23 l -3 4 l -2 4 q 2 24 -2 7 l 2 26 l 1 26 m -18 3 l -18 1 l -17 1 l -17 3 l -18 3 m -19 -2 l -19 -5 l -18 -5 l -18 -2 l -19 -2 m -20 -8 l -20 -12 l -19 -12 l -19 -8 l -20 -8 m -21 -21 l -19 -21 l -19 -24 l -21 -24 l -21 -21 m -19 -24 l -17 -24 l -17 -26 l -19 -26 l -19 -24 m -17 -33 l -15 -33 l -15 -35 l -17 -35 l -17 -33 m -15 -37 l -12 -37 l -12 -39 l -15 -39 l -15 -37 m -22 -43 l -20 -43 l -20 -46 l -22 -46 l -22 -43 m -16 -43 l -14 -43 l -14 -46 l -16 -46 l -16 -43 m -19 -45 l -17 -45 l -17 -48 l -19 -48 l -19 -45 m -24 -50 l -21 -50 l -21 -52 l -24 -52 l -24 -50 m -20 -52 l -18 -52 q -16 -56 -18 -56 l -16 -58 l -17 -58 q -20 -57 -19 -57 l -20 -52 m -24 -57 l -22 -57 l -22 -60 l -24 -60 l -24 -57 m -21 -59 l -19 -59 l -18 -65 q -24 -163 -24 -94 l -24 -164 l -26 -164 q -27 -116 -27 -130 q -21 -59 -27 -105 m -26 -65 l -24 -65 l -24 -68 l -26 -68 l -26 -65 m -27 -73 l -24 -73 l -24 -76 l -27 -76 l -27 -73 m -28 -81 l -26 -81 l -26 -85 l -28 -85 l -28 -81 m -29 -90 l -27 -90 l -27 -94 l -29 -94 l -29 -90 m -31 -100 l -28 -100 l -28 -102 l -31 -102 l -31 -100 m -31 -114 l -29 -114 l -29 -116 l -31 -116 l -31 -114 m -39 -200 l -37 -200 q -20 -263 -37 -213 q -39 -200 -39 -228 z "}}}
